<?xml version="1.0" standalone="no"?>
<!DOCTYPE svg PUBLIC "-//W3C//DTD SVG 20010904//EN"
 "http://www.w3.org/TR/2001/REC-SVG-20010904/DTD/svg10.dtd">
<svg version="1.0" xmlns="http://www.w3.org/2000/svg"
  viewBox="0 0 300.000000 75.000000"
 preserveAspectRatio="xMidYMid meet">
<metadata>
Created by potrace 1.10, written by Peter Selinger 2001-2011
</metadata>
<g transform="translate(0.000000,86.000000) scale(0.050000,-0.050000)"
fill="#f3f3f3" stroke="none">
<path d="M3988 1645 c-6 -19 -19 -51 -29 -70 -27 -50 -24 -55 31 -55 52 0 68
30 25 46 -20 7 -20 14 0 36 14 14 25 38 25 52 0 38 -40 32 -52 -9z"/>
<path d="M3710 1593 c-11 -16 -76 -103 -145 -192 -111 -145 -125 -173 -122
-247 2 -63 5 -70 11 -27 9 54 10 55 47 22 41 -37 54 -129 19 -129 -11 0 -20
-13 -20 -30 0 -16 13 -30 29 -30 15 0 32 -16 36 -35 7 -28 13 -23 31 20 23 54
64 76 64 34 0 -12 9 -16 20 -9 33 21 24 76 -11 62 -17 -6 -35 1 -42 18 -17 45
-52 36 -37 -10 9 -27 4 -40 -15 -40 -20 0 -25 18 -19 63 7 49 -1 71 -36 97
l-46 35 53 69 c29 38 53 84 53 101 0 17 22 45 50 63 27 18 55 56 62 84 9 35
18 44 28 27 24 -38 2 -143 -42 -204 -44 -61 -34 -113 14 -73 16 13 26 35 23
49 -13 65 41 20 94 -79 76 -140 91 -131 19 11 -42 84 -83 317 -55 317 1 0 52
-66 113 -148 108 -143 110 -148 79 -195 -30 -43 -30 -45 -1 -21 28 23 34 20
42 -20 6 -32 9 -24 11 25 2 51 -15 95 -59 155 -61 84 -61 84 -15 85 40 0 43 4
17 25 -16 13 -33 38 -36 54 -13 57 -48 73 -44 20 7 -82 3 -82 -75 2 -61 65
-79 74 -95 51z"/>
<path d="M3591 1209 c-25 -39 -29 -59 -13 -75 16 -16 22 -10 22 23 0 25 8 40
19 34 26 -17 49 29 26 52 -12 12 -32 0 -54 -34z"/>
<path d="M3905 1143 c13 -51 -27 -59 -65 -13 -36 44 -65 37 -40 -10 25 -47
-52 -60 -96 -16 -19 19 -24 17 -24 -6 0 -64 80 -106 113 -60 38 54 59 53 77
-3 l15 -45 9 45 c9 47 35 59 56 25 7 -11 1 -21 -14 -21 -14 -1 -5 -12 21 -24
36 -18 50 -16 64 6 27 43 25 93 -3 65 -31 -31 -78 -10 -78 35 0 20 -10 43 -23
51 -16 10 -20 1 -12 -29z"/>
<path d="M3115 1126 c-43 -11 -47 -46 -5 -46 25 0 30 -49 30 -318 0 -264 -5
-320 -30 -329 -63 -25 -26 -53 70 -53 76 0 100 7 100 30 0 17 -15 30 -32 30
-29 0 -32 38 -25 350 8 383 13 368 -108 336z"/>
<path d="M610 1023 c-349 -166 -267 -633 111 -633 179 0 192 8 211 125 16 102
-22 119 -55 25 -41 -117 -193 -138 -301 -43 -79 72 -105 270 -48 379 74 143
332 150 332 8 0 -76 48 -40 63 48 17 98 10 104 -123 118 -84 9 -129 3 -190
-27z"/>
<path d="M3340 1047 c0 -7 15 -24 34 -38 29 -21 30 -30 8 -57 -23 -27 -22 -32
4 -32 18 0 37 9 44 20 7 11 21 20 32 20 11 0 16 -7 11 -15 -5 -9 -3 -72 5
-140 13 -112 11 -125 -20 -125 -20 0 -41 -9 -48 -20 -7 -11 10 -20 39 -20 28
0 51 -9 51 -20 0 -11 -7 -18 -15 -16 -24 7 -105 -44 -105 -66 0 -11 8 -15 18
-9 10 6 13 -25 7 -72 -8 -60 -5 -79 12 -69 13 8 23 45 23 83 0 52 7 65 30 56
17 -6 30 0 30 15 0 14 24 2 56 -28 148 -142 324 -66 376 161 17 76 29 94 60
91 74 -9 99 13 51 46 -23 17 -43 43 -43 59 0 112 -58 -13 -91 -195 -15 -87
-58 -154 -82 -128 -10 10 -6 21 8 26 14 5 25 42 25 83 1 40 10 112 21 159 11
50 12 99 2 117 -11 21 -29 -39 -53 -186 -20 -119 -44 -232 -52 -249 -22 -44
-118 -26 -118 22 0 19 -13 72 -29 117 -16 46 -21 83 -12 83 11 0 11 26 0 63
-34 119 -43 86 -29 -103 13 -181 12 -188 -21 -156 -25 24 -37 72 -41 160 -9
194 -10 196 -24 196 -8 0 -16 33 -18 73 -4 74 -44 123 -68 84 -9 -15 -17 -14
-27 1 -14 24 -51 30 -51 9z"/>
<path d="M4802 1042 l-87 -12 -82 -235 c-45 -129 -87 -235 -94 -235 -7 0 -48
108 -91 240 l-78 239 -95 1 c-96 0 -128 -27 -55 -46 47 -12 49 -49 19 -330
-14 -124 -32 -202 -50 -216 -58 -45 -32 -70 64 -64 94 6 152 56 66 56 -44 0
-45 4 -32 153 7 84 13 189 13 234 0 117 24 77 121 -203 47 -135 94 -242 105
-239 11 4 62 128 114 276 l95 269 13 -180 c7 -99 17 -205 22 -235 6 -39 -2
-60 -31 -75 -69 -37 -42 -60 71 -60 84 0 110 7 110 30 0 17 -13 30 -28 30 -70
0 -104 535 -35 553 24 7 43 24 43 39 0 16 -2 27 -5 25 -3 -2 -44 -8 -93 -15z"/>
<path d="M4046 1018 c-13 -13 -18 -36 -11 -53 9 -25 4 -26 -32 -7 -55 30 -56
0 -1 -34 24 -15 37 -39 30 -56 -9 -23 -3 -25 27 -8 54 28 70 60 31 60 -26 0
-30 12 -20 60 14 65 10 72 -24 38z"/>
<path d="M2335 887 c-79 -56 -95 -87 -45 -87 24 0 30 -32 30 -166 0 -230 81
-320 205 -226 50 38 43 53 -21 48 -93 -7 -104 13 -104 188 l0 161 80 -10 c70
-10 80 -6 80 29 0 34 -11 39 -69 32 -60 -7 -70 -2 -75 39 l-6 46 -75 -54z"/>
<path d="M1075 846 c-43 -11 -45 -38 -5 -53 23 -9 30 -49 30 -180 0 -132 -7
-171 -30 -180 -66 -25 -25 -53 78 -53 77 0 111 8 119 30 9 22 -2 30 -38 30
-56 0 -77 244 -25 296 34 34 96 30 96 -6 0 -55 35 -31 48 33 6 34 12 70 12 80
0 36 -70 15 -124 -37 l-56 -53 0 53 c0 55 -20 62 -105 40z"/>
<path d="M1380 848 c0 -6 18 -34 39 -62 152 -193 163 -499 20 -553 -68 -25
-72 -80 -8 -89 67 -9 125 76 249 368 65 153 128 281 139 284 66 22 14 64 -79
64 -55 0 -100 -9 -100 -20 0 -11 17 -20 37 -20 61 0 62 -18 10 -157 -69 -183
-75 -184 -123 -19 l-43 146 45 35 c43 33 42 34 -71 35 -63 0 -115 -5 -115 -12z"/>
<path d="M1953 819 c-92 -73 -74 -146 57 -230 118 -75 135 -114 67 -150 -56
-31 -137 5 -137 61 0 61 -35 48 -50 -20 -18 -84 -1 -100 112 -100 236 0 261
167 44 291 -96 55 -108 119 -26 130 71 9 100 -3 100 -41 0 -22 13 -40 30 -40
21 0 30 21 30 70 0 87 -132 104 -227 29z"/>
<path d="M2695 829 c-30 -17 -55 -43 -55 -60 0 -36 0 -36 76 2 71 36 132 16
149 -48 15 -59 -10 -83 -115 -110 -111 -28 -142 -64 -122 -141 20 -80 98 -109
174 -64 58 35 62 34 87 -1 22 -30 37 -33 84 -16 76 27 90 88 17 74 l-53 -10 3
137 c2 76 2 153 2 172 -5 89 -137 124 -247 65z m165 -289 c0 -47 -11 -62 -50
-72 -116 -29 -153 55 -45 102 90 39 95 38 95 -30z"/>
<path d="M5090 827 c-77 -41 -76 -41 -61 -66 9 -14 32 -11 71 9 73 38 90 38
129 -1 68 -69 40 -120 -87 -155 -136 -38 -167 -89 -105 -174 48 -65 116 -74
171 -22 43 40 43 40 68 1 31 -49 88 -50 131 -2 48 52 41 64 -30 49 l-62 -12
14 154 c22 236 -61 313 -239 219z m170 -273 c0 -61 -36 -94 -102 -94 -100 0
-92 78 12 115 86 31 90 30 90 -21z"/>
<path d="M5440 830 c0 -16 13 -30 28 -30 30 0 152 -332 152 -413 0 -52 -103
-167 -149 -167 -50 0 -30 -69 22 -76 66 -10 129 85 256 383 63 150 123 273
133 273 10 0 18 14 18 30 0 23 -24 30 -100 30 -55 0 -100 -9 -100 -20 0 -11
17 -20 37 -20 61 0 63 -20 11 -157 -69 -183 -76 -184 -122 -19 l-41 146 43 35
c41 33 39 34 -73 35 -89 0 -115 -7 -115 -30z"/>
</g>
</svg>
