<?xml version="1.0" encoding="UTF-8"?>
<!DOCTYPE svg PUBLIC "-//W3C//DTD SVG 1.1//EN" "http://www.w3.org/Graphics/SVG/1.1/DTD/svg11.dtd">
<!-- Creator: CorelDRAW 2021.5 (Evaluation Version) -->
<svg xmlns="http://www.w3.org/2000/svg" xml:space="preserve" width="11in" height="8.5in" version="1.1" style="shape-rendering:geometricPrecision; text-rendering:geometricPrecision; image-rendering:optimizeQuality; fill-rule:evenodd; clip-rule:evenodd"
viewBox="0 0 11000 8500"
 xmlns:xlink="http://www.w3.org/1999/xlink"
 xmlns:xodm="http://www.corel.com/coreldraw/odm/2003">
 <defs>
  <style type="text/css">
   <![CDATA[
    .fil0 {fill:#F3F3F3;fill-rule:nonzero}
   ]]>
  </style>
 </defs>
 <g id="Layer_x0020_1">
  <metadata id="CorelCorpID_0Corel-Layer"/>
  <g id="_1638062299952">
   <path class="fil0" d="M7012.28 2783.22c-10.89,24.03 -34.49,64.48 -52.62,88.5 -49,63.22 -43.56,69.54 56.26,69.54 94.37,0 123.41,-37.93 45.37,-58.16 -36.3,-8.85 -36.3,-17.7 0,-45.52 25.41,-17.7 45.37,-48.04 45.37,-65.74 0,-48.04 -72.59,-40.46 -94.37,11.38z"/>
   <path class="fil0" d="M6507.78 2848.96c-19.96,20.23 -137.92,130.22 -263.13,242.75 -201.43,183.32 -226.83,218.72 -221.41,312.28 3.64,79.65 9.07,88.5 19.96,34.14 16.34,-68.28 18.15,-69.54 85.3,-27.81 74.4,46.78 98,163.1 34.48,163.1 -19.96,0 -36.3,16.44 -36.3,37.93 0,20.23 23.59,37.93 52.62,37.93 27.22,0 58.07,20.23 65.34,44.25 12.7,35.4 23.59,29.08 56.26,-25.29 41.74,-68.28 116.15,-96.09 116.15,-42.99 0,15.18 16.34,20.23 36.3,11.39 59.89,-26.55 43.55,-96.09 -19.96,-78.39 -30.85,7.59 -63.51,-1.26 -76.22,-22.75 -30.85,-56.89 -94.37,-45.52 -67.15,12.64 16.34,34.14 7.26,50.57 -27.22,50.57 -36.3,0 -45.36,-22.75 -34.48,-79.65 12.7,-61.95 -1.81,-89.77 -65.34,-122.63l-83.47 -44.25 96.18 -87.24c52.62,-48.04 96.17,-106.21 96.17,-127.69 0,-21.49 39.92,-56.89 90.74,-79.65 49,-22.76 99.81,-70.8 112.51,-106.21 16.34,-44.25 32.66,-55.63 50.81,-34.13 43.56,48.04 3.63,180.8 -76.22,257.92 -79.85,77.13 -61.7,142.87 25.41,92.29 29.04,-16.44 47.19,-44.25 41.74,-61.95 -23.59,-82.18 74.41,-25.29 170.58,99.88 137.92,177 165.15,165.62 34.49,-13.91 -76.22,-106.21 -150.62,-400.78 -99.81,-400.78 1.81,0 94.37,83.44 205.07,187.11 196,180.8 199.62,187.11 143.37,246.54 -54.45,54.37 -54.45,56.89 -1.81,26.55 50.81,-29.08 61.7,-25.29 76.22,25.29 10.89,40.45 16.33,30.34 19.96,-31.61 3.64,-64.48 -27.22,-120.11 -107.07,-195.96 -110.7,-106.21 -110.7,-106.21 -27.22,-107.47 72.59,0 78.04,-5.06 30.85,-31.61 -29.04,-16.44 -59.89,-48.04 -65.34,-68.27 -23.59,-72.07 -87.11,-92.29 -79.85,-25.29 12.7,103.67 5.44,103.67 -136.11,-2.54 -110.7,-82.18 -143.36,-93.56 -172.41,-64.48l0 -0.04z"/>
   <path class="fil0" d="M6291.82 3334.46c-45.37,49.3 -52.62,74.59 -23.59,94.82 29.04,20.23 39.92,12.64 39.92,-29.08 0,-31.61 14.51,-50.57 34.49,-42.99 47.19,21.5 88.92,-36.66 47.19,-65.74 -21.78,-15.18 -58.07,0 -98,42.99z"/>
   <path class="fil0" d="M6861.66 3417.91c23.59,64.48 -49,74.59 -117.96,16.44 -65.34,-55.63 -117.96,-46.78 -72.59,12.65 45.36,59.43 -94.37,75.86 -174.22,20.23 -34.49,-24.03 -43.56,-21.49 -43.56,7.59 0,80.92 145.18,134.02 205.07,75.87 68.96,-68.28 107.07,-67 139.73,3.79l27.22 56.89 16.34 -56.89c16.34,-59.43 63.51,-74.59 101.62,-31.6 12.7,13.91 1.81,26.55 -25.41,26.55 -25.41,1.26 -9.07,15.18 38.11,30.34 65.34,22.76 90.74,20.23 116.15,-7.59 49,-54.37 45.37,-117.58 -5.44,-82.18 -56.26,39.19 -141.56,12.65 -141.56,-44.25 0,-25.29 -18.15,-54.37 -41.74,-64.48 -29.04,-12.65 -36.3,-1.26 -21.78,36.66l0.03 -0.01z"/>
   <path class="fil0" d="M5428.01 3439.39c-78.04,13.91 -85.3,58.15 -9.07,58.15 45.37,0 54.45,61.95 54.45,402.05 0,333.78 -9.07,404.57 -54.45,415.96 -114.32,31.61 -47.19,67 127.03,67 137.92,0 181.47,-8.85 181.47,-37.93 0,-21.49 -27.22,-37.93 -58.07,-37.93 -52.62,0 -58.07,-48.04 -45.37,-442.51 14.52,-484.23 23.59,-465.26 -196,-424.8l0 0.01z"/>
   <path class="fil0" d="M882.07 3569.63c-633.35,209.87 -484.54,800.31 201.43,800.31 324.83,0 348.43,-10.11 382.92,-158.03 29.04,-128.96 -39.92,-150.46 -99.81,-31.61 -74.41,147.92 -350.24,174.47 -546.24,54.37 -143.37,-91.03 -190.56,-341.37 -87.11,-479.18 134.3,-180.8 602.5,-189.65 602.5,-10.11 0,96.09 87.11,50.57 114.32,-60.69 30.85,-123.91 18.15,-131.48 -223.22,-149.19 -152.44,-11.38 -234.11,-3.8 -344.8,34.14l0 -0.02z"/>
   <path class="fil0" d="M5836.32 3539.28c0,8.85 27.22,30.34 61.7,48.04 52.62,26.55 54.44,37.93 14.51,72.07 -41.74,34.14 -39.92,40.46 7.26,40.46 32.66,0 67.15,-11.38 79.85,-25.29 12.7,-13.91 38.11,-25.29 58.07,-25.29 19.96,0 29.04,8.85 19.96,18.96 -9.07,11.38 -5.44,91.03 9.07,177 23.59,141.6 19.96,158.03 -36.3,158.03 -36.3,0 -74.41,11.38 -87.11,25.29 -12.7,13.91 18.15,25.29 70.77,25.29 50.81,0 92.56,11.39 92.56,25.29 0,13.91 -12.7,22.76 -27.22,20.23 -43.56,-8.85 -190.56,55.63 -190.56,83.44 0,13.91 14.52,18.96 32.66,11.38 18.15,-7.59 23.59,31.6 12.7,91.03 -14.52,75.86 -9.07,99.88 21.78,87.24 23.59,-10.11 41.74,-56.89 41.74,-104.93 0,-65.74 12.7,-82.18 54.44,-70.8 30.85,7.59 54.44,0 54.44,-18.96 0,-17.7 43.56,-2.53 101.62,35.4 268.58,179.53 587.98,83.44 682.35,-203.55 30.85,-96.09 52.62,-118.84 108.89,-115.06 134.3,11.39 179.66,-16.44 92.56,-58.15 -41.74,-21.49 -78.04,-54.37 -78.04,-74.59 0,-141.61 -105.26,16.44 -165.15,246.54 -27.22,109.99 -105.26,194.7 -148.81,161.83 -18.15,-12.64 -10.89,-26.55 14.51,-32.87 25.41,-6.32 45.37,-53.1 45.37,-104.94 1.81,-50.57 18.15,-141.6 38.11,-201.02 19.96,-63.22 21.78,-125.17 3.63,-147.92 -19.96,-26.55 -52.62,49.3 -96.18,235.16 -36.3,150.46 -79.85,293.32 -94.36,314.81 -39.92,55.63 -214.13,32.88 -214.13,-27.81 0,-24.02 -23.59,-91.03 -52.62,-147.92 -29.04,-58.15 -38.11,-104.94 -21.78,-104.94 19.96,0 19.96,-32.87 0,-79.65 -61.7,-150.46 -78.04,-108.73 -52.62,130.22 23.59,228.84 21.78,237.69 -38.11,197.24 -45.36,-30.35 -67.15,-91.03 -74.41,-202.3 -16.33,-245.28 -18.15,-247.8 -43.55,-247.8 -14.52,0 -29.04,-41.73 -32.66,-92.29 -7.26,-93.56 -79.85,-155.51 -123.41,-106.21 -16.34,18.96 -30.85,17.7 -49,-1.26 -25.41,-30.34 -92.56,-37.93 -92.56,-11.38l0 -0.02z"/>
   <path class="fil0" d="M8489.49 3545.6l-157.88 15.17 -148.81 297.12c-81.66,163.1 -157.88,297.11 -170.58,297.11 -12.7,0 -87.11,-136.55 -165.15,-303.43l-141.56 -302.17 -172.41 -1.26c-174.21,0 -232.28,34.14 -99.81,58.15 85.3,15.18 88.92,61.95 34.48,417.22 -25.41,156.77 -58.07,255.39 -90.74,273.09 -105.26,56.89 -58.07,88.5 116.15,80.92 170.58,-7.59 275.84,-70.8 119.77,-70.8 -79.85,0 -81.67,-5.06 -58.07,-193.44 12.7,-106.21 23.6,-238.95 23.6,-295.85 0,-147.92 43.55,-97.35 219.58,256.65 85.3,170.68 170.58,305.96 190.56,302.17 19.96,-5.06 112.51,-161.83 206.87,-348.95l172.41 -340.09 23.59 227.58c12.7,125.17 30.85,259.19 39.92,297.11 10.89,49.3 -3.64,75.86 -56.26,94.82 -125.22,46.78 -76.22,75.87 128.85,75.87 152.44,0 199.62,-8.85 199.62,-37.93 0,-21.49 -23.59,-37.93 -50.81,-37.93 -127.03,0 -188.73,-676.4 -63.52,-699.15 43.56,-8.85 78.04,-30.35 78.04,-49.31 0,-20.23 -3.63,-34.14 -9.07,-31.6 -5.44,2.53 -79.85,10.11 -168.77,18.96l-0.03 -0.03z"/>
   <path class="fil0" d="M7117.54 3575.94c-23.59,16.44 -32.66,45.52 -19.96,67 16.34,31.6 7.26,32.87 -58.07,8.85 -99.81,-37.93 -101.62,0 -1.81,42.99 43.56,18.96 67.15,49.3 54.45,70.8 -16.34,29.08 -5.45,31.6 49,10.11 98,-35.4 127.02,-75.86 56.26,-75.86 -47.19,0 -54.44,-15.18 -36.3,-75.86 25.41,-82.18 18.15,-91.03 -43.55,-48.04l-0.02 0.02z"/>
   <path class="fil0" d="M4012.5 3741.57c-143.37,70.8 -172.41,109.99 -81.66,109.99 43.56,0 54.44,40.46 54.44,209.87 0,290.79 147,404.57 372.03,285.74 90.74,-48.04 78.04,-67 -38.11,-60.69 -168.77,8.85 -188.73,-16.44 -188.73,-237.69l0 -203.56 145.18 12.65c127.02,12.64 145.17,7.59 145.17,-36.66 0,-42.99 -19.96,-49.3 -125.22,-40.45 -108.89,8.85 -127.02,2.53 -136.11,-49.31l-10.89 -58.15 -136.11 68.28 0 -0.01z"/>
   <path class="fil0" d="M1725.93 3793.4c-78.04,13.91 -81.66,48.04 -9.07,67 41.74,11.38 54.44,61.95 54.44,227.58 0,166.89 -12.7,216.2 -54.44,227.58 -119.77,31.61 -45.37,67 141.56,67 139.73,0 201.43,-10.11 215.96,-37.93 16.34,-27.81 -3.63,-37.93 -68.96,-37.93 -101.62,0 -139.73,-308.49 -45.37,-374.23 61.7,-42.99 174.22,-37.93 174.22,7.59 0,69.54 63.51,39.19 87.11,-41.72 10.89,-42.99 21.78,-88.5 21.78,-101.14 0,-45.52 -127.03,-18.96 -225.02,46.78l-101.62 67 0 -67c0,-69.54 -36.3,-78.39 -190.56,-50.57l-0.03 0z"/>
   <path class="fil0" d="M2279.43 3790.88c0,7.59 32.66,42.99 70.77,78.39 275.84,244.01 295.81,630.89 36.3,699.16 -123.41,31.61 -130.66,101.14 -14.52,112.52 121.59,11.38 226.84,-96.08 451.88,-465.26 117.96,-193.44 232.28,-355.27 252.26,-359.06 119.77,-27.81 25.41,-80.92 -143.36,-80.92 -99.81,0 -181.47,11.38 -181.47,25.29 0,13.91 30.85,25.29 67.15,25.29 110.7,0 112.52,22.75 18.15,198.5 -125.22,231.37 -136.11,232.63 -223.22,24.03l-78.04 -184.59 81.66 -44.25c78.04,-41.72 76.22,-42.99 -128.85,-44.25 -114.32,0 -208.7,6.32 -208.7,15.18l0 -0.01z"/>
   <path class="fil0" d="M3319.28 3827.54c-166.96,92.29 -134.3,184.59 103.44,290.79 214.14,94.83 244.99,144.13 121.59,189.65 -101.62,39.19 -248.62,-6.31 -248.62,-77.13 0,-77.12 -63.52,-60.69 -90.74,25.29 -32.66,106.2 -1.81,126.43 203.26,126.43 428.28,0 473.65,-211.14 79.85,-367.91 -174.22,-69.54 -196,-150.45 -47.19,-164.36 128.85,-11.38 181.47,3.8 181.47,51.83 0,27.81 23.59,50.58 54.44,50.58 38.11,0 54.45,-26.55 54.45,-88.5 0,-109.99 -239.56,-131.48 -411.94,-36.66l-0.02 -0.01z"/>
   <path class="fil0" d="M4665.81 3814.9c-54.45,21.49 -99.81,54.37 -99.81,75.86 0,45.52 0,45.52 137.92,-2.54 128.85,-45.52 239.56,-20.23 270.39,60.69 27.22,74.59 -18.15,104.93 -208.7,139.07 -201.43,35.4 -257.69,80.92 -221.41,178.27 36.3,101.14 177.85,137.81 315.77,80.92 105.26,-44.25 112.51,-42.99 157.87,1.26 39.92,37.93 67.15,41.72 152.45,20.23 137.92,-34.13 163.32,-111.26 30.85,-93.56l-96.18 12.64 5.45 -173.21c3.63,-96.09 3.63,-193.44 3.63,-217.46 -9.07,-112.52 -248.62,-156.77 -448.24,-82.18zm299.43 365.38c0,59.43 -19.96,78.39 -90.74,91.03 -210.51,36.66 -277.66,-69.54 -81.66,-128.96 163.33,-49.31 172.41,-48.04 172.41,37.93z"/>
   <path class="fil0" d="M9012.14 3817.43c-139.73,51.83 -137.92,51.83 -110.7,83.44 16.34,17.7 58.07,13.91 128.85,-11.38 132.47,-48.04 163.32,-48.04 234.11,1.26 123.41,87.24 72.59,151.72 -157.88,195.96 -246.81,48.04 -303.07,112.52 -190.55,219.99 87.11,82.18 210.51,93.56 310.32,27.81 78.04,-50.57 78.04,-50.57 123.41,-1.26 56.26,61.95 159.7,63.22 237.73,2.53 87.11,-65.74 74.41,-80.92 -54.44,-61.95l-112.52 15.18 25.41 -194.7c39.92,-298.38 -110.7,-395.72 -433.73,-276.88zm308.5 345.15c0,77.12 -65.34,118.84 -185.11,118.84 -181.47,0 -166.96,-98.62 21.78,-145.4 156.07,-39.19 163.32,-37.93 163.32,26.55l0 0.01z"/>
   <path class="fil0" d="M9647.3 3813.63c0,20.23 23.59,37.93 50.81,37.93 54.44,0 275.83,419.75 275.83,522.15 0,65.74 -186.92,211.14 -270.39,211.14 -90.74,0 -54.44,87.23 39.92,96.08 119.77,12.65 234.11,-107.47 464.58,-484.23 114.32,-189.65 223.22,-345.16 241.36,-345.16 18.15,0 32.66,-17.7 32.66,-37.93 0,-29.08 -43.55,-37.93 -181.47,-37.93 -99.81,0 -181.47,11.38 -181.47,25.29 0,13.91 30.85,25.29 67.15,25.29 110.7,0 114.32,25.29 19.96,198.5 -125.22,231.36 -137.92,232.63 -221.41,24.02l-74.41 -184.59 78.04 -44.25c74.41,-41.73 70.77,-42.99 -132.47,-44.25 -161.51,0 -208.7,8.85 -208.7,37.93z"/>
  </g>
 </g>
</svg>
