<?xml version="1.0" encoding="UTF-8"?>
<!DOCTYPE svg PUBLIC "-//W3C//DTD SVG 1.1//EN" "http://www.w3.org/Graphics/SVG/1.1/DTD/svg11.dtd">
<!-- Creator: CorelDRAW 2021.5 (Evaluation Version) -->
<svg xmlns="http://www.w3.org/2000/svg" xml:space="preserve" width="8.5in" height="11in" version="1.1" style="shape-rendering:geometricPrecision; text-rendering:geometricPrecision; image-rendering:optimizeQuality; fill-rule:evenodd; clip-rule:evenodd"
viewBox="0 0 8500 11000"
 xmlns:xlink="http://www.w3.org/1999/xlink"
 xmlns:xodm="http://www.corel.com/coreldraw/odm/2003">
 <defs>
  <style type="text/css">
   <![CDATA[
    .str0 {stroke:#CC0000;stroke-width:3;stroke-miterlimit:2.61313}
    .fil2 {fill:#606062;fill-rule:nonzero}
    .fil3 {fill:#4B4B4D;fill-rule:nonzero}
    .fil1 {fill:#373435;fill-rule:nonzero}
    .fil0 {fill:#CC0000;fill-rule:nonzero}
    .fil4 {fill:#CC0000;fill-rule:nonzero}
   ]]>
  </style>
 </defs>
 <g id="Layer_x0020_1">
  <metadata id="CorelCorpID_0Corel-Layer"/>
  <g id="_1638295722848">
   <path class="fil0 str0" d="M5117.25 544.62c-75.95,49.43 -150.7,155.52 -168.78,237.5 -3.61,21.7 -13.26,42.19 -19.29,45.81 -6.03,4.82 -10.85,21.7 -10.85,39.79 0,18.08 -8.44,59.07 -18.09,91.62 -12.06,40.99 -18.08,113.33 -18.08,233.88l0 176.02 -57.87 55.46c-31.35,30.14 -80.78,68.72 -110.92,84.39 -49.43,26.52 -67.51,28.93 -204.94,28.93 -135.03,0 -162.76,-3.61 -265.23,-38.58 -124.17,-39.78 -250.76,-74.74 -277.28,-74.74 -8.44,0 15.67,20.49 55.46,47.02 130.2,84.39 179.63,161.55 178.43,284.52 0,109.7 -36.17,179.63 -145.87,291.75 -65.1,65.1 -97.65,89.21 -157.93,110.91 -72.33,27.73 -86.8,28.94 -247.14,21.7 -94.04,-4.82 -192.89,-13.26 -219.42,-20.49 -73.54,-18.09 -395.43,-14.47 -506.34,6.03 -53.04,9.64 -120.56,16.88 -150.7,18.08 -51.84,0 -151.9,19.29 -283.31,54.25 -32.55,8.44 -103.68,25.31 -156.72,36.17 -53.05,12.06 -107.3,25.32 -120.56,31.35 -62.69,25.31 -150.7,57.87 -210.98,77.16 -36.17,12.06 -74.74,27.73 -84.39,34.96 -22.91,18.08 -104.89,55.46 -120.56,55.46 -6.03,0 -34.96,15.67 -63.89,36.17 -30.14,19.29 -57.87,36.17 -62.69,36.17 -13.26,0 -168.78,104.89 -277.28,186.87 -96.44,73.54 -324.3,283.31 -315.86,291.75 2.41,2.41 53.04,-24.11 110.91,-59.07 135.02,-81.98 341.18,-186.87 379.76,-194.1 16.88,-3.61 60.28,-18.08 96.44,-32.55 36.17,-14.46 101.27,-33.76 144.67,-43.4 88.01,-19.29 350.82,-22.91 405.07,-6.03 19.29,6.03 49.43,14.47 68.72,18.09 25.31,6.03 32.55,14.46 32.55,37.37 0,22.91 -9.64,33.76 -32.55,43.4 -72.33,26.52 -110.91,44.61 -290.54,133.82 -102.47,51.84 -208.57,109.71 -235.09,130.2 -27.73,19.29 -54.25,36.17 -59.07,36.17 -6.03,0 -39.78,21.7 -74.74,48.22 -34.96,26.52 -68.72,48.22 -75.95,48.22 -6.03,0 -21.7,12.06 -34.96,25.31 -12.06,14.47 -37.37,34.96 -54.25,45.81 -121.77,74.74 -407.49,346 -591.94,561.8 -98.86,115.74 -94.04,109.71 -224.24,298.98 -65.1,95.24 -59.07,85.59 -122.96,192.89 -26.52,44.61 -48.22,84.39 -48.22,88.01 0,4.82 -19.29,38.58 -42.19,77.16 -22.91,38.58 -42.2,74.74 -42.2,81.98 0,7.24 -20.49,57.87 -47.02,113.32 -25.31,55.46 -49.43,113.33 -54.25,130.2 -4.82,16.88 -27.73,80.77 -50.63,143.46 -22.91,62.69 -49.43,145.87 -59.07,186.87 -8.44,40.99 -26.52,112.12 -40.99,157.93 -45.81,161.54 -85.59,517.19 -85.59,783.63 0,477.41 104.89,983.75 284.52,1363.51 56.66,120.56 63.89,167.57 65.1,368.91 0,96.44 3.62,184.46 7.24,195.3 6.03,14.47 25.31,19.29 90.42,19.29 108.5,0 112.12,-7.24 101.27,-186.87 -12.06,-190.48 -14.46,-186.87 151.9,-186.87 162.76,0 153.11,-13.26 144.67,206.16 -1.2,27.73 -10.85,36.17 -74.74,59.07 -78.37,30.14 -77.16,49.43 1.2,47.02 65.1,-2.41 67.52,-1.2 81.98,31.35 14.46,30.14 18.09,31.34 107.3,27.73l94.04 -3.62 6.03 -108.5c3.61,-60.28 3.61,-260.41 0,-446.07l-6.03 -337.56 -88.01 -3.61c-126.59,-4.82 -127.79,-4.82 -116.94,169.99 6.03,103.68 4.82,147.08 -6.03,159.14 -12.06,14.46 -45.81,18.08 -145.87,18.08 -71.13,0 -132.61,-4.82 -136.23,-10.85 -3.62,-6.03 -9.65,-79.57 -13.26,-162.76 -2.41,-84.39 -8.44,-157.93 -12.06,-163.96 -10.85,-16.88 -155.52,-14.47 -172.4,2.41 -9.65,9.65 -14.47,56.67 -14.47,132.62 0,94.04 -3.61,118.15 -16.88,118.15 -20.49,0 -18.08,7.23 -71.13,-217 -61.48,-256.79 -77.16,-359.26 -55.46,-378.55 21.7,-19.29 177.22,-79.57 333.94,-127.79 67.51,-21.7 126.59,-44.61 130.2,-49.43 3.62,-6.03 -33.76,-10.85 -81.98,-10.85 -48.22,0 -153.11,-6.03 -231.47,-12.06 -203.74,-16.88 -192.89,-1.21 -183.25,-271.26 10.85,-317.07 33.76,-490.67 96.44,-722.14 47.02,-172.4 75.95,-253.17 96.45,-266.43 10.85,-7.24 55.46,-6.03 124.17,3.61 179.63,22.91 268.84,30.14 268.84,19.29 0,-9.64 -48.22,-38.58 -244.73,-142.26 -44.61,-24.11 -72.34,-47.02 -75.95,-65.1 -12.06,-43.4 159.14,-372.52 300.19,-578.68 125.38,-183.25 358.06,-448.48 394.22,-448.48 10.85,0 84.39,43.4 163.96,95.24 135.02,90.42 182.04,107.3 126.59,48.22 -13.26,-14.47 -39.79,-49.43 -57.87,-75.95 -18.09,-27.73 -36.17,-51.84 -39.79,-55.46 -20.49,-18.09 -60.28,-84.39 -66.31,-110.92 -7.23,-28.93 3.62,-39.78 113.32,-125.38 124.18,-97.65 200.13,-154.32 254.38,-185.66 16.88,-10.85 51.84,-32.55 78.37,-49.43 107.3,-68.72 394.22,-208.57 500.31,-243.53 129,-42.19 131.41,-40.99 198.92,81.98 43.4,78.37 66.31,107.3 75.95,97.65 1.21,-2.41 -4.82,-57.87 -14.46,-122.97 -13.26,-92.83 -14.46,-121.76 -3.61,-132.61 19.29,-16.88 309.83,-84.39 448.47,-103.68 61.48,-8.44 236.29,-14.46 403.87,-14.46 244.73,0 302.6,3.61 339.97,19.29l43.4 19.29 8.44 106.09 9.65 104.89 21.7 -59.07c13.26,-32.55 22.91,-67.51 22.91,-78.36 0,-10.85 9.64,-32.55 22.91,-48.22l22.91 -27.73 88.01 20.49c183.25,44.61 347.21,91.63 366.5,104.89 7.24,3.61 36.17,14.46 66.31,22.91 91.63,25.31 436.42,192.89 512.37,249.56 20.49,14.46 48.22,30.14 61.48,33.76 34.96,10.85 44.61,51.84 22.91,96.44 -31.34,62.69 -20.49,73.54 24.11,27.73 24.11,-25.31 49.43,-44.61 56.67,-44.61 43.4,0 436.42,352.03 524.43,468.97 12.06,15.67 38.58,48.22 57.87,72.33 120.56,144.67 235.09,324.3 235.09,366.5 0,19.29 8.44,33.76 21.7,37.37 19.29,6.03 147.08,238.7 147.08,267.64 0,7.24 12.06,36.17 25.31,65.1 26.52,55.46 49.43,121.76 95.24,277.28 14.47,49.43 30.14,103.68 36.17,120.56 6.03,16.88 14.47,62.69 18.09,102.47 4.82,39.78 13.26,91.62 19.29,116.94 27.73,110.91 34.96,549.74 12.06,726.96 -18.08,130.2 -36.17,236.29 -50.63,295.37 -25.31,96.44 -67.52,244.73 -94.04,321.89 -32.55,97.65 -32.55,108.5 10.85,118.15 20.49,4.82 36.17,10.85 36.17,14.47 0,4.82 -31.34,40.99 -71.13,80.77 -107.3,113.33 -168.78,265.23 -151.9,380.96 26.52,190.48 121.76,326.71 282.11,405.07 59.07,30.14 81.98,33.76 182.04,33.76 100.06,0 122.97,-3.61 180.84,-32.55 143.46,-71.13 236.29,-191.69 271.26,-349.62 19.29,-88.01 19.29,-100.07 1.2,-174.81 -21.7,-91.62 -24.11,-135.02 -7.24,-135.02 10.85,0 136.23,38.58 391.81,120.56 180.84,57.87 289.34,73.54 409.9,59.07 168.78,-21.7 295.37,-115.74 425.57,-318.27 14.46,-22.91 88.01,-176.02 110.91,-229.06 26.52,-65.1 97.65,-313.45 115.74,-403.87 16.88,-89.22 37.37,-191.69 77.16,-382.17 6.03,-27.73 24.11,-72.34 40.99,-97.65 72.33,-115.74 91.63,-236.29 68.72,-430.39 -16.88,-149.49 -31.34,-213.39 -73.54,-323.09 -37.37,-97.65 -54.25,-124.17 -169.98,-267.64 -37.37,-47.02 -86.8,-116.94 -108.5,-156.72 -37.37,-65.1 -40.99,-81.98 -40.99,-166.37 0,-50.63 -2.41,-92.83 -6.03,-92.83 -3.62,0 -18.09,21.7 -33.76,48.22 -37.37,65.1 -37.37,231.47 -1.21,302.6 21.7,40.99 33.76,169.99 22.91,231.47 -9.64,53.04 -20.49,71.13 -67.51,112.11 -108.5,97.65 -256.79,114.53 -374.94,42.2 -50.63,-31.35 -92.83,-80.78 -139.85,-165.17 -12.06,-20.5 -44.61,-188.07 -44.61,-227.85 0,-42.2 30.14,-122.97 73.54,-198.92 121.76,-210.98 296.57,-564.21 343.59,-693.2 10.85,-33.76 24.11,-66.31 28.94,-72.34 14.46,-20.49 107.3,-300.19 126.59,-380.96 10.85,-42.19 27.73,-107.3 37.37,-143.46 45.81,-169.99 65.1,-308.63 65.1,-487.05 0,-303.81 -48.22,-427.98 -254.38,-655.83 -77.16,-83.19 -115.74,-143.47 -137.44,-213.39 -7.23,-22.91 -8.44,-22.91 -20.49,-2.41 -16.88,31.35 0,132.61 36.17,212.18 40.99,92.83 42.19,169.99 2.41,212.19 -37.37,39.78 -86.8,66.31 -124.17,66.31 -38.58,0 -132.62,-63.89 -174.81,-118.15 -19.29,-24.11 -56.67,-85.59 -83.19,-135.02 -74.75,-143.47 -191.69,-312.24 -309.83,-450.89 -75.95,-89.21 -284.52,-296.57 -297.78,-296.57 -4.82,0 -18.08,-8.44 -28.93,-19.29 -32.55,-32.55 -33.76,-9.64 -2.41,39.79 78.36,122.96 333.94,681.15 333.94,728.17 0,10.85 13.26,49.43 28.93,85.59 31.35,69.93 59.07,174.81 79.57,292.96 6.03,39.78 18.09,107.3 25.31,150.7 25.32,142.26 -2.41,333.94 -65.1,453.3 -10.85,19.29 -40.99,57.87 -68.72,85.59 -44.61,47.02 -55.46,51.84 -106.09,51.84 -74.74,0 -165.17,-33.76 -265.23,-100.06 -98.86,-65.1 -145.87,-115.74 -190.48,-208.57 -43.4,-91.63 -53.05,-251.97 -24.11,-446.07 24.11,-166.37 24.11,-257.99 0,-408.69 -26.52,-173.6 -51.84,-251.96 -110.91,-361.67 -75.95,-138.64 -174.81,-233.89 -358.06,-347.21 -39.78,-25.31 -80.77,-50.63 -90.42,-56.66 -9.64,-6.03 -48.22,-25.32 -84.39,-42.2 -302.6,-138.64 -472.59,-291.75 -611.22,-552.15 -15.67,-27.73 -27.73,-57.87 -27.73,-66.31 0,-8.44 -8.44,-43.4 -19.29,-75.95 -22.91,-68.72 -19.29,-254.38 4.82,-278.49 19.29,-19.29 18.09,-45.81 0,-45.81 -8.44,0 -31.34,10.85 -51.84,24.11l0 0.01zm1346.63 6752.45c77.16,30.14 133.82,81.98 167.57,153.11 34.96,71.13 27.73,183.24 -18.08,260.4 -34.96,59.07 -121.77,122.97 -183.25,135.03 -104.89,19.29 -219.42,-45.81 -274.87,-155.52 -80.78,-157.93 -12.06,-324.3 162.75,-395.43 67.51,-27.73 69.92,-27.73 145.87,2.41l0 -0z"/>
   <path class="fil1" d="M2642.2 5813c-55.46,33.76 -86.8,91.62 -86.8,160.34 0,127.79 98.86,213.39 227.85,196.51 55.46,-7.24 61.48,-4.82 103.68,33.76 30.14,28.94 69.92,49.43 130.2,66.31 122.97,36.17 167.57,61.49 190.48,108.5 25.31,54.25 90.41,118.15 149.49,149.49 37.37,19.29 71.13,25.31 144.67,25.31 96.44,0 149.49,-16.88 201.33,-61.49 26.52,-24.11 68.72,-16.88 311.04,49.43 36.17,9.65 129,34.96 204.95,54.25 75.95,20.5 168.78,45.81 204.95,56.67 36.17,10.85 120.56,32.55 186.87,48.22 66.31,16.88 142.26,37.37 168.78,45.81 26.52,9.65 89.22,25.31 138.64,37.37 49.43,10.85 142.26,36.17 204.95,54.25 62.69,19.29 149.49,43.4 192.89,54.25 102.47,25.31 344.8,89.22 393.02,103.68 20.5,6.03 53.05,10.85 72.33,9.64 33.76,-1.2 33.76,-1.2 -9.64,-15.67 -24.11,-7.24 -51.84,-20.5 -60.28,-28.94 -7.24,-7.23 -21.7,-14.46 -30.14,-14.46 -8.44,0 -25.31,-4.82 -37.37,-12.06 -19.29,-10.85 -120.56,-53.05 -448.47,-185.66 -75.95,-31.35 -148.29,-61.48 -159.14,-67.52 -10.85,-6.03 -57.87,-24.11 -102.47,-39.78 -44.61,-16.88 -106.09,-40.99 -136.23,-54.25 -30.14,-14.46 -84.39,-36.17 -120.56,-50.63 -36.17,-13.26 -81.98,-32.55 -102.47,-42.2 -31.35,-14.46 -174.81,-73.54 -488.26,-201.33 -49.43,-20.49 -109.71,-44.61 -132.62,-54.25 -102.47,-42.19 -124.17,-60.28 -148.29,-122.97 -28.93,-80.77 -119.35,-171.19 -189.27,-192.89 -85.6,-25.31 -177.22,-19.29 -256.79,15.67l-68.72 30.14 -81.98 -37.37c-66.31,-31.34 -96.44,-38.58 -174.81,-39.78 -81.98,-1.21 -97.65,-6.03 -126.59,-32.55 -62.69,-57.87 -90.42,-69.93 -159.14,-69.93 -44.61,0 -78.36,7.24 -106.09,24.11l0 0z"/>
   <path class="fil2" d="M1539.09 7122.26c-13.26,14.46 -9.64,600.38 4.82,667.89 19.29,90.41 77.16,167.57 155.52,210.97 62.69,33.76 74.74,36.17 198.92,36.17 120.56,0 138.64,-3.62 194.1,-32.55 77.16,-40.99 125.38,-97.65 153.11,-180.84 19.29,-55.46 21.7,-103.68 18.09,-383.37l-3.62 -319.48 -77.16 -3.62c-43.4,-2.41 -83.19,2.41 -89.21,8.44 -8.44,8.44 -14.47,121.76 -15.67,307.42 -3.61,319.48 -8.44,347.2 -73.54,389.4 -39.78,26.52 -155.52,28.94 -200.13,4.82 -71.13,-38.58 -74.74,-51.84 -80.77,-393.02l-6.03 -313.45 -84.39 -3.62c-47.02,-1.2 -89.22,0 -94.04,4.82l0 0z"/>
   <path class="fil2" d="M2702.48 7129.49c-16.88,16.88 -20.49,848.73 -3.61,875.25 6.03,10.85 33.76,14.46 92.83,12.06l83.19 -3.61 3.62 -253.17c1.2,-138.64 7.23,-256.79 13.26,-262.81 12.06,-12.06 20.5,2.41 174.81,283.31 63.89,116.94 124.17,218.21 133.82,226.65 9.64,7.24 49.43,12.06 98.86,9.65l81.98 -3.61 0 -446.07 0 -446.06 -77.16 -3.62c-42.2,-2.41 -81.98,1.21 -88.01,7.24 -6.03,6.03 -13.26,124.17 -15.67,262.82 -2.41,138.64 -4.82,254.37 -4.82,256.79 -2.41,15.67 -43.4,-38.58 -83.19,-110.91 -176.02,-320.69 -221.83,-400.25 -235.09,-408.69 -22.91,-14.46 -159.14,-10.85 -174.81,4.82l0 -0z"/>
   <path class="fil2" d="M3847.78 7124.67c-10.85,7.24 -14.47,106.09 -12.06,449.68l3.62 438.83 138.64 3.61c226.65,6.03 330.33,-25.31 441.24,-136.23 215.8,-215.8 144.67,-595.56 -136.23,-725.76 -63.89,-28.93 -86.8,-32.55 -244.73,-36.17 -96.44,-2.41 -182.04,0 -190.48,6.03l0 0zm354.44 198.92c78.36,45.81 114.53,94.04 137.44,186.87 42.19,160.34 -81.98,326.71 -243.53,327.92 -31.34,0 -59.07,-4.82 -62.69,-10.85 -10.85,-15.67 -22.91,-491.87 -13.26,-506.34 10.85,-18.09 150.7,-15.67 182.04,2.41l0 -0z"/>
   <path class="fil2" d="M4950.89 7123.46c-10.85,9.64 -10.85,851.14 -1.21,876.45 10.85,27.73 167.57,27.73 178.43,0 3.62,-10.85 7.24,-72.33 7.24,-136.23 0,-65.1 3.61,-120.56 7.24,-125.38 16.88,-16.88 44.61,12.06 114.53,120.56 107.3,165.17 100.07,160.34 227.85,160.34 60.28,0 108.5,-3.61 108.5,-7.24 0,-4.82 -39.79,-60.28 -86.8,-122.96 -161.55,-209.77 -157.93,-202.54 -113.32,-219.42 53.04,-20.5 112.12,-83.19 139.85,-150.7 66.31,-163.96 -18.09,-347.21 -179.63,-391.81 -48.22,-13.26 -390.61,-16.88 -402.66,-3.61l0 0zm380.96 184.45c16.88,19.29 33.76,51.84 38.58,71.13 10.85,49.43 -20.5,115.74 -65.1,138.64 -43.4,22.91 -135.02,25.32 -155.52,4.82 -20.49,-20.49 -19.29,-235.09 1.21,-242.32 7.23,-3.62 44.61,-7.24 83.19,-7.24 61.48,-1.2 71.13,2.41 97.65,34.96l0 0z"/>
   <path class="fil3" d="M4865.29 8852.26c-63.9,15.67 -132.62,73.54 -165.17,138.64 -49.43,102.47 -18.08,241.12 73.54,315.86 89.22,73.54 253.17,65.1 338.77,-16.88 149.49,-142.26 85.59,-393.02 -110.92,-437.62 -61.48,-14.47 -73.54,-14.47 -136.23,0l0 0zm179.63 72.33c38.58,22.91 81.98,89.21 95.24,144.67 20.49,91.62 -69.93,219.42 -166.37,232.67 -104.89,14.47 -183.25,-26.52 -225.44,-119.35 -28.94,-61.48 -28.94,-103.68 1.2,-167.57 51.84,-114.53 186.87,-155.52 295.37,-90.42l-0 0z"/>
   <path class="fil3" d="M970.06 8863.11c-16.88,27.73 13.26,36.17 127.79,36.17 136.23,0 143.46,7.23 85.59,83.19 -19.29,24.11 -54.25,75.95 -79.57,115.74 -24.11,39.79 -65.1,104.89 -91.62,144.67 -74.75,116.94 -77.16,114.53 126.59,114.53 166.37,0 174.81,-1.21 174.81,-24.11 0,-22.91 -8.44,-24.11 -109.71,-24.11 -60.28,0 -119.35,-6.03 -132.61,-12.06 -20.49,-12.06 -18.08,-19.29 48.22,-118.15 168.78,-250.76 195.3,-295.37 189.28,-311.04 -4.82,-13.26 -40.99,-16.88 -168.78,-16.88 -95.24,0 -165.17,4.82 -169.99,12.06l0 0z"/>
   <path class="fil4" d="M3449.94 8913.75c-8.44,8.44 -14.46,31.34 -14.46,51.84 0,42.19 -18.09,66.31 -50.64,66.31 -37.37,0 -26.52,45.81 12.06,50.63l32.55 3.62 6.03 122.97c6.03,120.56 21.7,167.57 48.22,141.05 6.03,-6.03 13.26,-67.52 14.46,-137.44 3.62,-122.97 4.82,-125.38 33.76,-132.61 16.88,-3.62 30.14,-13.26 30.14,-21.7 0,-8.44 -13.26,-21.7 -30.14,-30.14 -22.91,-12.06 -31.35,-26.52 -36.17,-67.52 -6.03,-56.66 -21.7,-71.13 -45.81,-47.02l0 0z"/>
   <path class="fil0" d="M1642.77 9033.1c-59.07,16.88 -104.89,84.39 -104.89,155.52 0,66.31 25.31,110.91 80.78,144.67 67.51,42.19 182.04,22.91 213.39,-34.96 16.88,-31.34 -8.44,-39.78 -53.04,-15.67 -54.25,26.52 -129,21.7 -155.52,-10.85 -36.17,-44.61 -20.49,-53.05 109.71,-56.67 107.3,-2.41 124.17,-6.03 135.02,-26.52 9.65,-18.08 8.44,-34.96 -6.03,-65.1 -24.11,-50.64 -48.22,-72.34 -101.27,-90.42 -47.02,-15.67 -65.1,-15.67 -118.15,0l-0 0zm139.85 77.16c15.67,15.67 24.11,33.76 20.5,40.99 -10.85,15.67 -183.25,18.09 -192.89,2.41 -22.91,-36.17 56.67,-90.42 113.33,-77.16 16.88,3.62 43.4,19.29 59.07,33.76z"/>
   <path class="fil0" d="M2217.83 9034.31c-15.67,6.03 -40.99,8.44 -56.67,3.61 -14.46,-3.61 -30.14,0 -36.17,8.44 -9.64,18.09 -6.03,284.52 4.82,302.6 18.08,30.14 39.78,-37.37 39.78,-124.18 0,-80.77 3.62,-95.24 27.73,-118.15 15.67,-14.46 37.37,-26.52 48.22,-26.52 27.73,0 38.58,-24.11 19.29,-42.2 -12.06,-10.85 -25.31,-12.06 -47.02,-3.61z"/>
   <path class="fil0" d="M2573.48 9036.72c-20.49,8.44 -53.04,33.76 -71.13,56.66 -30.14,34.96 -33.76,47.02 -28.94,102.48 10.85,130.2 129,197.72 247.14,141.05 90.42,-42.19 118.15,-169.99 55.46,-245.94 -55.46,-65.1 -130.2,-85.6 -202.54,-54.25l0 0zm141.06 63.9c10.85,9.64 26.52,33.76 33.76,53.04 13.26,30.14 12.06,43.4 -6.03,83.19 -22.91,50.63 -48.22,65.1 -114.53,62.69 -53.04,-2.41 -108.5,-57.87 -108.5,-109.7 0,-42.2 49.43,-106.09 88.01,-113.33 37.37,-6.03 83.19,3.62 107.3,24.11z"/>
   <path class="fil0" d="M3875.51 9034.31c-179.63,62.69 -129,323.09 62.69,323.09 89.21,0 172.4,-81.98 172.4,-169.99 0,-62.69 -55.46,-135.02 -116.94,-153.11 -56.67,-16.88 -69.93,-16.88 -118.15,0l0 0zm132.61 65.1c32.55,21.7 48.22,73.54 36.17,124.17 -13.26,60.28 -50.63,80.77 -141.05,75.95 -21.7,-2.41 -39.78,-14.46 -56.67,-43.4 -73.54,-118.15 44.61,-233.89 161.55,-156.72l0 0z"/>
   <path class="fil0" d="M5539.2 9036.72c-24.11,10.85 -43.4,12.06 -59.07,4.82 -14.47,-8.44 -26.52,-7.24 -34.96,1.2 -14.46,14.46 -12.06,291.75 3.61,307.42 22.91,24.11 36.17,-10.85 36.17,-98.86 0,-90.42 14.46,-135.02 53.04,-161.55 21.7,-14.46 89.21,-10.85 100.06,4.82 4.82,8.44 12.06,68.72 15.67,132.61 3.61,63.89 10.85,120.56 15.67,125.38 22.91,24.11 33.76,-24.11 30.14,-145.87l-3.62 -131.41 -40.99 -27.73c-47.02,-31.35 -65.1,-33.76 -115.74,-10.85l0 0z"/>
   <path class="fil0" d="M6045.55 9036.72c-62.69,27.73 -102.48,85.59 -102.48,149.49 0,31.35 7.24,69.93 15.67,86.8 22.91,44.61 89.21,84.39 142.26,84.39 81.98,0 165.17,-55.46 132.61,-88.01 -8.44,-8.44 -22.91,-4.82 -45.81,9.64 -48.22,32.55 -135.02,27.73 -162.75,-8.44 -10.85,-14.46 -19.29,-33.76 -16.88,-39.78 1.2,-7.24 56.67,-13.26 121.76,-15.67 65.1,-1.2 126.59,-9.65 135.03,-16.88 57.87,-47.02 -57.87,-179.63 -155.52,-178.43 -15.67,1.2 -44.61,8.44 -63.9,16.88l0 0zm136.23 63.9c15.67,9.64 26.52,26.52 24.11,37.37 -3.61,16.88 -20.5,21.7 -92.83,24.11 -104.89,3.62 -126.59,-8.44 -86.8,-50.63 43.4,-45.81 95.24,-49.43 155.52,-10.85z"/>
   <path class="fil0" d="M5312.56 9703.41c-4.82,3.61 -8.44,56.66 -8.44,116.94 0,60.28 -4.82,115.74 -9.64,124.18 -6.03,9.64 -22.91,10.85 -63.89,1.2 -86.8,-20.5 -137.44,-4.82 -179.63,53.04 -62.69,85.6 -39.78,195.3 50.64,250.76 48.22,28.93 95.24,30.14 143.46,4.82 28.93,-14.46 40.99,-15.67 54.25,-4.82 8.44,8.44 25.32,12.06 34.96,7.23 15.67,-6.03 18.09,-45.81 18.09,-270.05 0,-207.36 -3.62,-267.64 -15.67,-278.49 -9.65,-7.23 -20.5,-9.64 -24.11,-4.82l-0 0zm-51.84 313.45c44.61,47.02 50.63,91.62 20.49,141.05 -69.92,113.33 -232.68,43.4 -200.13,-86.8 21.7,-88.01 120.56,-118.15 179.63,-54.25z"/>
   <path class="fil0" d="M3791.11 9721.48c-2.41,8.44 -7.23,63.9 -8.44,124.18 -3.61,89.21 -7.24,107.3 -21.7,104.89 -60.28,-14.47 -142.26,-13.26 -168.78,0 -47.02,25.31 -84.39,90.42 -84.39,147.08 0,122.97 139.85,218.21 227.85,156.72 22.91,-16.88 32.55,-16.88 56.66,-3.61 19.29,9.65 33.76,10.85 40.99,3.61 8.44,-8.44 10.85,-112.11 9.65,-277.28 -3.61,-239.91 -6.03,-264.02 -25.31,-267.64 -10.85,-2.41 -22.91,2.41 -26.52,12.06l-0 0zm-37.37 300.19c43.4,51.84 42.19,109.71 -3.62,156.72 -75.95,74.74 -182.04,28.93 -182.04,-78.37 0,-43.4 6.03,-60.28 32.55,-85.59 49.43,-44.61 112.12,-42.19 153.11,7.24l0 0z"/>
   <path class="fil3" d="M1888.71 9774.53c-12.06,13.26 -9.65,454.5 2.41,473.79 6.03,9.65 19.29,13.26 30.14,9.65 15.67,-6.03 19.29,-27.73 19.29,-108.5 0,-61.48 6.03,-106.09 14.46,-114.53 16.88,-16.88 163.96,-19.29 190.48,-2.41 16.88,10.85 20.49,42.19 24.11,208.57 0,15.67 7.24,20.49 27.73,18.08 26.52,-3.61 26.52,-3.61 26.52,-244.73 0,-226.65 -1.2,-241.12 -22.91,-244.73 -31.35,-6.03 -40.99,15.67 -33.76,75.95 2.41,28.93 1.21,72.33 -2.41,96.44l-8.44 43.4 -104.89 -3.62 -104.89 -3.61 -6.03 -102.48c-4.82,-79.57 -9.65,-102.47 -24.11,-106.09 -10.85,-1.21 -22.91,0 -27.73,4.82l0.01 0z"/>
   <path class="fil0" d="M3130.46 9943.31c-4.82,4.82 -34.96,9.65 -66.31,10.85l-56.66 0 -3.62 114.53c-4.82,144.67 3.62,195.3 31.35,190.48 16.88,-3.61 21.7,-22.91 26.52,-110.91 6.03,-97.65 9.65,-108.5 39.79,-135.02 44.61,-37.37 84.39,-37.37 115.74,2.41 21.7,27.73 25.31,49.43 25.31,138.64 0,86.8 3.62,107.3 18.09,107.3 25.31,0 33.76,-48.22 27.73,-163.96 -4.82,-81.98 -9.65,-107.3 -30.14,-126.59 -25.31,-25.31 -110.91,-44.61 -127.79,-27.73l-0 0z"/>
   <path class="fil0" d="M4203.42 9943.31c-3.61,3.61 -27.73,8.44 -53.04,8.44l-45.81 2.41 -3.61 114.53c-4.82,131.41 3.61,192.89 26.52,192.89 10.85,0 18.08,-27.73 22.91,-94.04 6.03,-90.42 32.55,-171.19 56.67,-171.19 6.03,0 25.31,-6.03 42.19,-12.06 27.73,-10.85 30.14,-15.67 18.09,-30.14 -15.67,-18.08 -50.64,-24.11 -63.9,-10.85l-0 0z"/>
   <path class="fil0" d="M4562.69 9944.52c-89.21,24.11 -130.2,163.96 -72.33,251.96 22.91,34.96 102.47,77.16 144.67,77.16 38.58,0 126.59,-54.25 126.59,-78.36 0,-22.91 -24.11,-22.91 -67.52,0 -51.84,26.52 -95.24,21.7 -137.44,-13.26 -54.25,-45.81 -32.55,-57.87 112.12,-65.1l122.97 -6.03 3.61 -42.19c2.41,-34.96 -3.61,-49.43 -38.58,-83.19 -36.17,-34.96 -53.04,-42.2 -106.09,-44.61 -34.96,-1.2 -74.75,0 -88.01,3.62l0 0zm136.23 59.07c18.08,12.06 26.52,28.94 24.11,44.61 -3.62,24.11 -12.06,26.52 -91.63,30.14 -101.27,3.62 -121.76,-13.26 -74.74,-65.1 33.76,-34.96 100.06,-39.79 142.26,-9.65l-0 0z"/>
   <path class="fil0" d="M2481.86 9962.6c0,8.44 0,67.52 1.2,130.2 1.21,106.09 3.62,116.94 31.35,141.05 43.4,39.78 85.59,47.02 131.41,22.91 33.76,-18.08 43.4,-19.29 65.1,-4.82 40.99,25.32 49.43,-4.82 47.02,-159.13 -3.62,-129 -4.82,-138.64 -27.73,-138.64 -21.7,0 -25.32,9.64 -30.14,96.44 -7.23,116.94 -22.91,147.08 -79.57,157.93 -71.13,13.26 -88.01,-13.26 -91.62,-144.67 -3.61,-92.83 -7.24,-109.71 -24.11,-113.32 -12.06,-2.41 -21.7,2.41 -22.91,12.06l0 -0z"/>
  </g>
 </g>
</svg>
