<?xml version="1.0" standalone="no"?>
<!DOCTYPE svg PUBLIC "-//W3C//DTD SVG 20010904//EN"
 "http://www.w3.org/TR/2001/REC-SVG-20010904/DTD/svg10.dtd">
<svg version="1.0" xmlns="http://www.w3.org/2000/svg"
 width="262.000000pt" height="300.000000pt" viewBox="0 0 262.000000 300.000000"
 preserveAspectRatio="xMidYMid meet">
<metadata>
Created by potrace 1.10, written by Peter Selinger 2001-2011
</metadata>
<g transform="translate(0.000000,300.000000) scale(0.100000,-0.100000)"
fill="#48c5d5" stroke="none">
<path d="M1755 2543 c-16 -3 -41 -14 -53 -26 -13 -12 -32 -21 -42 -19 -20 3
-70 -50 -71 -76 0 -9 -8 2 -17 25 -9 23 -20 45 -24 49 -16 15 -129 -19 -173
-53 -40 -30 -45 -38 -45 -75 0 -40 0 -40 -17 -19 -18 21 -19 21 -117 6 -55 -8
-102 -15 -106 -15 -4 0 -16 -21 -27 -46 -16 -36 -23 -43 -29 -31 -11 18 -89
33 -98 19 -3 -6 8 -22 26 -36 l32 -25 -24 -9 c-22 -9 -27 -6 -38 20 -7 17 -11
37 -8 44 3 7 1 16 -5 19 -5 4 -21 -19 -35 -50 l-26 -57 22 -30 c16 -22 19 -33
11 -41 -6 -6 -11 -27 -11 -46 -1 -32 -5 -38 -43 -57 -27 -13 -48 -33 -60 -56
-17 -35 -17 -36 12 -106 l29 -72 -63 35 c-34 19 -66 35 -71 35 -15 0 -87 -129
-94 -171 -10 -54 29 -116 89 -144 39 -17 41 -20 25 -32 -9 -7 -43 -15 -74 -19
l-58 -6 -6 -46 c-10 -74 -9 -77 54 -118 34 -22 63 -49 66 -61 9 -36 -26 -113
-60 -134 l-31 -19 -6 43 c-3 23 -3 44 0 47 3 3 26 18 50 33 23 16 41 31 38 33
-3 3 -28 -10 -56 -28 l-51 -33 0 -56 c0 -56 0 -56 58 -105 44 -38 167 -138
212 -172 3 -2 -12 -19 -34 -36 -42 -36 -43 -50 -4 -113 18 -30 24 -33 69 -33
46 0 50 -2 65 -33 15 -32 35 -40 61 -24 6 4 36 -2 66 -12 31 -11 69 -22 84
-24 15 -3 59 -15 96 -27 38 -12 71 -19 74 -16 3 3 12 -2 20 -10 9 -8 23 -12
34 -9 17 6 19 3 13 -22 -4 -15 -11 -38 -15 -50 -7 -20 -2 -26 43 -52 l51 -30
41 21 c23 11 60 34 84 50 29 20 47 27 55 20 17 -13 30 -12 232 14 300 40 355
50 355 66 0 6 8 20 17 31 17 19 17 19 -32 12 -53 -8 -101 -23 -75 -24 8 0 32
3 53 8 37 9 48 2 25 -17 -12 -9 -138 -35 -144 -29 -1 1 10 16 25 33 21 24 39
32 77 37 27 4 67 9 89 12 30 4 35 3 20 -4 -20 -9 -20 -10 1 -10 11 -1 29 8 39
19 15 17 16 22 4 36 -11 13 -28 16 -96 12 -61 -3 -86 -1 -94 9 -7 7 -20 13
-30 13 -15 0 -19 8 -19 40 0 35 -3 40 -27 46 -16 3 -35 8 -44 10 -9 3 -22 -3
-30 -12 -12 -14 -15 -10 -24 37 l-10 54 -65 7 c-53 5 -67 3 -77 -10 -7 -8 -25
-16 -40 -17 -16 -1 -35 -5 -44 -9 -22 -9 -29 29 -29 149 l0 93 -68 18 -67 17
-2 146 c-2 240 -2 241 -18 246 -8 3 -22 7 -30 10 -12 3 -11 12 5 61 23 67 23
64 10 64 -5 0 -10 -7 -10 -15 0 -9 -7 -31 -15 -51 l-14 -35 -30 22 -30 22 24
13 c42 21 205 186 205 206 0 10 6 31 14 47 8 15 16 54 18 87 3 55 1 59 -19 62
-13 2 -23 7 -23 11 0 28 40 88 110 166 63 71 81 99 87 130 5 32 21 56 86 122
l81 83 -22 23 c-20 21 -28 23 -70 16 -26 -4 -51 -3 -56 2 -10 9 -55 10 -111 2z
m95 -12 c0 -5 -8 -15 -17 -22 -16 -13 -17 -12 -4 4 7 9 11 17 8 17 -3 0 -39
-41 -81 -91 -42 -50 -76 -88 -76 -85 0 3 15 29 33 58 18 29 41 70 52 91 17 31
25 37 52 37 18 0 33 -4 33 -9z m-90 -10 c0 -16 -18 -22 -23 -9 -3 7 -6 0 -6
-16 -1 -31 -77 -176 -92 -176 -6 0 11 38 36 85 26 47 43 85 38 85 -14 0 -35
-17 -33 -26 1 -5 -3 -10 -9 -12 -24 -8 -9 18 26 47 37 31 63 40 63 22z m222
-9 c9 -10 6 -16 -10 -28 -12 -8 -70 -53 -129 -100 l-108 -86 110 111 c60 61
105 111 100 111 -5 0 -64 -54 -130 -119 -111 -111 -121 -119 -139 -106 -15 11
-16 17 -8 28 7 8 10 17 7 20 -3 4 -2 5 2 2 9 -7 94 76 88 85 -3 4 5 16 18 26
l22 19 -20 -25 -20 -25 27 24 c15 13 25 29 21 35 -3 6 -2 8 2 3 5 -4 18 1 29
12 32 29 118 38 138 13z m-310 -66 c12 1 7 -14 -20 -58 -46 -78 -61 -85 -23
-11 29 58 29 59 9 72 -16 10 -17 15 -6 28 11 14 13 13 19 -8 3 -13 12 -23 21
-23z m-117 4 c21 -40 5 -72 -57 -111 -35 -23 -61 -31 -98 -33 l-50 -1 0 51 c0
48 2 53 38 77 34 24 91 43 134 46 10 1 24 -12 33 -29z m70 -38 c-8 -30 -44
-112 -49 -112 -3 0 -11 -3 -20 -6 -14 -5 -13 0 3 36 11 24 17 50 13 58 -3 9
-1 13 5 9 6 -4 16 7 23 23 15 35 34 29 25 -8z m205 -87 c-68 -68 -125 -123
-126 -122 -1 1 -4 13 -6 25 -2 20 17 40 122 122 69 54 127 99 130 99 3 1 -51
-55 -120 -124z m-577 11 c-4 -7 -33 -45 -63 -85 l-55 -71 -58 0 -59 0 41 73
40 72 63 11 c89 17 101 17 91 0z m78 -72 l-16 -22 -6 26 c-4 15 -7 40 -8 57
l-1 29 24 -34 c22 -33 22 -36 7 -56z m181 -21 c-29 -92 -64 -217 -92 -326 -17
-63 -22 -55 -11 19 5 32 17 127 27 209 l17 150 41 27 c22 15 42 25 45 23 2 -2
-11 -48 -27 -102z m-217 -42 c-3 -7 -1 -19 4 -25 16 -20 35 -160 34 -251 -1
-67 1 -80 7 -50 l7 40 2 -42 c1 -35 -2 -43 -17 -43 -10 0 -29 -11 -42 -25 -13
-14 -27 -25 -30 -25 -4 0 -4 22 1 49 4 27 12 102 19 167 6 66 13 133 17 149 3
17 2 27 -2 23 -4 -4 -11 -31 -15 -60 -6 -38 -7 -21 -4 62 2 96 2 105 -6 55 -5
-33 -14 -131 -21 -218 -7 -87 -15 -153 -19 -145 -4 7 -24 79 -45 160 l-38 147
64 86 64 86 13 -63 c7 -34 10 -69 7 -77z m538 87 c-5 -28 -17 -36 -28 -18 -5
8 25 54 31 47 1 -1 0 -14 -3 -29z m-184 7 c19 -9 30 -25 35 -46 10 -51 8 -55
-31 -68 -44 -15 -90 -2 -99 26 -3 10 -10 26 -15 35 -7 14 -2 23 29 42 44 30
46 30 81 11z m-221 -62 c-18 -215 -43 -413 -51 -410 -6 2 -11 97 -13 235 l-2
232 35 0 35 0 -4 -57z m-401 21 c3 -8 -2 -29 -10 -46 -11 -22 -13 -38 -6 -49
13 -26 12 -29 -16 -29 -17 0 -29 9 -39 29 -15 28 -14 29 7 35 51 13 54 24 18
54 l-33 28 37 -4 c20 -2 39 -11 42 -18z m780 0 c4 -11 -113 -146 -123 -142 -4
2 -17 -23 -29 -55 -21 -56 -22 -57 -39 -38 -17 19 -16 21 23 71 28 36 41 46
41 33 1 -10 7 -1 14 20 15 40 85 126 100 123 6 -1 11 -7 13 -12z m-879 -49 c6
-22 14 -50 17 -62 11 -34 -17 -29 -43 7 -27 36 -27 40 0 32 14 -3 19 -2 14 6
-4 7 -13 12 -21 12 -11 0 -11 6 -2 30 13 35 20 30 35 -25z m422 -52 c0 -58 -3
-104 -6 -101 -3 3 -11 44 -19 89 -12 75 -11 86 2 102 9 9 18 17 20 17 1 0 3
-48 3 -107z m166 -30 c-13 -37 -32 -85 -41 -107 -9 -21 -14 -40 -12 -42 2 -2
23 41 46 96 43 99 56 113 88 92 9 -6 4 -22 -20 -62 -18 -30 -59 -104 -92 -165
-67 -128 -61 -118 -74 -114 -5 2 1 26 14 54 12 28 21 53 18 58 -2 4 1 7 7 7 7
0 9 7 6 17 -4 9 10 77 31 150 31 112 39 130 46 109 6 -18 1 -44 -17 -93z m77
-70 c-112 -151 -115 -154 -74 -83 17 30 48 85 68 121 32 59 57 82 95 88 3 1
-37 -56 -89 -126z m-453 75 c15 -61 33 -127 75 -262 l37 -119 30 31 31 30 24
-46 c19 -35 21 -47 11 -53 -17 -11 -35 -11 -43 0 -3 5 -19 12 -35 16 -17 4
-30 10 -30 14 0 3 -49 99 -108 211 l-108 205 45 6 c26 3 49 7 53 7 4 1 12 -17
18 -40z m-136 -30 c-22 -73 -56 -121 -92 -130 -19 -5 -22 -2 -21 25 0 18 3 50
7 72 7 38 9 40 52 46 25 3 49 7 53 7 5 1 5 -8 1 -20z m36 1 c0 -6 41 -87 90
-181 50 -94 90 -172 88 -173 -2 -1 -51 62 -111 140 l-108 143 13 45 c6 25 15
44 20 41 4 -3 8 -10 8 -15z m577 -101 l21 -23 -39 -55 c-96 -135 -121 -172
-110 -166 7 5 9 1 4 -10 -6 -15 -8 -14 -16 7 -5 13 -14 36 -21 50 -12 24 -9
31 58 122 39 52 74 96 77 96 3 1 15 -9 26 -21z m-742 -11 c-5 -17 15 -50 85
-146 50 -68 89 -125 87 -127 -2 -3 -58 55 -125 129 l-120 133 26 17 c38 23 54
22 47 -6z m239 -133 c90 -118 117 -160 112 -176 -3 -14 5 -37 24 -65 35 -52
35 -51 11 -49 -19 1 -34 20 -235 299 -75 105 -77 109 -60 128 9 10 20 19 23
18 3 0 59 -70 125 -155z m565 67 c2 -47 -1 -52 -69 -136 -39 -48 -69 -89 -67
-91 2 -3 28 23 56 56 28 34 51 56 51 48 0 -15 -103 -121 -111 -114 -3 3 -20
-15 -39 -39 -46 -58 -65 -59 -40 -2 11 23 20 48 20 56 0 11 45 67 178 224 8 9
13 19 10 22 -3 3 -40 -37 -83 -90 -74 -91 -113 -130 -63 -62 97 131 134 177
144 177 6 0 11 -22 13 -49z m-719 -139 c67 -73 125 -130 128 -127 3 3 14 -3
25 -12 19 -17 -28 54 -83 127 -70 91 -130 176 -130 183 0 5 9 7 19 5 12 -2 76
-81 165 -202 123 -169 143 -202 135 -218 -10 -18 -12 -16 -31 20 -16 34 -32
47 -91 76 -59 28 -94 57 -196 159 -105 106 -122 128 -116 147 l7 22 23 -23
c12 -13 77 -84 145 -157z m-75 7 l90 -90 -71 37 c-65 35 -72 42 -91 91 -12 29
-20 53 -19 53 1 0 42 -41 91 -91z m-155 -20 c0 -4 -13 -9 -29 -12 -16 -3 -41
-9 -55 -13 l-27 -6 32 47 32 47 23 -29 c13 -15 23 -31 24 -34z m68 8 c42 -24
118 -66 169 -92 l92 -49 -51 -28 -50 -28 -109 96 c-95 84 -151 144 -134 144 3
0 40 -20 83 -43z m642 24 c0 -4 -11 -18 -25 -31 -14 -13 -25 -28 -25 -34 0 -5
13 3 29 18 l28 27 7 -23 c13 -51 -4 -61 -59 -36 -21 9 -65 71 -65 90 0 2 25 1
55 0 30 -2 55 -7 55 -11z m-620 -128 c40 -43 69 -69 66 -58 -5 15 3 11 31 -15
21 -19 40 -36 42 -37 2 -2 1 -6 -2 -10 -4 -3 -20 6 -36 21 -16 15 -33 28 -38
28 -4 0 -40 31 -80 68 -81 76 -73 77 -126 -19 l-35 -63 -21 21 c-21 21 -26 51
-12 85 7 19 85 53 123 55 9 1 49 -34 88 -76z m488 22 c3 -3 -1 -5 -9 -5 -8 0
-24 -3 -36 -6 -18 -5 -23 -2 -23 14 0 18 3 20 31 12 18 -5 34 -12 37 -15z
m-463 -81 c85 -79 104 -102 107 -130 2 -19 2 -34 -2 -33 -3 0 -22 22 -43 50
-36 48 -39 49 -90 49 -29 0 -58 -5 -64 -11 -9 -9 -23 -7 -57 7 -25 11 -46 22
-46 26 0 9 81 138 87 138 2 0 51 -43 108 -96z m236 63 c12 -22 12 -22 -10 -3
-11 11 -21 23 -21 28 0 14 19 -1 31 -25z m378 16 c3 -2 -3 -19 -12 -38 -9 -20
-17 -42 -17 -50 0 -31 -18 -13 -29 29 -6 24 -13 51 -17 59 -5 14 0 15 33 10
21 -3 40 -8 42 -10z m-80 -30 c25 -95 27 -88 -24 -88 -25 0 -45 1 -45 3 0 2
12 24 26 48 15 25 24 47 22 50 -6 5 -58 -71 -58 -86 0 -21 -16 -9 -37 29 l-22
39 52 20 c72 27 75 27 86 -15z m-259 -58 c17 -9 30 -22 30 -30 0 -21 -10 -19
-44 13 -18 16 -25 19 -16 7 8 -11 20 -25 28 -32 8 -6 11 -16 7 -22 -11 -18
-25 -12 -35 14 -11 29 -24 34 -15 6 4 -14 -1 -21 -25 -29 -16 -6 -30 -9 -30
-7 0 17 34 84 40 80 5 -3 11 -1 15 5 8 13 11 13 45 -5z m-80 0 c0 -14 -45 -91
-58 -101 -13 -9 -8 -15 27 -36 l42 -25 -51 -27 -52 -27 8 23 c4 13 8 52 9 87
2 58 6 67 31 88 28 22 44 29 44 18z m154 -112 c-5 -15 -3 -15 11 2 9 11 22 29
29 39 10 16 28 20 100 24 l87 5 -11 -24 c-7 -13 -36 -41 -66 -61 -47 -32 -63
-38 -109 -38 -44 0 -53 3 -49 15 3 8 -4 31 -15 51 -12 20 -19 44 -16 52 8 22
46 -42 39 -65z m280 32 c28 -22 29 -26 16 -50 -8 -14 -20 -23 -27 -21 -10 4
-11 1 -3 -13 5 -11 21 -122 35 -247 14 -125 28 -230 30 -233 9 -8 5 42 -20
259 -19 165 -21 216 -12 222 7 4 8 8 4 8 -4 0 -3 9 3 20 13 24 36 26 44 4 10
-27 7 -542 -4 -549 -11 -7 -28 24 -74 141 -39 99 -43 144 -27 324 7 74 5 88
-10 105 -13 15 -15 25 -8 38 13 22 18 21 53 -8z m-566 -45 c31 -39 38 -55 34
-79 -5 -38 -18 -39 -59 -1 -29 26 -31 33 -23 55 6 15 10 34 9 43 -1 9 -7 -1
-13 -22 l-12 -39 -27 48 c-15 26 -27 48 -27 49 0 1 18 0 40 -2 34 -4 46 -12
78 -52z m-108 3 c16 -27 30 -53 30 -58 0 -6 -27 -37 -59 -69 -68 -67 -64 -70
-76 53 -6 63 -6 64 27 92 18 15 36 28 40 29 5 0 21 -21 38 -47z m293 35 c4
-10 7 -10 18 0 7 6 16 12 21 12 15 0 38 -60 33 -83 -4 -13 5 -52 19 -92 38
-106 24 -88 -25 30 -23 59 -47 109 -53 112 -5 4 -7 0 -3 -8 50 -118 133 -320
188 -458 54 -134 67 -176 57 -182 -18 -11 -22 -5 -62 95 -20 48 -47 114 -60
145 -123 282 -148 347 -143 378 3 18 1 35 -4 38 -5 4 -9 -5 -9 -19 0 -31 -13
-32 -60 -7 l-35 19 50 15 c63 20 62 20 68 5z m324 -184 c2 -142 1 -156 -12
-129 -7 17 -34 74 -59 129 l-45 99 47 33 c26 18 52 31 57 30 6 -2 11 -66 12
-162z m-737 130 c0 -11 -5 -14 -16 -10 -9 3 -23 6 -32 7 -14 0 -13 2 3 9 31
13 45 11 45 -6z m-28 -24 c18 0 22 -11 33 -75 l6 -40 -26 28 c-26 28 -27 29
-9 50 10 12 12 16 4 10 -21 -20 -36 -16 -49 13 -6 15 -14 24 -17 21 -3 -3 2
-19 11 -36 8 -17 11 -31 6 -31 -5 0 -17 -3 -26 -7 -15 -5 -16 -1 -10 28 14 71
14 71 38 54 12 -8 29 -15 39 -15z m450 -98 c29 -67 185 -431 215 -499 3 -7 1
-13 -3 -13 -5 0 -45 69 -89 153 -62 118 -85 153 -102 155 -23 3 -25 7 -115
149 l-57 93 47 25 c26 13 52 24 57 24 6 1 27 -39 47 -87z m207 43 c12 -25 21
-47 21 -49 0 -2 20 -47 44 -99 l45 -95 2 -146 2 -147 29 -17 c16 -9 47 -44 69
-77 21 -33 51 -73 64 -90 44 -54 26 -15 -31 67 l-56 80 34 -7 c33 -7 54 -28
95 -95 l22 -37 -23 -22 -24 -22 -68 68 c-65 64 -122 145 -116 164 2 9 -11 13
-33 10 -10 -1 -72 158 -175 447 l-40 112 59 0 59 0 21 -45z m-432 -1 l34 -26
-20 -22 c-12 -12 -21 -33 -21 -45 0 -21 -3 -23 -32 -16 -18 3 -50 9 -71 12
l-38 6 53 57 c29 32 55 58 57 59 2 0 19 -11 38 -25z m-212 -46 c31 -28 46 -58
29 -58 -4 0 -29 16 -56 36 -36 27 -46 39 -36 45 20 13 26 11 63 -23z m311 -29
c14 -28 24 -52 22 -54 -2 -2 -29 -6 -60 -10 l-58 -7 0 28 c0 21 9 36 33 53 17
13 23 20 13 17 -16 -5 -17 -4 -6 9 20 24 28 18 56 -36z m-178 -46 c39 -9 72
-20 72 -25 0 -4 -5 -8 -12 -8 -6 0 -22 -10 -35 -22 l-24 -22 -47 47 c-26 26
-42 47 -37 47 6 0 43 -7 83 -17z m-42 -50 c-9 -9 -56 18 -56 32 0 13 6 11 30
-6 16 -13 28 -24 26 -26z m293 -19 c18 -30 31 -57 29 -58 -1 -2 -35 -6 -74
-10 l-71 -7 -36 48 -36 48 27 7 c15 4 47 11 72 16 25 5 47 10 50 11 3 0 20
-24 39 -55z m-294 -45 c17 -30 40 -69 53 -86 12 -17 22 -34 22 -37 0 -4 -143
94 -158 109 -7 7 33 75 42 72 6 -2 25 -28 41 -58z m130 11 c21 -28 41 -66 45
-86 8 -33 6 -35 -28 -50 -21 -9 -31 -18 -24 -21 7 -3 23 2 37 11 27 18 28 16
40 -60 l6 -41 -48 10 c-47 10 -49 11 -51 46 -5 96 -19 221 -20 186 l-2 -40
-15 29 c-14 26 -14 31 1 48 10 10 18 18 20 18 1 0 19 -23 39 -50z m-106 26 c9
-10 9 -16 1 -21 -6 -4 -12 -5 -13 -4 -2 2 -9 12 -16 22 -11 14 -11 17 2 17 8
0 20 -6 26 -14z m45 -65 c10 -21 16 -47 14 -57 -2 -14 -10 -7 -31 29 -26 43
-28 67 -8 67 4 0 16 -17 25 -39z m289 -37 c-15 -43 -16 -45 -47 -38 -17 4 -47
17 -66 30 -19 13 -39 24 -44 24 -15 0 4 -16 39 -34 l30 -16 -37 0 c-27 0 -38
5 -39 15 -1 8 -2 21 -3 28 -1 8 26 16 74 23 119 18 111 21 93 -32z m-357 -26
c89 -60 94 -65 94 -98 0 -20 5 -41 12 -48 14 -14 32 -16 24 -3 -3 5 13 3 36
-4 32 -9 44 -18 49 -39 l7 -26 -29 20 c-15 12 -31 25 -34 30 -4 6 -11 10 -18
10 -6 0 5 -16 26 -36 29 -29 35 -40 26 -50 -9 -11 -15 -11 -33 4 -12 9 -90 73
-175 141 l-153 123 29 18 c15 10 32 19 36 19 5 1 51 -27 103 -61z m401 25 c7
-16 41 -80 76 -143 62 -110 66 -129 30 -130 -6 0 -43 51 -82 113 -68 110 -70
115 -59 150 14 44 20 46 35 10z m327 -101 c34 -79 35 -85 21 -112 -19 -37 -28
-42 -48 -27 -12 9 -17 40 -21 142 -4 80 -2 120 3 105 5 -14 25 -62 45 -108z
m164 83 c2 -2 -10 -19 -28 -38 -17 -19 -37 -43 -45 -53 -13 -17 -14 -12 -15
44 l0 64 43 -7 c23 -4 44 -9 45 -10z m36 -57 c10 -90 14 -85 -58 -74 l-64 10
51 57 c29 32 55 58 58 58 3 1 9 -23 13 -51z m-597 18 c1 -1 -6 -23 -15 -49
-13 -36 -22 -47 -39 -47 -12 0 -28 -2 -36 -6 -11 -4 -18 11 -30 56 l-15 62 66
-7 c37 -4 68 -8 69 -9z m121 -174 c30 -45 37 -63 32 -87 l-6 -30 -14 25 c-7
14 -43 58 -80 98 l-67 73 15 45 15 45 34 -57 c18 -30 51 -81 71 -112z m460 63
c3 -3 -9 -28 -26 -54 -1 -3 -19 11 -38 30 -26 24 -33 28 -25 12 6 -12 21 -29
33 -37 22 -16 22 -16 3 -31 -32 -23 -45 -18 -45 18 0 17 -5 39 -10 47 -7 11
-9 0 -4 -36 l6 -50 -36 4 c-20 2 -36 6 -36 9 0 7 53 77 68 90 12 10 97 8 110
-2z m-537 -71 c41 -42 73 -80 72 -85 -2 -4 6 -13 18 -19 19 -11 44 -58 35 -67
-4 -4 -222 102 -243 119 -9 8 -8 16 4 36 9 15 18 28 18 30 1 1 36 -21 79 -49
42 -28 79 -49 82 -46 3 3 -31 28 -76 57 -65 43 -78 55 -69 67 7 7 9 16 6 20
-4 3 -14 -9 -24 -26 -10 -18 -23 -40 -30 -49 -11 -15 -12 -13 -13 15 0 17 -3
38 -6 46 -5 15 1 17 62 26 7 0 45 -33 85 -75z m564 1 c8 -60 36 -114 32 -61
-1 16 4 31 11 33 10 4 11 -2 6 -23 -4 -16 -7 -34 -7 -40 0 -7 -6 -10 -12 -7
-9 3 -11 -4 -8 -21 3 -14 6 -26 8 -26 1 0 22 32 46 70 24 39 47 70 50 70 4 0
9 -12 12 -27 5 -23 -2 -36 -42 -77 -63 -63 -78 -59 -114 37 -23 64 -25 77 -14
100 6 15 15 27 19 27 4 0 10 -25 13 -55z m-264 -44 c16 -30 26 -57 23 -62 -2
-5 -43 -28 -90 -52 l-84 -44 -6 26 c-3 14 -9 44 -14 66 -5 22 -5 44 -1 48 20
20 117 74 129 72 8 -1 27 -25 43 -54z m513 21 c7 -15 16 -44 20 -64 6 -34 5
-38 -13 -38 -18 0 -20 5 -16 48 l4 47 -11 -37 c-6 -21 -14 -38 -18 -38 -4 0
-17 11 -29 24 -22 23 -22 24 -3 30 11 4 28 16 38 28 l19 22 -39 -22 c-21 -13
-40 -22 -41 -20 -4 5 -25 47 -25 50 0 2 23 1 50 0 43 -3 53 -8 64 -30z m-1076
15 c9 -10 2 -15 -29 -24 l-40 -11 22 24 c26 28 32 29 47 11z m143 -67 c7 -5
11 -10 9 -12 -3 -2 -22 -18 -43 -36 -32 -28 -44 -32 -87 -30 -43 2 -47 4 -39
20 12 23 55 23 68 1 7 -14 11 -9 20 27 7 25 17 56 24 69 l12 23 11 -27 c6 -15
17 -31 25 -35z m644 25 c8 -19 22 -50 30 -69 13 -31 13 -34 -4 -39 -14 -3 -29
10 -60 56 -23 33 -40 61 -39 62 10 8 44 24 50 25 4 0 15 -16 23 -35z m135 26
c0 -5 -9 -19 -20 -32 -21 -26 -27 -11 -10 22 11 19 30 26 30 10z m-915 -28
c-4 -10 -8 -24 -8 -30 0 -16 1 -16 -42 4 l-36 17 38 12 c53 17 56 16 48 -3z
m47 4 c10 -8 14 -22 11 -38 -4 -21 -9 -25 -33 -21 -26 4 -27 5 -17 38 11 37
14 39 39 21z m-93 -43 c31 -15 31 -17 15 -35 -9 -11 -18 -18 -19 -17 -7 9 -35
68 -32 68 2 0 18 -7 36 -16z m1056 -13 c15 -17 37 -31 47 -33 16 -2 4 -17 -56
-71 -67 -60 -76 -66 -76 -45 0 16 17 36 55 67 30 24 53 46 50 49 -3 3 -22 -8
-43 -24 -57 -46 -61 -48 -84 -27 -21 18 -21 18 -9 -4 9 -19 8 -24 -8 -33 -30
-15 -36 -13 -65 25 l-27 35 34 0 c32 0 33 -1 29 -31 -3 -22 -1 -30 7 -25 6 4
11 16 11 27 0 18 84 119 99 119 4 0 20 -13 36 -29z m183 1 c15 -20 16 -62 1
-62 -7 0 -9 10 -5 28 7 26 6 26 -13 -5 -12 -19 -29 -33 -40 -33 -21 0 -37 -17
-26 -28 3 -3 10 -1 14 6 12 21 108 28 129 10 13 -12 36 -15 99 -12 68 3 82 1
87 -13 8 -21 5 -23 -22 -16 -12 3 -19 9 -16 14 3 5 0 9 -5 9 -6 0 -11 -4 -11
-9 0 -15 -150 -33 -166 -20 -11 9 -14 8 -14 -5 0 -9 6 -16 13 -17 16 -1 -23
-17 -45 -18 -14 -1 -15 4 -5 34 7 23 14 32 21 26 9 -7 56 2 56 11 0 2 -26 4
-58 5 -37 1 -50 -2 -37 -7 25 -10 15 -13 -75 -29 -36 -6 -76 -14 -90 -17 l-25
-6 23 16 c12 10 37 30 54 47 20 17 45 30 63 30 23 1 25 3 8 6 -20 4 -21 7 -10
26 24 43 38 55 60 50 12 -3 28 -13 35 -21z m-796 -110 c2 -8 37 -29 78 -48 71
-31 73 -33 46 -40 -18 -4 -37 -2 -48 5 -10 6 -23 9 -28 6 -6 -3 -66 12 -135
34 -68 23 -133 41 -143 41 -10 0 -27 10 -38 22 -17 19 -17 21 -1 15 29 -11
148 -30 153 -24 3 2 -34 12 -83 21 -48 9 -91 20 -96 25 -4 4 8 22 28 39 l35
32 115 -57 c63 -32 116 -64 117 -71z m265 37 c45 -40 56 -57 58 -85 1 -18 0
-34 -2 -34 -2 0 -60 16 -128 36 -69 19 -128 33 -133 30 -4 -2 -14 0 -22 5 -9
6 -11 12 -5 15 6 3 42 22 80 43 39 21 76 39 84 40 7 0 38 -22 68 -50z m-553
-31 c-10 -16 -31 -7 -42 16 -8 19 -8 26 1 29 14 5 48 -33 41 -45z m717 -20 c9
-16 5 -17 -36 -11 -29 4 -45 2 -45 -5 0 -6 19 -12 43 -14 l42 -3 -39 -23 c-21
-13 -36 -25 -33 -28 3 -3 23 6 44 20 20 14 40 26 43 26 3 0 4 -16 2 -36 l-4
-36 -42 6 c-46 8 -61 20 -70 57 -4 19 1 35 22 62 25 33 28 34 45 19 11 -9 23
-25 28 -34z m89 -30 c0 -25 -3 -29 -12 -20 -7 7 -17 12 -22 12 -6 0 0 -9 14
-19 20 -16 26 -17 35 -5 7 10 180 53 216 54 3 0 4 -11 1 -25 -2 -14 -9 -25
-16 -25 -6 0 -51 -5 -101 -11 -49 -6 -99 -12 -110 -13 -11 -1 -31 -7 -43 -15
-23 -12 -24 -12 -17 21 4 18 8 38 9 43 1 8 33 33 44 35 1 0 2 -14 2 -32z
m-295 -23 c55 -16 102 -30 104 -32 3 -2 0 -8 -7 -15 -8 -8 -6 -15 9 -27 19
-15 17 -18 -52 -59 -40 -23 -74 -41 -75 -39 -2 2 -1 13 2 24 4 15 25 29 66 46
l59 23 -98 43 c-106 45 -163 76 -128 68 11 -3 65 -17 120 -32z m578 -25 c-24
-26 -29 -28 -35 -12 -11 28 -9 30 20 35 15 2 31 5 35 6 5 0 -4 -12 -20 -29z
m-49 -6 c4 -9 4 -19 2 -21 -9 -9 -301 -44 -321 -39 -11 3 -27 1 -35 -4 -10 -6
-22 -3 -37 12 -28 26 -30 42 -4 28 11 -5 31 -10 45 -10 14 0 26 -4 26 -10 0
-11 29 -2 50 16 8 6 62 19 120 27 140 20 147 20 154 1z m-568 -3 c5 -4 30 -16
57 -26 53 -20 53 -23 1 -41 -26 -9 -36 -9 -39 -1 -20 57 -26 67 -42 67 -13 0
-14 -3 -5 -8 9 -6 4 -16 -19 -38 -16 -16 -28 -22 -25 -14 22 62 27 70 44 70
10 0 22 -4 28 -9z m-6 -40 c0 -5 3 -16 6 -25 4 -11 -4 -18 -28 -25 l-33 -11
38 3 c38 3 41 0 31 -27 -5 -14 -9 -14 -34 -1 -41 21 -44 31 -19 65 22 30 39
39 39 21z"/>
<path d="M616 1653 c10 -40 14 -41 14 -5 0 18 -5 32 -10 32 -6 0 -8 -11 -4
-27z"/>
<path d="M1515 1460 c-3 -5 -2 -10 4 -10 5 0 13 5 16 10 3 6 2 10 -4 10 -5 0
-13 -4 -16 -10z"/>
<path d="M736 1426 c-15 -54 -25 -100 -22 -103 3 -3 7 0 10 8 30 100 47 171
44 181 -2 6 -17 -32 -32 -86z"/>
<path d="M1347 811 c-21 -32 -30 -38 -54 -35 l-28 4 26 -10 27 -11 -20 -52
c-11 -29 -16 -48 -12 -44 5 5 16 27 24 50 12 31 21 41 36 40 10 -1 39 -4 64
-7 43 -5 43 -5 -13 10 l-57 16 21 35 c30 48 18 52 -14 4z"/>
<path d="M2024 736 c-34 -15 -61 -45 -29 -33 9 4 25 2 33 -5 13 -11 15 -10 9
6 -5 12 -1 23 10 32 23 17 16 17 -23 0z"/>
<path d="M1923 633 c9 -2 25 -2 35 0 9 3 1 5 -18 5 -19 0 -27 -2 -17 -5z"/>
<path d="M1044 742 c4 -6 36 -30 71 -53 36 -23 65 -46 65 -50 0 -5 5 -9 10 -9
6 0 35 -16 65 -37 31 -20 58 -34 61 -31 3 3 -11 16 -31 28 -19 12 -33 25 -30
30 3 4 -6 11 -20 14 -14 4 -58 28 -98 55 -94 62 -102 67 -93 53z"/>
<path d="M955 600 c-3 -6 0 -12 7 -14 12 -4 295 -61 358 -72 l25 -4 -25 10
c-14 6 -95 25 -180 42 -85 17 -156 35 -158 40 -5 11 -19 10 -27 -2z"/>
</g>
</svg>
