<?xml version="1.0" standalone="no"?>
<!DOCTYPE svg PUBLIC "-//W3C//DTD SVG 20010904//EN"
 "http://www.w3.org/TR/2001/REC-SVG-20010904/DTD/svg10.dtd">
<svg version="1.0" xmlns="http://www.w3.org/2000/svg"
 width="117.000000pt" height="119.000000pt" viewBox="0 0 117.000000 119.000000"
 preserveAspectRatio="xMidYMid meet">
<metadata>
Created by potrace 1.10, written by Peter Selinger 2001-2011
</metadata>
<g transform="translate(0.000000,119.000000) scale(0.100000,-0.100000)"
fill="#f3f3f3" stroke="none">
<path d="M385 958 c-15 -152 -19 -138 92 -295 l101 -142 -90 -120 -90 -121 26
-85 c15 -47 30 -85 35 -85 5 0 51 20 103 44 l94 44 33 75 33 75 73 -5 73 -6
11 39 c6 22 11 44 11 49 0 6 43 41 96 80 l95 70 -3 90 -3 90 -96 3 c-96 3 -97
3 -132 -27 -19 -17 -37 -31 -40 -31 -3 0 -8 18 -12 40 -4 22 -10 42 -13 44 -4
2 -27 -4 -52 -13 l-45 -17 -50 95 -50 96 -85 37 c-47 20 -90 37 -97 37 -7 1
-14 -23 -18 -61z m43 42 c9 -6 47 -23 84 -39 60 -27 70 -35 93 -81 15 -29 24
-54 21 -57 -2 -3 -16 18 -31 47 -23 46 -33 54 -91 81 -36 16 -72 29 -78 29
-14 0 -31 -124 -20 -142 3 -5 29 -8 57 -7 36 2 53 -1 59 -11 43 -77 116 -245
111 -254 -3 -6 -3 -8 2 -4 4 4 15 -5 24 -21 9 -16 55 -61 103 -100 l87 -70 11
37 c13 49 13 59 -5 66 -25 9 -18 24 46 89 34 34 58 54 55 44 -4 -11 -2 -16 5
-12 6 4 8 13 5 20 -2 7 11 28 30 46 19 18 34 27 34 20 0 -7 5 -9 11 -5 8 4 7
9 -2 16 -11 7 -11 11 -1 15 30 12 -5 23 -76 23 -74 0 -114 -11 -99 -26 4 -4
13 -2 19 4 7 7 42 12 82 12 l71 0 -89 -89 c-49 -49 -94 -87 -101 -85 -6 3 -18
-3 -25 -13 -12 -15 -12 -16 0 -5 23 20 32 14 15 -12 -15 -22 -15 -26 3 -43 14
-13 18 -27 15 -50 l-5 -32 -85 68 c-85 69 -85 69 -149 202 -94 197 -84 184
-146 182 l-53 -3 3 65 c2 36 5 65 6 65 2 0 33 -14 70 -30 l66 -30 50 -101 c31
-60 56 -99 63 -96 28 10 57 18 57 15 0 -2 -9 -32 -20 -67 -19 -63 -19 -81 0
-81 13 0 152 112 146 118 -3 2 -25 -12 -49 -32 -48 -39 -62 -45 -53 -20 3 9 2
12 -5 9 -5 -4 -8 -12 -6 -18 4 -13 -21 -43 -29 -35 -2 3 5 34 16 69 11 35 20
65 20 67 0 2 -20 0 -45 -4 -32 -4 -45 -3 -45 6 0 6 6 10 13 7 6 -2 21 -1 32 3
11 4 33 10 49 14 26 7 28 5 22 -18 -3 -14 -2 -28 4 -31 5 -3 10 -15 10 -26 0
-18 7 -15 53 21 49 40 55 42 102 36 28 -3 67 -6 88 -6 l37 0 0 -78 c0 -75 -1
-79 -29 -100 -18 -13 -37 -19 -48 -16 -14 4 -15 3 -4 -4 10 -7 2 -18 -34 -46
-27 -20 -52 -36 -56 -36 -5 0 -16 -25 -25 -55 l-16 -56 -71 7 -72 6 -36 -78
-36 -79 -81 -37 c-77 -34 -82 -35 -82 -16 0 14 5 18 16 14 9 -3 12 -2 9 5 -11
17 23 59 43 53 14 -5 14 -4 3 4 -12 9 -6 23 34 84 27 40 52 75 55 78 37 28 35
109 -3 125 -20 9 -28 3 -85 -73 -35 -46 -61 -86 -59 -89 3 -2 31 29 62 71 61
81 88 94 99 50 6 -22 -8 -50 -86 -166 l-92 -140 -18 53 c-13 39 -15 56 -7 66
10 11 14 10 26 -4 13 -16 13 -16 3 5 -9 18 -8 27 1 38 9 11 10 17 2 22 -8 5 9
36 47 87 58 77 68 100 53 107 -12 5 -93 125 -93 137 0 6 -5 11 -11 11 -6 0 -8
9 -4 23 4 15 3 18 -3 9 -15 -21 -82 77 -82 119 0 47 12 169 17 169 2 0 11 -5
21 -10z m225 -222 c6 -22 5 -22 -8 -4 -17 22 -20 40 -6 32 5 -3 11 -16 14 -28z
m-204 -470 l-23 -31 24 -69 c13 -37 20 -71 17 -75 -7 -7 -9 -2 -35 82 -18 60
-18 61 2 93 12 17 25 32 29 32 5 0 -2 -14 -14 -32z"/>
<path d="M473 863 c9 -2 25 -2 35 0 9 3 1 5 -18 5 -19 0 -27 -2 -17 -5z"/>
<path d="M490 810 c0 -5 5 -10 10 -10 6 0 10 5 10 10 0 6 -4 10 -10 10 -5 0
-10 -4 -10 -10z"/>
<path d="M516 767 c3 -10 9 -15 12 -12 3 3 0 11 -7 18 -10 9 -11 8 -5 -6z"/>
<path d="M616 697 c3 -10 9 -15 12 -12 3 3 0 11 -7 18 -10 9 -11 8 -5 -6z"/>
<path d="M560 676 c0 -8 4 -17 9 -20 5 -4 7 3 4 14 -6 23 -13 26 -13 6z"/>
<path d="M677 641 c-4 -17 -3 -21 5 -13 5 5 8 16 6 23 -3 8 -7 3 -11 -10z"/>
<path d="M531 645 c0 -5 6 -19 14 -29 8 -11 15 -15 15 -10 0 6 -7 19 -15 30
-8 10 -14 15 -14 9z"/>
<path d="M580 631 c0 -6 4 -13 10 -16 6 -3 7 1 4 9 -7 18 -14 21 -14 7z"/>
<path d="M865 630 c-3 -6 1 -7 9 -4 18 7 21 14 7 14 -6 0 -13 -4 -16 -10z"/>
<path d="M671 584 c0 -11 3 -14 6 -6 3 7 2 16 -1 19 -3 4 -6 -2 -5 -13z"/>
<path d="M690 541 c0 -6 4 -13 10 -16 6 -3 7 1 4 9 -7 18 -14 21 -14 7z"/>
<path d="M955 530 c-3 -5 -1 -10 4 -10 6 0 11 5 11 10 0 6 -2 10 -4 10 -3 0
-8 -4 -11 -10z"/>
<path d="M910 495 c-7 -8 -9 -15 -6 -15 4 0 14 7 22 15 9 8 11 15 6 15 -5 0
-15 -7 -22 -15z"/>
<path d="M685 480 c3 -5 8 -10 11 -10 2 0 4 5 4 10 0 6 -5 10 -11 10 -5 0 -7
-4 -4 -10z"/>
<path d="M610 469 c0 -5 5 -7 10 -4 6 3 10 8 10 11 0 2 -4 4 -10 4 -5 0 -10
-5 -10 -11z"/>
<path d="M562 410 c-7 -11 -8 -20 -3 -20 9 0 24 30 18 36 -1 2 -8 -6 -15 -16z"/>
<path d="M592 390 c-18 -29 -15 -38 4 -12 9 13 14 25 12 27 -2 2 -9 -5 -16
-15z"/>
<path d="M728 383 c7 -3 16 -2 19 1 4 3 -2 6 -13 5 -11 0 -14 -3 -6 -6z"/>
<path d="M522 358 c-7 -7 -12 -16 -12 -21 0 -5 7 -1 16 8 9 9 14 18 12 20 -2
3 -10 -1 -16 -7z"/>
<path d="M557 343 c-4 -3 -7 -11 -7 -17 0 -6 5 -5 12 2 6 6 9 14 7 17 -3 3 -9
2 -12 -2z"/>
<path d="M530 190 c0 -5 5 -10 11 -10 5 0 7 5 4 10 -3 6 -8 10 -11 10 -2 0 -4
-4 -4 -10z"/>
<path d="M361 994 c0 -11 3 -14 6 -6 3 7 2 16 -1 19 -3 4 -6 -2 -5 -13z"/>
<path d="M321 984 c0 -11 3 -14 6 -6 3 7 2 16 -1 19 -3 4 -6 -2 -5 -13z"/>
<path d="M671 814 c0 -11 3 -14 6 -6 3 7 2 16 -1 19 -3 4 -6 -2 -5 -13z"/>
<path d="M360 786 c0 -2 8 -10 18 -17 15 -13 16 -12 3 4 -13 16 -21 21 -21 13z"/>
<path d="M1095 720 c2 -31 15 -37 15 -7 0 15 -4 27 -8 27 -5 0 -8 -9 -7 -20z"/>
<path d="M1102 660 c0 -14 2 -19 5 -12 2 6 2 18 0 25 -3 6 -5 1 -5 -13z"/>
<path d="M236 551 c-31 -31 -56 -62 -56 -68 0 -6 39 -29 86 -52 79 -38 117
-52 86 -32 -9 5 14 24 73 60 47 29 85 58 85 65 0 11 -72 39 -191 76 -23 7 -33
2 -83 -49z m109 24 c35 -16 19 -20 -21 -5 -23 9 -31 7 -55 -17 -16 -15 -29
-32 -29 -37 0 -6 13 3 30 19 l30 29 54 -17 c33 -11 66 -15 82 -11 21 5 25 4
19 -6 -6 -10 -3 -12 13 -8 31 8 27 -8 -5 -25 -16 -7 -52 -29 -81 -47 l-52 -33
-69 33 -69 34 46 52 c50 57 61 61 107 39z m75 -25 c0 -13 -11 -13 -30 0 -12 8
-11 10 8 10 12 0 22 -4 22 -10z"/>
<path d="M323 505 c-54 -7 -83 -7 -83 -1 0 6 -5 5 -12 -2 -6 -6 -9 -14 -7 -17
8 -7 219 18 219 26 0 9 -6 9 -117 -6z"/>
<path d="M355 470 c-7 -12 2 -12 30 0 19 8 19 9 -2 9 -12 1 -25 -3 -28 -9z"/>
<path d="M368 603 c7 -3 16 -2 19 1 4 3 -2 6 -13 5 -11 0 -14 -3 -6 -6z"/>
<path d="M438 583 c7 -3 16 -2 19 1 4 3 -2 6 -13 5 -11 0 -14 -3 -6 -6z"/>
<path d="M516 567 c3 -10 9 -15 12 -12 3 3 0 11 -7 18 -10 9 -11 8 -5 -6z"/>
<path d="M164 505 c-4 -14 -4 -29 0 -32 3 -4 6 3 6 13 0 11 5 25 12 32 9 9 9
12 0 12 -6 0 -14 -11 -18 -25z"/>
<path d="M989 483 c-13 -16 -12 -17 4 -4 9 7 17 15 17 17 0 8 -8 3 -21 -13z"/>
<path d="M405 430 c-3 -5 -2 -10 4 -10 5 0 13 5 16 10 3 6 2 10 -4 10 -5 0
-13 -4 -16 -10z"/>
<path d="M245 410 c3 -5 13 -10 21 -10 8 0 12 5 9 10 -3 6 -13 10 -21 10 -8 0
-12 -4 -9 -10z"/>
<path d="M408 393 c7 -3 16 -2 19 1 4 3 -2 6 -13 5 -11 0 -14 -3 -6 -6z"/>
<path d="M891 354 c0 -11 3 -14 6 -6 3 7 2 16 -1 19 -3 4 -6 -2 -5 -13z"/>
<path d="M730 319 c0 -5 5 -7 10 -4 6 3 10 8 10 11 0 2 -4 4 -10 4 -5 0 -10
-5 -10 -11z"/>
<path d="M770 320 c0 -5 5 -10 10 -10 6 0 10 5 10 10 0 6 -4 10 -10 10 -5 0
-10 -4 -10 -10z"/>
<path d="M818 313 c12 -2 30 -2 40 0 9 3 -1 5 -23 4 -22 0 -30 -2 -17 -4z"/>
<path d="M798 273 c7 -3 16 -2 19 1 4 3 -2 6 -13 5 -11 0 -14 -3 -6 -6z"/>
<path d="M838 273 c7 -3 16 -2 19 1 4 3 -2 6 -13 5 -11 0 -14 -3 -6 -6z"/>
<path d="M691 234 c0 -11 3 -14 6 -6 3 7 2 16 -1 19 -3 4 -6 -2 -5 -13z"/>
<path d="M421 124 c0 -11 3 -14 6 -6 3 7 2 16 -1 19 -3 4 -6 -2 -5 -13z"/>
<path d="M515 110 c-3 -6 1 -7 9 -4 18 7 21 14 7 14 -6 0 -13 -4 -16 -10z"/>
<path d="M460 90 c0 -5 4 -10 9 -10 6 0 13 5 16 10 3 6 -1 10 -9 10 -9 0 -16
-4 -16 -10z"/>
</g>
</svg>
