<?xml version="1.0" standalone="no"?>
<!DOCTYPE svg PUBLIC "-//W3C//DTD SVG 20010904//EN"
 "http://www.w3.org/TR/2001/REC-SVG-20010904/DTD/svg10.dtd">
<svg version="1.0" xmlns="http://www.w3.org/2000/svg"
 width="117.000000pt" height="146.000000pt" viewBox="0 0 117.000000 146.000000"
 preserveAspectRatio="xMidYMid meet">
<metadata>
Created by potrace 1.10, written by Peter Selinger 2001-2011
</metadata>
<g transform="translate(0.000000,146.000000) scale(0.100000,-0.100000)"
fill="#00ffff" stroke="none">
<path d="M846 1369 c-14 -17 -27 -37 -27 -45 -2 -18 -4 -25 -14 -47 -7 -17 -9
-17 -27 3 -30 32 -51 22 -61 -28 l-8 -43 -20 23 c-48 56 -91 98 -101 98 -13 0
-69 -60 -121 -130 -22 -30 -44 -56 -49 -58 -4 -2 -8 -8 -8 -14 0 -6 -12 -25
-28 -43 -83 -99 -132 -179 -132 -218 0 -24 -2 -26 -19 -16 -10 7 -25 10 -33 6
-17 -6 -30 -75 -16 -83 4 -3 8 -10 8 -16 0 -6 -3 -8 -6 -5 -13 13 -44 -14 -44
-38 0 -16 11 -30 35 -45 l35 -22 -20 -25 c-11 -14 -17 -30 -13 -37 16 -28 26
-36 37 -28 6 5 21 12 34 15 16 4 22 1 22 -12 0 -9 5 -22 11 -28 6 -6 13 -46
16 -89 l5 -79 -33 -15 c-50 -23 -60 -46 -29 -71 25 -19 25 -19 5 -34 -59 -42
-68 -65 -34 -88 13 -9 16 -17 10 -22 -18 -11 -13 -101 6 -121 16 -15 18 -15
40 10 16 20 23 40 23 71 0 34 3 43 14 39 8 -3 26 2 39 11 24 15 26 15 43 -7
36 -43 54 -51 160 -62 121 -14 110 -19 189 84 27 36 52 67 55 70 3 3 6 14 8
25 20 148 24 154 93 153 54 -2 84 17 73 45 -3 9 -14 19 -25 22 -20 7 -27 25
-9 25 5 0 23 14 40 30 39 38 38 73 -1 78 l-26 3 18 37 c25 49 24 70 -6 84 -14
6 -25 17 -25 25 0 7 -9 22 -19 32 -14 14 -16 21 -8 25 7 2 7 5 1 5 -6 1 -8 21
-3 59 7 64 4 71 -57 159 -24 34 -44 64 -44 67 0 3 8 6 19 6 25 0 44 25 37 47
-4 13 3 22 26 34 48 23 58 46 30 69 -21 17 -22 21 -9 42 25 40 29 65 12 82
-24 23 -40 20 -69 -15z m54 -14 c0 -14 -15 -41 -35 -64 -19 -21 -35 -41 -35
-44 0 -3 15 -3 34 0 42 7 58 -13 21 -27 -14 -6 -39 -10 -54 -10 -16 0 -37 -10
-50 -24 l-23 -25 38 -3 c22 -2 39 -7 39 -13 0 -14 -65 -19 -78 -6 -14 14 -21
141 -9 141 13 0 22 -25 22 -58 l1 -27 29 32 c16 18 34 51 40 73 10 36 40 80
55 80 3 0 5 -11 5 -25z m-269 -92 c31 -33 109 -129 218 -271 l33 -43 -7 -86
c-4 -48 -11 -96 -16 -108 -9 -20 -4 72 7 140 5 28 4 29 -10 11 -9 -11 -27 -32
-40 -47 -23 -25 -24 -30 -13 -66 6 -21 21 -46 32 -55 24 -21 9 -23 -25 -3 -32
18 -80 21 -62 3 14 -14 16 -68 4 -68 -10 0 -32 45 -32 65 0 17 -5 18 -49 9
-17 -4 -31 -12 -31 -20 0 -21 -22 -64 -33 -64 -5 0 -7 15 -4 35 l6 35 -36 -15
c-19 -8 -37 -15 -39 -15 -2 0 -1 -6 2 -13 3 -8 0 -26 -6 -41 -13 -35 -34 -23
-26 15 l5 28 -34 -16 c-27 -13 -35 -23 -35 -44 0 -32 -39 -87 -40 -56 0 10 5
27 11 39 15 27 6 32 -34 19 -34 -11 -67 -60 -58 -86 2 -5 11 -82 22 -169 l18
-160 47 -45 46 -46 -7 92 c-3 51 -8 103 -10 115 -2 13 -6 55 -10 93 -4 39 -9
80 -12 93 -3 12 -1 22 4 22 6 0 13 -30 17 -67 3 -38 13 -131 21 -208 8 -77 15
-141 15 -142 0 -3 56 -11 116 -17 52 -5 52 -5 57 27 44 271 93 527 100 527 5
0 7 -6 4 -14 -3 -7 -7 -33 -10 -57 -2 -24 -2 -34 0 -21 2 12 8 22 12 22 4 0 1
-38 -8 -85 -8 -50 -19 -85 -26 -85 -8 0 -20 -50 -34 -133 -26 -160 -26 -164
-6 -147 9 8 13 21 10 34 -5 15 -4 17 3 8 7 -11 16 -5 39 22 25 31 33 55 53
168 12 73 27 138 32 143 5 6 6 -8 2 -34 -6 -36 -5 -43 7 -36 36 21 39 26 24
48 -16 23 -20 77 -6 77 11 0 43 -89 36 -101 -3 -4 9 -9 27 -11 17 -2 34 -9 36
-17 4 -11 -6 -13 -52 -8 -31 3 -58 1 -62 -4 -3 -5 -9 -7 -13 -4 -5 2 -15 -39
-24 -91 -15 -92 -18 -97 -73 -166 -32 -38 -64 -73 -72 -75 -7 -3 -54 -1 -104
5 l-90 10 -50 50 c-43 42 -51 56 -56 97 -4 43 -6 46 -18 30 -10 -13 -10 -23
-3 -37 12 -23 8 -88 -6 -89 -5 0 -13 15 -16 33 l-6 33 -12 -30 c-7 -16 -14
-52 -16 -80 -3 -55 -12 -85 -26 -85 -14 0 -10 64 6 103 21 51 19 58 -13 51
l-27 -5 28 25 c15 14 34 26 41 26 7 0 20 15 28 34 l17 34 -40 -5 c-25 -4 -39
-2 -39 5 0 16 34 32 66 32 l26 0 -6 68 c-12 116 -18 152 -27 152 -12 0 -11 37
1 45 15 9 12 22 -6 29 -9 4 -28 -4 -46 -19 -32 -27 -44 -30 -53 -16 -3 5 8 19
25 31 26 18 28 24 17 41 -6 10 -17 19 -23 19 -19 0 -60 37 -51 46 4 5 17 3 27
-4 26 -16 27 -16 33 10 3 11 -1 30 -9 42 -7 11 -14 31 -14 44 0 21 2 22 15 12
8 -7 15 -19 15 -27 0 -11 6 -8 20 8 23 28 27 18 5 -14 -17 -26 -23 -113 -9
-127 6 -6 9 1 9 18 0 43 19 37 33 -10 l12 -43 -5 40 c-3 22 -8 82 -12 132 l-6
93 48 72 c77 116 248 328 265 328 3 0 22 -17 41 -37z m205 -439 c-4 -9 -9 -15
-11 -12 -3 3 -3 13 1 22 4 9 9 15 11 12 3 -3 3 -13 -1 -22z m68 -71 c-4 -16
-10 -35 -15 -43 -4 -8 -3 -23 3 -33 9 -18 12 -16 31 14 20 32 22 33 25 11 2
-13 -4 -34 -12 -47 -9 -13 -16 -40 -16 -60 l0 -35 25 16 c14 9 28 14 31 12 11
-11 -10 -37 -41 -52 -18 -9 -36 -23 -39 -32 -4 -9 -9 -14 -12 -11 -3 3 2 19
11 37 9 18 15 33 13 34 -2 1 -15 10 -30 19 -16 10 -28 24 -28 32 0 14 4 14 30
0 35 -18 35 -18 16 26 -12 28 -19 33 -50 35 -36 1 -70 20 -61 35 3 5 18 6 33
3 32 -5 43 2 59 39 7 15 17 27 23 27 6 0 8 -11 4 -27z m-198 -69 c6 -25 -69
-481 -87 -531 -7 -19 -16 -23 -53 -23 -41 0 -44 2 -50 31 -3 17 -6 51 -6 76 0
24 -4 53 -10 63 -5 10 -11 55 -13 99 -2 55 -8 86 -19 98 -22 26 -30 59 -19 80
5 10 12 27 16 38 6 19 7 19 20 2 21 -29 56 -18 69 21 l11 33 23 -21 22 -21 25
25 c14 14 25 32 25 41 0 27 39 18 46 -11z m100 -83 c-1 -32 -7 -65 -13 -72 -6
-8 -14 -36 -18 -64 -4 -27 -10 -54 -14 -60 -7 -12 -7 -18 -9 -69 -1 -22 -5
-36 -8 -33 -12 12 -9 102 3 118 8 10 15 55 17 115 3 54 5 105 5 112 1 6 10 12
20 12 17 0 19 -7 17 -59z m30 -9 c-12 -11 -16 6 -9 39 l8 34 3 -33 c2 -19 1
-36 -2 -40z m-461 -12 c-3 -5 2 -15 11 -24 8 -9 13 -19 11 -23 -5 -9 19 -270
29 -316 6 -28 4 -30 -18 -22 -10 4 -13 25 -11 82 1 42 -2 97 -8 122 -6 25 -12
68 -15 96 -3 27 -9 54 -15 61 -11 14 -1 46 12 38 5 -3 7 -9 4 -14z m-25 -60
c0 -16 -2 -30 -4 -30 -2 0 -6 14 -8 30 -3 17 -1 30 4 30 4 0 8 -13 8 -30z
m115 -86 c8 -63 0 -86 -10 -28 -3 22 -8 49 -11 62 -2 12 0 22 5 22 5 0 12 -25
16 -56z m-101 -41 c4 -43 9 -98 12 -123 3 -31 2 -39 -4 -25 -5 11 -12 58 -16
105 -4 47 -9 93 -12 103 -3 9 -1 17 4 17 5 0 13 -35 16 -77z m349 -75 c-3 -35
-10 -72 -14 -83 -9 -20 -3 75 7 123 9 44 14 21 7 -40z m-233 12 c0 -5 -2 -10
-4 -10 -3 0 -8 5 -11 10 -3 6 -1 10 4 10 6 0 11 -4 11 -10z m12 -132 c3 -38 2
-68 -3 -68 -5 0 -9 17 -9 39 0 21 -2 60 -5 87 -4 33 -3 42 3 29 5 -11 12 -50
14 -87z m245 70 c-3 -8 -6 -5 -6 6 -1 11 2 17 5 13 3 -3 4 -12 1 -19z"/>
<path d="M554 1252 c-138 -176 -182 -235 -221 -293 l-45 -67 42 -39 c23 -21
45 -39 49 -41 4 -1 31 33 61 75 29 43 73 104 97 135 l43 56 0 96 c0 63 4 96
11 96 7 0 10 -30 8 -93 l-4 -92 73 -143 c41 -79 72 -146 69 -149 -3 -3 -15 12
-25 34 -11 21 -41 78 -66 128 -26 49 -50 93 -54 97 -10 10 -45 -32 -132 -157
l-62 -89 4 -68 c5 -85 -7 -90 -16 -6 -6 58 -9 65 -49 99 -23 20 -44 35 -46 33
-2 -2 2 -55 9 -119 10 -94 15 -115 27 -111 8 3 19 6 25 6 5 0 0 12 -12 27 -29
37 -7 43 30 8 25 -24 31 -25 51 -15 13 7 25 14 27 15 1 1 -4 15 -13 31 -8 16
-15 35 -15 42 0 24 24 7 39 -26 17 -37 21 -38 62 -17 28 15 29 17 14 38 -19
27 -19 37 0 37 8 0 22 -11 30 -24 16 -24 16 -24 64 -8 l49 15 -20 34 c-17 27
-17 33 -5 33 8 0 27 -14 42 -32 18 -21 36 -32 55 -32 26 -1 28 1 23 29 -9 47
-9 49 3 50 19 0 95 96 86 109 -125 167 -259 326 -276 325 -6 0 -21 -12 -32
-27z m63 -104 c-2 -18 -4 -6 -4 27 0 33 2 48 4 33 2 -15 2 -42 0 -60z m-103
13 c-49 -66 -57 -59 -8 8 20 29 39 50 41 47 3 -2 -12 -27 -33 -55z m44 -27 c1
-36 -4 -53 -26 -82 -15 -21 -33 -41 -40 -45 -7 -5 -10 -12 -7 -18 4 -5 2 -9
-4 -9 -6 0 -17 -13 -26 -29 -8 -16 -20 -35 -27 -43 -7 -8 -18 -22 -24 -33 -14
-25 -26 -28 -47 -12 -17 11 -14 19 38 96 30 45 53 86 50 91 -3 5 1 11 7 14 11
5 11 7 0 12 -6 3 -9 10 -6 16 4 7 9 6 13 -1 9 -14 36 9 70 57 12 17 23 32 25
32 1 0 3 -21 4 -46z m116 24 c7 -7 21 -26 31 -43 11 -16 27 -39 37 -50 70 -78
88 -101 88 -112 0 -25 -23 -61 -46 -74 -13 -7 -24 -16 -24 -21 0 -4 -6 -8 -13
-8 -7 0 -32 43 -57 95 -25 52 -47 95 -50 95 -5 0 -5 78 0 90 2 5 5 17 8 33 3
10 12 9 26 -5z m-57 -80 c-3 -8 -6 -5 -6 6 -1 11 2 17 5 13 3 -3 4 -12 1 -19z
m-193 -40 c-19 -33 -107 -148 -111 -145 -5 6 100 156 110 156 5 1 5 -5 1 -11z
m244 -182 c-32 -13 -43 -27 -40 -55 2 -26 -2 -31 -19 -31 -11 0 -32 9 -46 20
-34 26 -67 8 -59 -32 7 -36 -12 -36 -37 -2 -16 22 -17 29 -7 55 7 16 21 34 31
40 11 5 19 14 19 20 0 6 14 31 32 55 17 24 32 54 34 66 1 13 3 28 4 33 0 6 21
-30 46 -79 24 -49 43 -89 42 -90z m-125 106 c-58 -87 -69 -102 -76 -102 -8 0
11 30 61 98 30 39 41 43 15 4z m-103 -143 c-7 -11 -14 -18 -17 -15 -3 3 0 12
7 21 18 21 23 19 10 -6z m-95 -27 c11 -7 15 -21 22 -62 3 -22 2 -23 -6 -5 -5
11 -10 15 -10 9 -1 -6 -8 -11 -16 -11 -12 0 -15 10 -13 39 2 39 5 43 23 30z"/>
<path d="M722 505 c0 -16 2 -22 5 -12 2 9 2 23 0 30 -3 6 -5 -1 -5 -18z"/>
<path d="M712 450 c0 -14 2 -19 5 -12 2 6 2 18 0 25 -3 6 -5 1 -5 -13z"/>
</g>
</svg>
