<?xml version="1.0" encoding="UTF-8"?>
<svg xmlns="http://www.w3.org/2000/svg" xmlns:xlink="http://www.w3.org/1999/xlink" width="1563px" height="500px" viewBox="0 0 1562 500" version="1.1">
<g id="surface1">
<path style=" stroke:none;fill-rule:nonzero;fill:rgb(95.294118%,95.294118%,95.294118%);fill-opacity:1;" d="M 816.40625 66.144531 C 819.53125 67.1875 825.777344 67.1875 829.421875 66.144531 C 832.546875 64.582031 829.941406 63.542969 822.652344 63.542969 C 815.363281 63.542969 812.761719 64.582031 816.40625 66.144531 Z M 816.40625 66.144531 "/>
<path style=" stroke:none;fill-rule:nonzero;fill:rgb(95.294118%,95.294118%,95.294118%);fill-opacity:1;" d="M 815.363281 86.980469 C 813.800781 92.1875 812.238281 111.457031 811.199219 130.207031 L 810.15625 164.0625 L 850.25 222.394531 C 872.117188 254.167969 890.339844 281.769531 890.339844 282.8125 C 890.339844 284.375 874.199219 307.292969 854.414062 333.332031 C 815.882812 384.894531 815.882812 383.332031 833.066406 424.480469 C 835.148438 430.207031 838.792969 439.0625 840.355469 444.269531 C 842.960938 452.605469 844.519531 452.605469 857.539062 446.355469 C 865.867188 442.1875 883.570312 433.855469 897.109375 427.605469 C 919.496094 417.1875 924.183594 412.5 936.160156 384.894531 L 950.214844 353.644531 L 980.414062 355.730469 C 1000.722656 357.8125 1011.132812 356.25 1012.695312 352.605469 C 1013.738281 348.957031 1015.820312 340.105469 1017.382812 332.292969 C 1019.464844 322.394531 1032.480469 308.855469 1059.558594 288.542969 L 1098.605469 259.375 L 1098.605469 189.0625 L 1059.035156 185.9375 C 1022.070312 182.8125 1018.425781 183.332031 1001.761719 195.832031 C 991.871094 203.644531 984.058594 207.292969 984.058594 204.167969 C 984.058594 201.042969 981.976562 192.707031 979.375 185.9375 C 974.6875 173.957031 973.125 173.4375 956.984375 179.167969 C 947.613281 182.292969 936.679688 186.980469 932.515625 189.582031 C 927.308594 192.707031 926.265625 192.707031 928.871094 188.019531 C 932.515625 182.292969 904.917969 121.875 893.984375 111.457031 C 888.777344 106.769531 825.777344 78.125 820.050781 78.125 C 819.007812 78.125 816.925781 82.292969 815.363281 86.980469 Z M 863.265625 111.980469 C 883.050781 120.3125 887.738281 125 903.878906 159.375 C 918.976562 191.144531 921.058594 199.480469 916.375 208.855469 C 912.730469 214.582031 911.6875 220.832031 912.730469 222.394531 C 914.289062 223.4375 916.894531 219.792969 918.976562 214.0625 C 920.539062 207.8125 925.746094 203.125 930.429688 203.125 C 934.597656 203.125 943.96875 198.4375 951.257812 192.707031 C 968.960938 179.167969 973.648438 179.6875 973.648438 195.3125 C 973.648438 202.605469 977.292969 209.894531 981.457031 211.457031 C 987.703125 214.0625 988.226562 216.667969 983.539062 221.875 C 975.207031 231.769531 967.917969 231.25 972.085938 220.3125 C 974.167969 214.582031 973.648438 213.019531 968.960938 215.625 C 965.316406 218.230469 963.753906 222.917969 965.316406 226.5625 C 966.355469 230.207031 964.796875 235.9375 961.671875 239.0625 C 950.214844 250.519531 948.132812 244.269531 956.464844 220.832031 C 968.441406 186.457031 961.152344 186.980469 948.132812 221.875 C 931.992188 264.582031 939.804688 266.667969 981.976562 232.292969 C 1015.300781 205.730469 1019.984375 203.125 1044.976562 203.125 C 1059.558594 203.125 1073.613281 200.519531 1075.175781 197.917969 C 1082.988281 184.894531 1088.191406 195.3125 1088.191406 225.519531 L 1088.191406 258.332031 L 1052.265625 284.894531 C 1018.425781 309.894531 1016.339844 310.9375 1008.53125 302.082031 C 1001.242188 293.230469 1002.285156 291.667969 1017.382812 276.5625 C 1026.753906 267.707031 1036.125 261.980469 1038.730469 264.0625 C 1040.8125 266.667969 1041.332031 265.105469 1038.730469 261.457031 C 1036.125 256.769531 1043.414062 245.832031 1060.078125 228.644531 C 1074.136719 214.582031 1082.464844 203.125 1079.34375 203.125 C 1076.21875 203.125 1054.871094 223.4375 1031.960938 248.4375 C 994.992188 289.0625 990.828125 295.3125 997.597656 302.605469 C 1004.886719 310.417969 1008.011719 333.332031 1001.761719 333.332031 C 999.679688 333.332031 984.058594 321.355469 965.835938 307.292969 C 933.554688 280.730469 920.019531 259.375 881.488281 172.917969 C 872.636719 152.082031 866.910156 145.832031 861.183594 147.917969 C 856.496094 149.480469 845.5625 151.042969 837.230469 151.042969 C 828.378906 151.042969 822.652344 152.605469 824.734375 154.6875 C 826.820312 156.769531 836.710938 157.8125 846.082031 156.769531 L 864.308594 155.207031 L 896.066406 221.355469 C 924.703125 280.207031 930.953125 289.0625 955.945312 308.332031 C 984.582031 329.6875 990.828125 336.980469 975.730469 331.25 C 971.5625 329.6875 969.480469 330.207031 971.042969 333.332031 C 972.605469 336.457031 980.9375 338.542969 989.789062 338.542969 C 998.117188 338.542969 1004.886719 341.144531 1004.886719 344.269531 C 1004.886719 348.4375 996.035156 349.480469 976.25 346.875 L 947.613281 343.75 L 932.515625 377.605469 C 923.664062 396.875 913.769531 411.457031 909.085938 411.457031 C 904.917969 411.457031 900.753906 413.019531 899.710938 415.105469 C 898.148438 418.75 851.289062 442.707031 846.082031 442.707031 C 844.519531 442.707031 843.480469 440.105469 843.480469 437.5 C 843.480469 434.375 846.605469 432.292969 850.25 432.292969 C 854.414062 432.292969 867.953125 415.105469 880.96875 394.269531 C 894.503906 373.4375 910.125 351.042969 916.375 344.269531 C 930.429688 327.082031 934.597656 309.375 927.308594 293.75 C 923.140625 284.375 918.457031 281.25 912.207031 283.332031 C 905.4375 285.9375 895.027344 274.480469 866.910156 232.8125 C 846.605469 203.644531 830.984375 176.5625 830.984375 173.4375 C 831.503906 169.792969 829.941406 168.230469 827.339844 169.792969 C 820.050781 173.957031 815.363281 156.25 822.132812 149.480469 C 825.257812 146.355469 827.859375 133.332031 827.859375 120.832031 C 827.859375 104.6875 829.941406 98.4375 834.628906 100.519531 C 837.753906 102.082031 850.769531 107.292969 863.265625 111.980469 Z M 821.089844 131.25 C 819.53125 134.894531 818.488281 132.292969 818.488281 125 C 818.488281 117.707031 819.53125 115.105469 821.089844 118.230469 C 822.132812 121.875 822.132812 128.125 821.089844 131.25 Z M 923.140625 302.605469 C 925.226562 309.894531 916.375 327.082031 896.066406 358.332031 C 879.40625 383.332031 862.746094 409.375 859.101562 416.144531 L 852.851562 428.644531 L 845.042969 411.457031 C 841.398438 401.5625 838.792969 390.625 839.316406 386.457031 C 842.4375 371.875 903.355469 292.1875 911.6875 292.1875 C 916.375 291.667969 921.578125 296.355469 923.140625 302.605469 Z M 923.140625 302.605469 "/>
<path style=" stroke:none;fill-rule:nonzero;fill:rgb(95.294118%,95.294118%,95.294118%);fill-opacity:1;" d="M 842.4375 139.0625 C 846.082031 140.625 850.769531 140.105469 852.332031 138.542969 C 854.414062 136.980469 851.289062 135.417969 845.5625 135.9375 C 839.835938 135.9375 838.273438 137.5 842.4375 139.0625 Z M 842.4375 139.0625 "/>
<path style=" stroke:none;fill-rule:nonzero;fill:rgb(95.294118%,95.294118%,95.294118%);fill-opacity:1;" d="M 885.652344 154.167969 C 885.652344 159.894531 887.214844 161.457031 888.777344 157.292969 C 890.339844 153.644531 889.820312 148.957031 888.257812 147.394531 C 886.695312 145.3125 885.132812 148.4375 885.652344 154.167969 Z M 885.652344 154.167969 "/>
<path style=" stroke:none;fill-rule:nonzero;fill:rgb(95.294118%,95.294118%,95.294118%);fill-opacity:1;" d="M 893.464844 173.4375 C 895.027344 178.644531 898.148438 181.25 899.710938 179.6875 C 901.273438 178.125 899.710938 173.957031 896.066406 170.3125 C 890.859375 165.625 890.339844 166.144531 893.464844 173.4375 Z M 893.464844 173.4375 "/>
<path style=" stroke:none;fill-rule:nonzero;fill:rgb(95.294118%,95.294118%,95.294118%);fill-opacity:1;" d="M 882.53125 234.375 C 880.96875 236.980469 882.007812 239.582031 884.613281 239.582031 C 887.738281 239.582031 890.339844 236.980469 890.339844 234.375 C 890.339844 231.25 889.296875 229.167969 888.257812 229.167969 C 886.695312 229.167969 884.09375 231.25 882.53125 234.375 Z M 882.53125 234.375 "/>
<path style=" stroke:none;fill-rule:nonzero;fill:rgb(95.294118%,95.294118%,95.294118%);fill-opacity:1;" d="M 903.355469 270.832031 C 904.917969 273.4375 909.085938 276.042969 911.6875 276.042969 C 914.8125 276.042969 915.332031 273.4375 913.769531 270.832031 C 912.207031 267.707031 908.042969 265.625 905.4375 265.625 C 902.316406 265.625 901.792969 267.707031 903.355469 270.832031 Z M 903.355469 270.832031 "/>
<path style=" stroke:none;fill-rule:nonzero;fill:rgb(95.294118%,95.294118%,95.294118%);fill-opacity:1;" d="M 939.804688 270.832031 C 941.367188 273.4375 943.96875 276.042969 945.53125 276.042969 C 946.570312 276.042969 947.613281 273.4375 947.613281 270.832031 C 947.613281 267.707031 945.011719 265.625 941.886719 265.625 C 939.28125 265.625 938.242188 267.707031 939.804688 270.832031 Z M 939.804688 270.832031 "/>
<path style=" stroke:none;fill-rule:nonzero;fill:rgb(95.294118%,95.294118%,95.294118%);fill-opacity:1;" d="M 952.820312 283.332031 C 952.820312 284.375 956.984375 288.542969 962.191406 292.1875 C 970.003906 298.957031 970.523438 298.4375 963.753906 290.105469 C 956.984375 281.769531 952.820312 279.167969 952.820312 283.332031 Z M 952.820312 283.332031 "/>
<path style=" stroke:none;fill-rule:nonzero;fill:rgb(95.294118%,95.294118%,95.294118%);fill-opacity:1;" d="M 942.40625 313.019531 C 942.40625 315.625 945.011719 316.667969 947.613281 315.105469 C 950.738281 313.542969 952.820312 310.9375 952.820312 309.375 C 952.820312 308.332031 950.738281 307.292969 947.613281 307.292969 C 945.011719 307.292969 942.40625 309.894531 942.40625 313.019531 Z M 942.40625 313.019531 "/>
<path style=" stroke:none;fill-rule:nonzero;fill:rgb(95.294118%,95.294118%,95.294118%);fill-opacity:1;" d="M 877.324219 416.667969 C 875.761719 419.269531 876.800781 421.875 879.40625 421.875 C 882.53125 421.875 885.132812 419.269531 885.132812 416.667969 C 885.132812 413.542969 884.09375 411.457031 883.050781 411.457031 C 881.488281 411.457031 878.886719 413.542969 877.324219 416.667969 Z M 877.324219 416.667969 "/>
<path style=" stroke:none;fill-rule:nonzero;fill:rgb(95.294118%,95.294118%,95.294118%);fill-opacity:1;" d="M 782.5625 117.1875 C 782.5625 128.644531 783.601562 132.8125 784.644531 126.042969 C 785.6875 119.792969 785.6875 110.417969 784.644531 105.207031 C 783.082031 100.519531 782.042969 105.730469 782.5625 117.1875 Z M 782.5625 117.1875 "/>
<path style=" stroke:none;fill-rule:nonzero;fill:rgb(95.294118%,95.294118%,95.294118%);fill-opacity:1;" d="M 802.347656 112.5 C 802.347656 118.230469 803.910156 119.792969 805.472656 115.625 C 807.035156 111.980469 806.511719 107.292969 804.949219 105.730469 C 803.386719 103.644531 801.828125 106.769531 802.347656 112.5 Z M 802.347656 112.5 "/>
<path style=" stroke:none;fill-rule:nonzero;fill:rgb(95.294118%,95.294118%,95.294118%);fill-opacity:1;" d="M 181.191406 170.3125 C 184.835938 171.875 189.523438 171.355469 191.085938 169.792969 C 193.167969 168.230469 190.042969 166.667969 184.316406 167.1875 C 178.589844 167.1875 177.027344 168.75 181.191406 170.3125 Z M 181.191406 170.3125 "/>
<path style=" stroke:none;fill-rule:nonzero;fill:rgb(95.294118%,95.294118%,95.294118%);fill-opacity:1;" d="M 1188.683594 180.730469 C 1193.367188 181.769531 1200.65625 181.769531 1204.300781 180.730469 C 1207.425781 179.167969 1203.78125 178.125 1194.929688 178.125 C 1186.597656 178.125 1183.476562 179.167969 1188.683594 180.730469 Z M 1188.683594 180.730469 "/>
<path style=" stroke:none;fill-rule:nonzero;fill:rgb(95.294118%,95.294118%,95.294118%);fill-opacity:1;" d="M 1245.957031 180.730469 C 1250.640625 181.769531 1258.972656 181.769531 1264.179688 180.730469 C 1268.863281 179.167969 1264.699219 178.125 1254.808594 178.125 C 1244.914062 178.125 1240.75 179.167969 1245.957031 180.730469 Z M 1245.957031 180.730469 "/>
<path style=" stroke:none;fill-rule:nonzero;fill:rgb(95.294118%,95.294118%,95.294118%);fill-opacity:1;" d="M 383.730469 202.082031 C 369.152344 218.230469 372.796875 243.230469 393.625 271.875 C 411.847656 297.394531 414.972656 317.1875 402.476562 321.875 C 397.789062 322.917969 395.707031 318.230469 395.707031 307.8125 C 395.707031 295.3125 393.625 291.667969 385.292969 291.667969 C 376.960938 291.667969 374.878906 295.3125 374.878906 308.855469 C 374.878906 318.230469 377.484375 328.644531 381.128906 332.292969 C 390.5 341.667969 420.179688 340.105469 423.824219 330.207031 C 431.113281 310.9375 426.425781 284.894531 411.847656 264.0625 C 394.144531 239.0625 388.9375 216.144531 400.914062 216.144531 C 405.597656 216.144531 409.242188 221.875 410.285156 230.207031 C 412.886719 252.082031 426.945312 248.957031 426.945312 227.082031 C 426.945312 196.355469 401.433594 182.292969 383.730469 202.082031 Z M 420.699219 214.0625 C 422.78125 219.792969 421.738281 220.3125 416.011719 214.582031 C 396.746094 196.875 377.484375 220.3125 391.019531 245.832031 C 396.746094 256.769531 396.746094 257.292969 388.9375 250.519531 C 370.195312 235.417969 385.8125 194.792969 407.160156 202.605469 C 413.410156 204.6875 419.65625 209.894531 420.699219 214.0625 Z M 421.738281 305.730469 C 421.738281 314.582031 419.65625 323.4375 417.574219 325 C 415.492188 326.042969 414.449219 319.269531 415.492188 309.375 C 417.054688 298.4375 414.972656 288.019531 410.285156 282.292969 C 406.121094 277.605469 400.914062 269.792969 398.832031 265.625 C 396.746094 261.457031 400.914062 264.582031 408.203125 273.4375 C 416.535156 283.332031 421.738281 295.3125 421.738281 305.730469 Z M 399.871094 328.644531 C 405.597656 328.644531 406.640625 329.6875 401.953125 331.769531 C 392.582031 335.417969 380.085938 323.4375 380.605469 310.417969 C 380.605469 301.042969 381.648438 301.5625 386.335938 313.542969 C 388.9375 321.875 395.1875 328.125 399.871094 328.644531 Z M 399.871094 328.644531 "/>
<path style=" stroke:none;fill-rule:nonzero;fill:rgb(95.294118%,95.294118%,95.294118%);fill-opacity:1;" d="M 442.566406 204.167969 C 442.566406 210.417969 446.730469 213.542969 455.582031 213.542969 L 468.601562 213.542969 L 468.601562 276.042969 C 468.601562 328.125 470.160156 338.542969 476.410156 338.542969 C 483.179688 338.542969 484.21875 328.125 484.21875 276.042969 L 484.21875 213.542969 L 497.238281 213.542969 C 506.089844 213.542969 510.253906 210.417969 510.253906 204.167969 C 510.253906 196.875 505.046875 195.3125 476.410156 195.3125 C 447.773438 195.3125 442.566406 196.875 442.566406 204.167969 Z M 494.632812 207.8125 C 482.136719 211.457031 481.617188 212.5 479.011719 270.832031 L 476.929688 330.730469 L 473.808594 270.832031 C 471.203125 213.019531 470.683594 211.457031 458.1875 207.8125 C 449.335938 205.207031 455.582031 204.167969 476.410156 204.167969 C 497.238281 204.167969 503.484375 205.207031 494.632812 207.8125 Z M 494.632812 207.8125 "/>
<path style=" stroke:none;fill-rule:nonzero;fill:rgb(95.294118%,95.294118%,95.294118%);fill-opacity:1;" d="M 534.203125 207.8125 C 530.558594 225 515.460938 326.5625 515.460938 333.332031 C 515.460938 335.9375 520.144531 338.542969 525.875 338.542969 C 534.726562 338.542969 536.285156 334.894531 536.285156 315.105469 C 536.285156 293.75 537.328125 291.667969 549.304688 291.667969 C 560.238281 291.667969 562.320312 294.269531 562.320312 306.769531 C 562.320312 327.082031 567.007812 338.542969 575.855469 338.542969 C 585.230469 338.542969 585.230469 336.980469 572.734375 268.230469 C 567.007812 236.457031 562.320312 208.332031 562.320312 205.207031 C 562.320312 201.5625 556.59375 197.917969 549.304688 196.875 C 538.890625 194.792969 536.285156 196.875 534.203125 207.8125 Z M 553.988281 238.542969 C 554.511719 261.980469 552.949219 270.832031 548.261719 270.832031 C 543.054688 270.832031 542.015625 265.105469 544.617188 248.4375 C 546.179688 236.457031 548.261719 223.4375 549.824219 219.792969 C 550.867188 216.667969 549.304688 213.542969 546.699219 213.542969 C 543.574219 213.542969 541.492188 210.9375 541.492188 207.8125 C 541.492188 204.6875 544.097656 203.125 547.742188 204.167969 C 550.867188 205.207031 553.988281 219.269531 553.988281 238.542969 Z M 542.535156 276.5625 C 545.136719 278.644531 544.097656 281.25 539.410156 282.8125 C 532.640625 285.417969 531.078125 282.292969 531.601562 266.667969 C 532.121094 252.082031 533.164062 250.519531 534.726562 260.417969 C 536.285156 267.707031 539.410156 275 542.535156 276.5625 Z M 567.527344 279.167969 C 567.527344 283.332031 564.921875 285.417969 562.320312 283.855469 C 559.195312 281.769531 558.15625 278.125 559.714844 275.519531 C 564.402344 268.230469 567.527344 269.792969 567.527344 279.167969 Z M 567.527344 279.167969 "/>
<path style=" stroke:none;fill-rule:nonzero;fill:rgb(95.294118%,95.294118%,95.294118%);fill-opacity:1;" d="M 603.972656 266.144531 L 603.972656 338.542969 L 627.402344 338.542969 C 647.1875 338.542969 650.832031 336.980469 650.832031 328.125 C 650.832031 319.269531 648.230469 318.230469 637.816406 320.832031 L 624.800781 323.957031 L 624.800781 261.457031 C 624.800781 203.644531 624.28125 198.957031 614.386719 196.355469 C 604.492188 193.75 603.972656 196.355469 603.972656 266.144531 Z M 615.429688 282.8125 C 616.46875 310.417969 615.429688 333.332031 613.34375 333.332031 C 610.742188 333.332031 609.699219 303.644531 610.222656 266.667969 C 610.742188 195.3125 613.34375 201.5625 615.429688 282.8125 Z M 615.429688 282.8125 "/>
<path style=" stroke:none;fill-rule:nonzero;fill:rgb(95.294118%,95.294118%,95.294118%);fill-opacity:1;" d="M 1176.707031 265.625 C 1176.707031 336.457031 1177.226562 338.542969 1187.640625 338.542969 C 1198.574219 338.542969 1198.574219 336.980469 1195.449219 287.5 C 1193.886719 259.894531 1191.285156 228.125 1189.203125 217.1875 C 1186.078125 199.480469 1187.121094 196.875 1195.449219 198.957031 C 1202.738281 200 1206.90625 208.332031 1211.589844 234.375 C 1214.714844 253.125 1219.921875 273.957031 1223.566406 281.25 L 1229.292969 294.269531 L 1226.171875 281.25 C 1224.609375 273.957031 1220.964844 251.042969 1217.839844 230.207031 L 1212.113281 192.707031 L 1176.707031 192.707031 Z M 1176.707031 265.625 "/>
<path style=" stroke:none;fill-rule:nonzero;fill:rgb(95.294118%,95.294118%,95.294118%);fill-opacity:1;" d="M 1233.980469 204.167969 C 1233.980469 210.9375 1232.9375 229.167969 1231.375 244.792969 C 1229.816406 265.105469 1230.335938 269.792969 1233.460938 260.417969 L 1238.144531 247.394531 L 1238.144531 260.417969 C 1238.664062 282.8125 1225.648438 335.9375 1222.003906 327.082031 C 1220.441406 322.394531 1216.277344 299.480469 1212.632812 276.5625 C 1208.988281 253.125 1204.824219 234.375 1202.738281 234.375 C 1201.179688 234.375 1203.261719 257.8125 1207.425781 285.9375 C 1213.675781 326.042969 1217.320312 338.542969 1224.085938 340.105469 C 1231.375 342.1875 1233.980469 335.417969 1239.1875 301.5625 C 1242.832031 278.644531 1244.394531 251.042969 1242.3125 239.582031 C 1239.1875 220.3125 1245.433594 210.417969 1251.160156 225 C 1252.722656 228.644531 1254.285156 226.5625 1254.285156 219.792969 C 1254.808594 213.019531 1252.722656 209.375 1249.601562 210.9375 C 1246.996094 212.5 1244.394531 210.9375 1244.394531 207.292969 C 1244.394531 203.125 1248.558594 200 1254.285156 199.480469 C 1262.617188 198.957031 1263.65625 202.605469 1263.65625 235.9375 C 1263.65625 266.667969 1263.136719 269.792969 1260.011719 252.605469 C 1257.410156 236.457031 1256.367188 243.75 1254.285156 285.417969 C 1252.203125 333.332031 1253.246094 338.542969 1261.574219 338.542969 C 1269.386719 338.542969 1270.425781 331.769531 1270.425781 265.625 L 1270.425781 192.707031 L 1252.203125 192.707031 C 1236.582031 192.707031 1233.980469 194.269531 1233.980469 204.167969 Z M 1233.980469 204.167969 "/>
<path style=" stroke:none;fill-rule:nonzero;fill:rgb(95.294118%,95.294118%,95.294118%);fill-opacity:1;" d="M 1299.585938 253.644531 C 1294.898438 287.5 1289.691406 320.832031 1288.128906 328.125 C 1286.046875 339.0625 1287.609375 341.667969 1296.460938 341.667969 C 1304.269531 341.667969 1306.875 338.019531 1306.875 328.125 C 1306.875 305.207031 1313.121094 291.667969 1322.492188 291.667969 C 1332.90625 291.667969 1338.113281 301.5625 1338.113281 322.917969 C 1338.113281 333.332031 1341.238281 338.019531 1349.046875 340.105469 C 1358.417969 342.707031 1359.460938 341.144531 1357.898438 329.167969 C 1356.335938 321.355469 1351.128906 287.5 1345.402344 253.644531 C 1336.03125 193.75 1335.511719 192.707031 1322.492188 192.707031 C 1308.957031 192.707031 1308.433594 193.75 1299.585938 253.644531 Z M 1327.699219 208.332031 C 1327.699219 210.9375 1324.054688 213.542969 1319.371094 213.542969 C 1315.203125 213.542969 1313.121094 210.9375 1314.683594 208.332031 C 1316.246094 205.207031 1319.890625 203.125 1323.015625 203.125 C 1325.617188 203.125 1327.699219 205.207031 1327.699219 208.332031 Z M 1327.699219 239.582031 C 1327.699219 251.5625 1331.34375 266.667969 1336.550781 273.957031 C 1344.882812 286.980469 1344.882812 286.980469 1330.824219 283.332031 C 1323.015625 281.769531 1314.164062 282.8125 1309.996094 285.9375 C 1303.75 291.144531 1302.707031 288.019531 1305.3125 264.582031 C 1308.433594 231.769531 1311.558594 225.519531 1312.601562 250.519531 C 1313.640625 268.230469 1313.640625 268.230469 1316.765625 247.394531 C 1318.328125 235.417969 1317.808594 225 1314.683594 222.917969 C 1311.558594 220.3125 1313.640625 218.75 1318.847656 218.75 C 1325.617188 218.75 1327.699219 223.4375 1327.699219 239.582031 Z M 1346.964844 318.75 C 1345.402344 322.394531 1344.363281 319.792969 1344.363281 312.5 C 1344.363281 305.207031 1345.402344 302.605469 1346.964844 305.730469 C 1348.007812 309.375 1348.007812 315.625 1346.964844 318.75 Z M 1346.964844 318.75 "/>
<path style=" stroke:none;fill-rule:nonzero;fill:rgb(95.294118%,95.294118%,95.294118%);fill-opacity:1;" d="M 1311.039062 271.875 C 1314.164062 275 1320.410156 276.042969 1325.617188 275 C 1332.90625 273.4375 1331.867188 272.394531 1320.929688 269.792969 C 1311.039062 268.230469 1307.914062 268.75 1311.039062 271.875 Z M 1311.039062 271.875 "/>
<path style=" stroke:none;fill-rule:nonzero;fill:rgb(95.294118%,95.294118%,95.294118%);fill-opacity:1;" d="M 1379.765625 194.269531 C 1379.765625 195.3125 1385.492188 215.625 1392.785156 239.582031 C 1400.074219 264.0625 1405.800781 296.355469 1405.800781 313.019531 C 1405.800781 338.019531 1407.363281 342.707031 1414.652344 341.667969 C 1421.941406 340.625 1423.503906 335.417969 1422.460938 314.582031 C 1421.421875 292.707031 1434.4375 240.625 1450.058594 201.5625 C 1452.660156 194.792969 1451.097656 192.707031 1442.765625 192.707031 C 1430.792969 192.707031 1421.421875 209.894531 1421.421875 232.292969 C 1421.421875 253.644531 1413.609375 246.355469 1406.320312 218.75 C 1401.113281 198.957031 1397.46875 192.707031 1389.660156 192.707031 C 1384.453125 192.707031 1379.765625 193.230469 1379.765625 194.269531 Z M 1438.601562 213.542969 C 1437.039062 219.792969 1434.4375 223.4375 1432.875 221.875 C 1430.269531 218.75 1435.476562 203.125 1439.121094 203.125 C 1440.164062 203.125 1440.164062 207.8125 1438.601562 213.542969 Z M 1420.898438 248.957031 C 1426.625 243.230469 1427.148438 244.269531 1424.023438 255.207031 C 1421.421875 262.5 1418.296875 281.25 1416.214844 296.875 L 1412.570312 325.519531 L 1411.527344 296.355469 C 1411.527344 280.207031 1407.363281 258.332031 1403.195312 248.4375 C 1392.261719 222.394531 1393.824219 211.457031 1404.757812 235.9375 C 1412.046875 252.082031 1414.652344 254.6875 1420.898438 248.957031 Z M 1420.898438 248.957031 "/>
<path style=" stroke:none;fill-rule:nonzero;fill:rgb(95.294118%,95.294118%,95.294118%);fill-opacity:1;" d="M 154.117188 206.25 C 147.347656 212.5 145.785156 226.042969 145.785156 267.707031 C 145.785156 313.019531 147.347656 322.394531 155.160156 329.6875 C 174.945312 347.394531 197.851562 337.5 197.851562 311.457031 C 197.851562 294.269531 183.796875 291.144531 181.191406 307.292969 C 180.152344 313.542969 177.546875 318.75 174.421875 319.269531 C 167.132812 320.832031 164.53125 223.957031 171.300781 217.1875 C 174.945312 213.542969 178.066406 215.105469 180.671875 221.875 C 186.398438 235.9375 197.851562 236.457031 197.851562 222.394531 C 197.851562 198.957031 170.777344 189.0625 154.117188 206.25 Z M 186.398438 209.375 C 190.042969 213.019531 192.648438 217.707031 192.648438 220.832031 C 192.648438 223.4375 189.523438 221.355469 185.355469 215.625 C 178.589844 206.769531 176.507812 206.25 165.570312 213.019531 C 154.636719 219.792969 154.117188 219.792969 160.886719 211.980469 C 169.214844 201.5625 177.546875 200.519531 186.398438 209.375 Z M 186.398438 209.375 "/>
<path style=" stroke:none;fill-rule:nonzero;fill:rgb(95.294118%,95.294118%,95.294118%);fill-opacity:1;" d="M 218.679688 268.230469 C 218.679688 334.894531 219.199219 338.542969 229.09375 338.542969 C 241.070312 338.542969 241.589844 335.9375 233.78125 313.019531 C 229.613281 301.042969 229.613281 294.792969 234.300781 289.582031 C 240.027344 281.769531 238.464844 230.207031 231.175781 211.980469 C 228.574219 205.207031 230.65625 203.125 240.546875 203.125 C 247.316406 203.125 255.648438 205.730469 259.292969 209.375 C 266.0625 216.144531 268.144531 289.582031 261.894531 293.230469 C 259.292969 294.792969 257.730469 276.5625 257.730469 253.644531 C 257.730469 211.980469 257.210938 210.9375 244.714844 209.894531 C 231.695312 208.332031 231.695312 208.332031 243.671875 213.542969 C 254.085938 217.707031 255.125 221.875 255.125 254.6875 C 255.125 288.019531 254.085938 291.144531 243.671875 293.230469 L 231.695312 295.3125 L 243.671875 296.355469 C 252.523438 296.875 255.125 300 254.605469 310.9375 C 254.605469 325 254.085938 325 249.921875 313.542969 C 247.316406 307.292969 242.109375 302.082031 238.464844 302.082031 C 233.78125 302.082031 233.257812 303.644531 237.425781 306.25 C 240.546875 308.332031 244.714844 316.144531 246.796875 323.957031 C 248.878906 333.855469 253.566406 338.542969 260.855469 338.542969 C 271.265625 338.542969 271.789062 334.894531 261.894531 309.375 C 260.855469 305.730469 261.894531 301.5625 265.019531 299.480469 C 272.828125 294.792969 272.308594 211.980469 264.5 204.167969 C 260.855469 200.519531 249.398438 197.917969 238.464844 197.917969 L 218.679688 197.917969 Z M 218.679688 268.230469 "/>
<path style=" stroke:none;fill-rule:nonzero;fill:rgb(95.294118%,95.294118%,95.294118%);fill-opacity:1;" d="M 288.449219 206.769531 C 289.492188 211.980469 295.738281 233.332031 301.988281 254.6875 C 308.753906 277.082031 312.398438 303.125 311.359375 316.144531 C 309.796875 334.894531 311.359375 338.542969 318.648438 338.542969 C 326.457031 338.542969 328.019531 333.332031 328.019531 305.730469 C 328.019531 287.5 330.101562 270.832031 332.183594 267.707031 C 334.789062 265.105469 339.476562 252.605469 343.121094 239.582031 C 346.765625 226.5625 350.929688 211.980469 351.96875 206.769531 C 354.054688 200.519531 351.96875 197.917969 344.160156 197.917969 C 336.871094 197.917969 332.707031 202.082031 330.101562 211.980469 C 328.539062 220.3125 325.9375 230.207031 324.375 234.375 C 322.8125 238.542969 321.773438 261.980469 321.773438 286.457031 L 321.773438 330.730469 L 317.605469 296.875 C 315.523438 278.125 311.359375 256.25 307.714844 248.4375 C 299.382812 227.605469 300.945312 218.230469 309.796875 236.980469 C 318.648438 256.25 319.6875 245.3125 311.359375 218.230469 C 307.191406 203.644531 302.507812 197.917969 295.738281 197.917969 C 288.449219 197.917969 286.367188 200.519531 288.449219 206.769531 Z M 333.746094 242.707031 C 331.144531 251.042969 328.539062 253.644531 328.539062 248.957031 C 328.019531 239.582031 333.746094 222.394531 336.351562 225.519531 C 337.390625 226.042969 335.828125 233.855469 333.746094 242.707031 Z M 333.746094 242.707031 "/>
<path style=" stroke:none;fill-rule:nonzero;fill:rgb(95.294118%,95.294118%,95.294118%);fill-opacity:1;" d="M 361.863281 208.332031 C 359.78125 214.582031 359.261719 220.832031 360.820312 222.394531 C 362.382812 223.4375 364.988281 219.792969 367.070312 213.542969 C 369.152344 207.292969 369.671875 201.042969 368.113281 199.480469 C 366.550781 198.4375 363.945312 202.082031 361.863281 208.332031 Z M 361.863281 208.332031 "/>
<path style=" stroke:none;fill-rule:nonzero;fill:rgb(95.294118%,95.294118%,95.294118%);fill-opacity:1;" d="M 519.105469 201.5625 C 517.023438 203.125 515.460938 208.332031 515.460938 213.019531 C 515.980469 219.792969 517.023438 219.792969 521.1875 211.980469 C 526.914062 202.082031 525.351562 194.792969 519.105469 201.5625 Z M 519.105469 201.5625 "/>
<path style=" stroke:none;fill-rule:nonzero;fill:rgb(95.294118%,95.294118%,95.294118%);fill-opacity:1;" d="M 1110.0625 210.9375 C 1110.0625 219.269531 1111.101562 222.394531 1112.664062 217.1875 C 1113.707031 212.5 1113.707031 205.207031 1112.664062 201.5625 C 1111.101562 198.4375 1110.0625 202.082031 1110.0625 210.9375 Z M 1110.0625 210.9375 "/>
<path style=" stroke:none;fill-rule:nonzero;fill:rgb(95.294118%,95.294118%,95.294118%);fill-opacity:1;" d="M 1349.566406 213.542969 C 1349.566406 223.4375 1350.609375 227.605469 1352.171875 222.394531 C 1353.210938 217.707031 1353.210938 209.375 1352.171875 204.167969 C 1350.609375 199.480469 1349.566406 203.644531 1349.566406 213.542969 Z M 1349.566406 213.542969 "/>
<path style=" stroke:none;fill-rule:nonzero;fill:rgb(95.294118%,95.294118%,95.294118%);fill-opacity:1;" d="M 573.253906 211.457031 C 573.253906 217.1875 574.816406 218.75 576.378906 214.582031 C 577.941406 210.9375 577.417969 206.25 575.855469 204.6875 C 574.296875 202.605469 572.734375 205.730469 573.253906 211.457031 Z M 573.253906 211.457031 "/>
<path style=" stroke:none;fill-rule:nonzero;fill:rgb(95.294118%,95.294118%,95.294118%);fill-opacity:1;" d="M 589.394531 216.144531 C 589.394531 224.480469 590.4375 227.605469 591.996094 222.394531 C 593.039062 217.707031 593.039062 210.417969 591.996094 206.769531 C 590.4375 203.644531 589.394531 207.292969 589.394531 216.144531 Z M 589.394531 216.144531 "/>
<path style=" stroke:none;fill-rule:nonzero;fill:rgb(95.294118%,95.294118%,95.294118%);fill-opacity:1;" d="M 1370.394531 213.542969 C 1370.394531 220.832031 1371.4375 223.4375 1372.996094 219.792969 C 1374.039062 216.667969 1374.039062 210.417969 1372.996094 206.769531 C 1371.4375 203.644531 1370.394531 206.25 1370.394531 213.542969 Z M 1370.394531 213.542969 "/>
<path style=" stroke:none;fill-rule:nonzero;fill:rgb(95.294118%,95.294118%,95.294118%);fill-opacity:1;" d="M 115.589844 223.957031 C 115.589844 233.855469 116.628906 238.019531 118.191406 232.8125 C 119.234375 228.125 119.234375 219.792969 118.191406 214.582031 C 116.628906 209.894531 115.589844 214.0625 115.589844 223.957031 Z M 115.589844 223.957031 "/>
<path style=" stroke:none;fill-rule:nonzero;fill:rgb(95.294118%,95.294118%,95.294118%);fill-opacity:1;" d="M 135.894531 216.667969 C 135.894531 222.394531 137.457031 223.957031 139.019531 219.792969 C 140.578125 216.144531 140.058594 211.457031 138.496094 209.894531 C 136.933594 207.8125 135.375 210.9375 135.894531 216.667969 Z M 135.894531 216.667969 "/>
<path style=" stroke:none;fill-rule:nonzero;fill:rgb(95.294118%,95.294118%,95.294118%);fill-opacity:1;" d="M 1192.328125 218.75 C 1192.328125 221.355469 1194.929688 223.957031 1197.535156 223.957031 C 1200.65625 223.957031 1202.738281 221.355469 1202.738281 218.75 C 1202.738281 215.625 1200.65625 213.542969 1197.535156 213.542969 C 1194.929688 213.542969 1192.328125 215.625 1192.328125 218.75 Z M 1192.328125 218.75 "/>
<path style=" stroke:none;fill-rule:nonzero;fill:rgb(95.294118%,95.294118%,95.294118%);fill-opacity:1;" d="M 516.5 234.375 C 516.5 241.667969 517.542969 244.269531 519.105469 240.625 C 520.144531 237.5 520.144531 231.25 519.105469 227.605469 C 517.542969 224.480469 516.5 227.082031 516.5 234.375 Z M 516.5 234.375 "/>
<path style=" stroke:none;fill-rule:nonzero;fill:rgb(95.294118%,95.294118%,95.294118%);fill-opacity:1;" d="M 135.894531 237.5 C 135.894531 243.230469 137.457031 244.792969 139.019531 240.625 C 140.578125 236.980469 140.058594 232.292969 138.496094 230.730469 C 136.933594 228.644531 135.375 231.769531 135.894531 237.5 Z M 135.894531 237.5 "/>
<path style=" stroke:none;fill-rule:nonzero;fill:rgb(95.294118%,95.294118%,95.294118%);fill-opacity:1;" d="M 751.84375 271.355469 C 738.824219 284.894531 728.933594 297.917969 731.015625 301.042969 C 732.578125 303.644531 747.15625 311.457031 763.296875 317.707031 C 791.933594 329.6875 792.976562 329.6875 808.59375 320.3125 C 851.289062 295.832031 864.828125 285.417969 863.265625 280.207031 C 861.703125 276.5625 841.917969 268.230469 818.488281 260.417969 L 775.792969 246.875 Z M 824.214844 274.480469 C 852.851562 277.605469 862.222656 285.417969 836.710938 284.894531 C 808.59375 284.375 760.695312 292.1875 757.050781 297.917969 C 754.964844 301.042969 757.570312 302.082031 763.296875 300 C 769.023438 298.4375 785.6875 295.832031 800.785156 294.269531 C 816.40625 292.707031 830.984375 290.625 833.585938 288.542969 C 836.191406 286.980469 838.273438 288.019531 838.273438 290.625 C 838.273438 297.917969 813.28125 307.292969 803.386719 304.167969 C 796.621094 302.082031 796.097656 302.605469 800.785156 305.730469 C 805.992188 309.894531 805.992188 311.980469 799.742188 317.1875 C 793.496094 322.394531 787.769531 321.355469 769.546875 311.980469 C 757.050781 305.207031 745.59375 300.519531 743.511719 301.042969 C 737.265625 302.605469 738.304688 292.707031 744.554688 289.0625 C 747.675781 287.5 749.761719 288.542969 749.761719 291.667969 C 749.761719 294.792969 756.007812 290.105469 763.816406 281.25 C 774.230469 268.75 779.957031 265.625 788.289062 268.230469 C 794.539062 270.3125 810.15625 272.917969 824.214844 274.480469 Z M 824.214844 274.480469 "/>
<path style=" stroke:none;fill-rule:nonzero;fill:rgb(95.294118%,95.294118%,95.294118%);fill-opacity:1;" d="M 782.5625 279.6875 C 787.246094 280.730469 794.539062 280.730469 798.183594 279.6875 C 801.304688 278.125 797.660156 277.082031 788.808594 277.082031 C 780.480469 277.082031 777.355469 278.125 782.5625 279.6875 Z M 782.5625 279.6875 "/>
<path style=" stroke:none;fill-rule:nonzero;fill:rgb(95.294118%,95.294118%,95.294118%);fill-opacity:1;" d="M 825.257812 250 C 816.925781 253.644531 816.40625 254.6875 823.695312 254.6875 C 828.378906 255.207031 834.109375 252.605469 835.671875 250 C 839.316406 244.269531 839.316406 244.269531 825.257812 250 Z M 825.257812 250 "/>
<path style=" stroke:none;fill-rule:nonzero;fill:rgb(95.294118%,95.294118%,95.294118%);fill-opacity:1;" d="M 136.933594 276.042969 C 136.933594 291.667969 137.976562 298.4375 139.019531 290.105469 C 140.058594 282.292969 140.058594 269.792969 139.019531 261.457031 C 137.976562 253.644531 136.933594 260.417969 136.933594 276.042969 Z M 136.933594 276.042969 "/>
<path style=" stroke:none;fill-rule:nonzero;fill:rgb(95.294118%,95.294118%,95.294118%);fill-opacity:1;" d="M 349.367188 258.332031 C 349.367188 264.0625 350.929688 265.625 352.492188 261.457031 C 354.054688 257.8125 353.53125 253.125 351.96875 251.5625 C 350.410156 249.480469 348.847656 252.605469 349.367188 258.332031 Z M 349.367188 258.332031 "/>
<path style=" stroke:none;fill-rule:nonzero;fill:rgb(95.294118%,95.294118%,95.294118%);fill-opacity:1;" d="M 1442.765625 258.332031 C 1442.765625 264.0625 1444.328125 265.625 1445.890625 261.457031 C 1447.453125 257.8125 1446.933594 253.125 1445.371094 251.5625 C 1443.808594 249.480469 1442.246094 252.605469 1442.765625 258.332031 Z M 1442.765625 258.332031 "/>
<path style=" stroke:none;fill-rule:nonzero;fill:rgb(95.294118%,95.294118%,95.294118%);fill-opacity:1;" d="M 1463.59375 258.332031 C 1463.59375 264.0625 1465.15625 265.625 1466.71875 261.457031 C 1468.28125 257.8125 1467.757812 253.125 1466.199219 251.5625 C 1464.636719 249.480469 1463.074219 252.605469 1463.59375 258.332031 Z M 1463.59375 258.332031 "/>
<path style=" stroke:none;fill-rule:nonzero;fill:rgb(95.294118%,95.294118%,95.294118%);fill-opacity:1;" d="M 1359.980469 270.832031 C 1359.980469 278.125 1361.023438 280.730469 1362.585938 277.082031 C 1363.625 273.957031 1363.625 267.707031 1362.585938 264.0625 C 1361.023438 260.9375 1359.980469 263.542969 1359.980469 270.832031 Z M 1359.980469 270.832031 "/>
<path style=" stroke:none;fill-rule:nonzero;fill:rgb(95.294118%,95.294118%,95.294118%);fill-opacity:1;" d="M 508.691406 274.480469 C 506.609375 276.042969 505.046875 281.25 505.046875 285.9375 C 505.566406 292.707031 506.609375 292.707031 510.773438 284.894531 C 516.5 275 514.9375 267.707031 508.691406 274.480469 Z M 508.691406 274.480469 "/>
<path style=" stroke:none;fill-rule:nonzero;fill:rgb(95.294118%,95.294118%,95.294118%);fill-opacity:1;" d="M 1281.882812 283.855469 C 1281.882812 292.1875 1282.921875 295.3125 1284.484375 290.105469 C 1285.527344 285.417969 1285.527344 278.125 1284.484375 274.480469 C 1282.921875 271.355469 1281.882812 275 1281.882812 283.855469 Z M 1281.882812 283.855469 "/>
<path style=" stroke:none;fill-rule:nonzero;fill:rgb(95.294118%,95.294118%,95.294118%);fill-opacity:1;" d="M 382.691406 281.25 C 384.253906 283.855469 386.855469 286.457031 388.417969 286.457031 C 389.457031 286.457031 390.5 283.855469 390.5 281.25 C 390.5 278.125 387.898438 276.042969 384.773438 276.042969 C 382.167969 276.042969 381.128906 278.125 382.691406 281.25 Z M 382.691406 281.25 "/>
<path style=" stroke:none;fill-rule:nonzero;fill:rgb(95.294118%,95.294118%,95.294118%);fill-opacity:1;" d="M 719.039062 294.792969 C 719.039062 300.519531 720.601562 302.082031 722.164062 297.917969 C 723.726562 294.269531 723.207031 289.582031 721.644531 288.019531 C 720.082031 285.9375 718.519531 289.0625 719.039062 294.792969 Z M 719.039062 294.792969 "/>
<path style=" stroke:none;fill-rule:nonzero;fill:rgb(95.294118%,95.294118%,95.294118%);fill-opacity:1;" d="M 136.414062 317.707031 C 136.414062 325 137.457031 327.605469 139.019531 323.957031 C 140.058594 320.832031 140.058594 314.582031 139.019531 310.9375 C 137.457031 307.8125 136.414062 310.417969 136.414062 317.707031 Z M 136.414062 317.707031 "/>
<path style=" stroke:none;fill-rule:nonzero;fill:rgb(95.294118%,95.294118%,95.294118%);fill-opacity:1;" d="M 276.472656 320.832031 C 276.472656 326.5625 278.035156 328.125 279.597656 323.957031 C 281.160156 320.3125 280.640625 315.625 279.078125 314.0625 C 277.515625 311.980469 275.953125 315.105469 276.472656 320.832031 Z M 276.472656 320.832031 "/>
<path style=" stroke:none;fill-rule:nonzero;fill:rgb(95.294118%,95.294118%,95.294118%);fill-opacity:1;" d="M 297.300781 326.042969 C 297.300781 331.769531 298.863281 333.332031 300.425781 329.167969 C 301.988281 325.519531 301.464844 320.832031 299.902344 319.269531 C 298.34375 317.1875 296.78125 320.3125 297.300781 326.042969 Z M 297.300781 326.042969 "/>
<path style=" stroke:none;fill-rule:nonzero;fill:rgb(95.294118%,95.294118%,95.294118%);fill-opacity:1;" d="M 549.304688 322.917969 C 550.867188 325.519531 553.46875 328.125 555.03125 328.125 C 556.070312 328.125 557.113281 325.519531 557.113281 322.917969 C 557.113281 319.792969 554.511719 317.707031 551.386719 317.707031 C 548.78125 317.707031 547.742188 319.792969 549.304688 322.917969 Z M 549.304688 322.917969 "/>
<path style=" stroke:none;fill-rule:nonzero;fill:rgb(95.294118%,95.294118%,95.294118%);fill-opacity:1;" d="M 741.949219 322.917969 C 743.511719 325.519531 746.117188 328.125 747.675781 328.125 C 748.71875 328.125 749.761719 325.519531 749.761719 322.917969 C 749.761719 319.792969 747.15625 317.707031 744.03125 317.707031 C 741.429688 317.707031 740.386719 319.792969 741.949219 322.917969 Z M 741.949219 322.917969 "/>
<path style=" stroke:none;fill-rule:nonzero;fill:rgb(95.294118%,95.294118%,95.294118%);fill-opacity:1;" d="M 1026.234375 341.667969 C 1026.234375 347.394531 1027.796875 348.957031 1029.359375 344.792969 C 1030.921875 341.144531 1030.398438 336.457031 1028.835938 334.894531 C 1027.273438 332.8125 1025.714844 335.9375 1026.234375 341.667969 Z M 1026.234375 341.667969 "/>
<path style=" stroke:none;fill-rule:nonzero;fill:rgb(95.294118%,95.294118%,95.294118%);fill-opacity:1;" d="M 168.175781 352.605469 C 172.863281 353.644531 180.152344 353.644531 183.796875 352.605469 C 186.917969 351.042969 183.273438 350 174.421875 350 C 166.09375 350 162.96875 351.042969 168.175781 352.605469 Z M 168.175781 352.605469 "/>
<path style=" stroke:none;fill-rule:nonzero;fill:rgb(95.294118%,95.294118%,95.294118%);fill-opacity:1;" d="M 222.84375 352.605469 C 225.96875 353.644531 232.21875 353.644531 235.863281 352.605469 C 238.984375 351.042969 236.382812 350 229.09375 350 C 221.804688 350 219.199219 351.042969 222.84375 352.605469 Z M 222.84375 352.605469 "/>
<path style=" stroke:none;fill-rule:nonzero;fill:rgb(95.294118%,95.294118%,95.294118%);fill-opacity:1;" d="M 254.085938 352.605469 C 257.210938 353.644531 263.457031 353.644531 267.101562 352.605469 C 270.226562 351.042969 267.621094 350 260.332031 350 C 253.042969 350 250.441406 351.042969 254.085938 352.605469 Z M 254.085938 352.605469 "/>
<path style=" stroke:none;fill-rule:nonzero;fill:rgb(95.294118%,95.294118%,95.294118%);fill-opacity:1;" d="M 316.566406 352.605469 C 320.210938 354.167969 324.894531 353.644531 326.457031 352.082031 C 328.539062 350.519531 325.417969 348.957031 319.6875 349.480469 C 313.960938 349.480469 312.398438 351.042969 316.566406 352.605469 Z M 316.566406 352.605469 "/>
<path style=" stroke:none;fill-rule:nonzero;fill:rgb(95.294118%,95.294118%,95.294118%);fill-opacity:1;" d="M 392.0625 352.605469 C 396.746094 353.644531 405.078125 353.644531 410.285156 352.605469 C 414.972656 351.042969 410.804688 350 400.914062 350 C 391.019531 350 386.855469 351.042969 392.0625 352.605469 Z M 392.0625 352.605469 "/>
<path style=" stroke:none;fill-rule:nonzero;fill:rgb(95.294118%,95.294118%,95.294118%);fill-opacity:1;" d="M 472.765625 352.605469 C 476.410156 354.167969 481.097656 353.644531 482.65625 352.082031 C 484.742188 350.519531 481.617188 348.957031 475.890625 349.480469 C 470.160156 349.480469 468.601562 351.042969 472.765625 352.605469 Z M 472.765625 352.605469 "/>
<path style=" stroke:none;fill-rule:nonzero;fill:rgb(95.294118%,95.294118%,95.294118%);fill-opacity:1;" d="M 519.625 352.605469 C 523.269531 354.167969 527.957031 353.644531 529.519531 352.082031 C 531.601562 350.519531 528.476562 348.957031 522.75 349.480469 C 517.023438 349.480469 515.460938 351.042969 519.625 352.605469 Z M 519.625 352.605469 "/>
<path style=" stroke:none;fill-rule:nonzero;fill:rgb(95.294118%,95.294118%,95.294118%);fill-opacity:1;" d="M 571.691406 352.605469 C 575.335938 354.167969 580.023438 353.644531 581.585938 352.082031 C 583.667969 350.519531 580.542969 348.957031 574.816406 349.480469 C 569.089844 349.480469 567.527344 351.042969 571.691406 352.605469 Z M 571.691406 352.605469 "/>
<path style=" stroke:none;fill-rule:nonzero;fill:rgb(95.294118%,95.294118%,95.294118%);fill-opacity:1;" d="M 615.949219 352.605469 C 623.757812 353.644531 635.214844 353.644531 641.980469 352.605469 C 648.230469 351.5625 641.980469 350.519531 627.402344 350.519531 C 613.34375 350.519531 607.617188 351.5625 615.949219 352.605469 Z M 615.949219 352.605469 "/>
<path style=" stroke:none;fill-rule:nonzero;fill:rgb(95.294118%,95.294118%,95.294118%);fill-opacity:1;" d="M 1180.871094 352.605469 C 1183.996094 353.644531 1190.242188 353.644531 1193.886719 352.605469 C 1197.011719 351.042969 1194.410156 350 1187.121094 350 C 1179.832031 350 1177.226562 351.042969 1180.871094 352.605469 Z M 1180.871094 352.605469 "/>
<path style=" stroke:none;fill-rule:nonzero;fill:rgb(95.294118%,95.294118%,95.294118%);fill-opacity:1;" d="M 1258.972656 352.605469 C 1262.617188 354.167969 1267.300781 353.644531 1268.863281 352.082031 C 1270.949219 350.519531 1267.824219 348.957031 1262.097656 349.480469 C 1256.367188 349.480469 1254.808594 351.042969 1258.972656 352.605469 Z M 1258.972656 352.605469 "/>
<path style=" stroke:none;fill-rule:nonzero;fill:rgb(95.294118%,95.294118%,95.294118%);fill-opacity:1;" d="M 973.648438 370.3125 C 973.648438 372.917969 976.25 373.957031 978.851562 372.394531 C 981.976562 370.832031 984.058594 368.230469 984.058594 366.667969 C 984.058594 365.625 981.976562 364.582031 978.851562 364.582031 C 976.25 364.582031 973.648438 367.1875 973.648438 370.3125 Z M 973.648438 370.3125 "/>
<path style=" stroke:none;fill-rule:nonzero;fill:rgb(95.294118%,95.294118%,95.294118%);fill-opacity:1;" d="M 397.269531 373.4375 C 401.953125 374.480469 409.242188 374.480469 412.886719 373.4375 C 416.011719 371.875 412.367188 370.832031 403.515625 370.832031 C 395.1875 370.832031 392.0625 371.875 397.269531 373.4375 Z M 397.269531 373.4375 "/>
<path style=" stroke:none;fill-rule:nonzero;fill:rgb(95.294118%,95.294118%,95.294118%);fill-opacity:1;" d="M 472.765625 373.4375 C 476.410156 375 481.097656 374.480469 482.65625 372.917969 C 484.742188 371.355469 481.617188 369.792969 475.890625 370.3125 C 470.160156 370.3125 468.601562 371.875 472.765625 373.4375 Z M 472.765625 373.4375 "/>
<path style=" stroke:none;fill-rule:nonzero;fill:rgb(95.294118%,95.294118%,95.294118%);fill-opacity:1;" d="M 519.625 373.4375 C 523.269531 375 527.957031 374.480469 529.519531 372.917969 C 531.601562 371.355469 528.476562 369.792969 522.75 370.3125 C 517.023438 370.3125 515.460938 371.875 519.625 373.4375 Z M 519.625 373.4375 "/>
<path style=" stroke:none;fill-rule:nonzero;fill:rgb(95.294118%,95.294118%,95.294118%);fill-opacity:1;" d="M 571.691406 373.4375 C 575.335938 375 580.023438 374.480469 581.585938 372.917969 C 583.667969 371.355469 580.542969 369.792969 574.816406 370.3125 C 569.089844 370.3125 567.527344 371.875 571.691406 373.4375 Z M 571.691406 373.4375 "/>
<path style=" stroke:none;fill-rule:nonzero;fill:rgb(95.294118%,95.294118%,95.294118%);fill-opacity:1;" d="M 618.550781 373.4375 C 624.800781 374.480469 634.171875 374.480469 639.378906 373.4375 C 644.066406 371.875 638.859375 370.832031 627.402344 371.355469 C 615.949219 371.355469 611.785156 372.394531 618.550781 373.4375 Z M 618.550781 373.4375 "/>
<path style=" stroke:none;fill-rule:nonzero;fill:rgb(95.294118%,95.294118%,95.294118%);fill-opacity:1;" d="M 812.761719 409.375 C 812.761719 415.105469 814.324219 416.667969 815.882812 412.5 C 817.445312 408.855469 816.925781 404.167969 815.363281 402.605469 C 813.800781 400.519531 812.238281 403.644531 812.761719 409.375 Z M 812.761719 409.375 "/>
<path style=" stroke:none;fill-rule:nonzero;fill:rgb(95.294118%,95.294118%,95.294118%);fill-opacity:1;" d="M 904.917969 435.9375 C 908.5625 437.5 913.25 436.980469 914.8125 435.417969 C 916.894531 433.855469 913.769531 432.292969 908.042969 432.8125 C 902.316406 432.8125 900.753906 434.375 904.917969 435.9375 Z M 904.917969 435.9375 "/>
</g>
</svg>
