<?xml version="1.0" encoding="UTF-8"?>
<svg xmlns="http://www.w3.org/2000/svg" xmlns:xlink="http://www.w3.org/1999/xlink" width="625px" height="200px" viewBox="0 0 625 200" version="1.1">
<g id="surface1">
<path style=" stroke:none;fill-rule:nonzero;fill:rgb(95.294118%,95.294118%,95.294118%);fill-opacity:1;" d="M 326.667969 26.457031 C 327.917969 26.875 330.417969 26.875 331.875 26.457031 C 333.125 25.832031 332.082031 25.417969 329.167969 25.417969 C 326.25 25.417969 325.207031 25.832031 326.667969 26.457031 Z M 326.667969 26.457031 "/>
<path style=" stroke:none;fill-rule:nonzero;fill:rgb(95.294118%,95.294118%,95.294118%);fill-opacity:1;" d="M 326.25 34.792969 C 325.625 36.875 325 44.582031 324.582031 52.082031 L 324.167969 65.625 L 340.207031 88.957031 C 348.957031 101.667969 356.25 112.707031 356.25 113.125 C 356.25 113.75 349.792969 122.917969 341.875 133.332031 C 326.457031 153.957031 326.457031 153.332031 333.332031 169.792969 C 334.167969 172.082031 335.625 175.625 336.25 177.707031 C 337.292969 181.042969 337.917969 181.042969 343.125 178.542969 C 346.457031 176.875 353.542969 173.542969 358.957031 171.042969 C 367.917969 166.875 369.792969 165 374.582031 153.957031 L 380.207031 141.457031 L 392.292969 142.292969 C 400.417969 143.125 404.582031 142.5 405.207031 141.042969 C 405.625 139.582031 406.457031 136.042969 407.082031 132.917969 C 407.917969 128.957031 413.125 123.542969 423.957031 115.417969 L 439.582031 103.75 L 439.582031 75.625 L 423.75 74.375 C 408.957031 73.125 407.5 73.332031 400.832031 78.332031 C 396.875 81.457031 393.75 82.917969 393.75 81.667969 C 393.75 80.417969 392.917969 77.082031 391.875 74.375 C 390 69.582031 389.375 69.375 382.917969 71.667969 C 379.167969 72.917969 374.792969 74.792969 373.125 75.832031 C 371.042969 77.082031 370.625 77.082031 371.667969 75.207031 C 373.125 72.917969 362.082031 48.75 357.707031 44.582031 C 355.625 42.707031 330.417969 31.25 328.125 31.25 C 327.707031 31.25 326.875 32.917969 326.25 34.792969 Z M 345.417969 44.792969 C 353.332031 48.125 355.207031 50 361.667969 63.75 C 367.707031 76.457031 368.542969 79.792969 366.667969 83.542969 C 365.207031 85.832031 364.792969 88.332031 365.207031 88.957031 C 365.832031 89.375 366.875 87.917969 367.707031 85.625 C 368.332031 83.125 370.417969 81.25 372.292969 81.25 C 373.957031 81.25 377.707031 79.375 380.625 77.082031 C 387.707031 71.667969 389.582031 71.875 389.582031 78.125 C 389.582031 81.042969 391.042969 83.957031 392.707031 84.582031 C 395.207031 85.625 395.417969 86.667969 393.542969 88.75 C 390.207031 92.707031 387.292969 92.5 388.957031 88.125 C 389.792969 85.832031 389.582031 85.207031 387.707031 86.25 C 386.25 87.292969 385.625 89.167969 386.25 90.625 C 386.667969 92.082031 386.042969 94.375 384.792969 95.625 C 380.207031 100.207031 379.375 97.707031 382.707031 88.332031 C 387.5 74.582031 384.582031 74.792969 379.375 88.75 C 372.917969 105.832031 376.042969 106.667969 392.917969 92.917969 C 406.25 82.292969 408.125 81.25 418.125 81.25 C 423.957031 81.25 429.582031 80.207031 430.207031 79.167969 C 433.332031 73.957031 435.417969 78.125 435.417969 90.207031 L 435.417969 103.332031 L 421.042969 113.957031 C 407.5 123.957031 406.667969 124.375 403.542969 120.832031 C 400.625 117.292969 401.042969 116.667969 407.082031 110.625 C 410.832031 107.082031 414.582031 104.792969 415.625 105.625 C 416.457031 106.667969 416.667969 106.042969 415.625 104.582031 C 414.582031 102.707031 417.5 98.332031 424.167969 91.457031 C 429.792969 85.832031 433.125 81.25 431.875 81.25 C 430.625 81.25 422.082031 89.375 412.917969 99.375 C 398.125 115.625 396.457031 118.125 399.167969 121.042969 C 402.082031 124.167969 403.332031 133.332031 400.832031 133.332031 C 400 133.332031 393.75 128.542969 386.457031 122.917969 C 373.542969 112.292969 368.125 103.75 352.707031 69.167969 C 349.167969 60.832031 346.875 58.332031 344.582031 59.167969 C 342.707031 59.792969 338.332031 60.417969 335 60.417969 C 331.457031 60.417969 329.167969 61.042969 330 61.875 C 330.832031 62.707031 334.792969 63.125 338.542969 62.707031 L 345.832031 62.082031 L 358.542969 88.542969 C 370 112.082031 372.5 115.625 382.5 123.332031 C 393.957031 131.875 396.457031 134.792969 390.417969 132.5 C 388.75 131.875 387.917969 132.082031 388.542969 133.332031 C 389.167969 134.582031 392.5 135.417969 396.042969 135.417969 C 399.375 135.417969 402.082031 136.457031 402.082031 137.707031 C 402.082031 139.375 398.542969 139.792969 390.625 138.75 L 379.167969 137.5 L 373.125 151.042969 C 369.582031 158.75 365.625 164.582031 363.75 164.582031 C 362.082031 164.582031 360.417969 165.207031 360 166.042969 C 359.375 167.5 340.625 177.082031 338.542969 177.082031 C 337.917969 177.082031 337.5 176.042969 337.5 175 C 337.5 173.75 338.75 172.917969 340.207031 172.917969 C 341.875 172.917969 347.292969 166.042969 352.5 157.707031 C 357.917969 149.375 364.167969 140.417969 366.667969 137.707031 C 372.292969 130.832031 373.957031 123.75 371.042969 117.5 C 369.375 113.75 367.5 112.5 365 113.332031 C 362.292969 114.375 358.125 109.792969 346.875 93.125 C 338.75 81.457031 332.5 70.625 332.5 69.375 C 332.707031 67.917969 332.082031 67.292969 331.042969 67.917969 C 328.125 69.582031 326.25 62.5 328.957031 59.792969 C 330.207031 58.542969 331.25 53.332031 331.25 48.332031 C 331.25 41.875 332.082031 39.375 333.957031 40.207031 C 335.207031 40.832031 340.417969 42.917969 345.417969 44.792969 Z M 328.542969 52.5 C 327.917969 53.957031 327.5 52.917969 327.5 50 C 327.5 47.082031 327.917969 46.042969 328.542969 47.292969 C 328.957031 48.75 328.957031 51.25 328.542969 52.5 Z M 369.375 121.042969 C 370.207031 123.957031 366.667969 130.832031 358.542969 143.332031 C 351.875 153.332031 345.207031 163.75 343.75 166.457031 L 341.25 171.457031 L 338.125 164.582031 C 336.667969 160.625 335.625 156.25 335.832031 154.582031 C 337.082031 148.75 361.457031 116.875 364.792969 116.875 C 366.667969 116.667969 368.75 118.542969 369.375 121.042969 Z M 369.375 121.042969 "/>
<path style=" stroke:none;fill-rule:nonzero;fill:rgb(95.294118%,95.294118%,95.294118%);fill-opacity:1;" d="M 337.082031 55.625 C 338.542969 56.25 340.417969 56.042969 341.042969 55.417969 C 341.875 54.792969 340.625 54.167969 338.332031 54.375 C 336.042969 54.375 335.417969 55 337.082031 55.625 Z M 337.082031 55.625 "/>
<path style=" stroke:none;fill-rule:nonzero;fill:rgb(95.294118%,95.294118%,95.294118%);fill-opacity:1;" d="M 354.375 61.667969 C 354.375 63.957031 355 64.582031 355.625 62.917969 C 356.25 61.457031 356.042969 59.582031 355.417969 58.957031 C 354.792969 58.125 354.167969 59.375 354.375 61.667969 Z M 354.375 61.667969 "/>
<path style=" stroke:none;fill-rule:nonzero;fill:rgb(95.294118%,95.294118%,95.294118%);fill-opacity:1;" d="M 357.5 69.375 C 358.125 71.457031 359.375 72.5 360 71.875 C 360.625 71.25 360 69.582031 358.542969 68.125 C 356.457031 66.25 356.25 66.457031 357.5 69.375 Z M 357.5 69.375 "/>
<path style=" stroke:none;fill-rule:nonzero;fill:rgb(95.294118%,95.294118%,95.294118%);fill-opacity:1;" d="M 353.125 93.75 C 352.5 94.792969 352.917969 95.832031 353.957031 95.832031 C 355.207031 95.832031 356.25 94.792969 356.25 93.75 C 356.25 92.5 355.832031 91.667969 355.417969 91.667969 C 354.792969 91.667969 353.75 92.5 353.125 93.75 Z M 353.125 93.75 "/>
<path style=" stroke:none;fill-rule:nonzero;fill:rgb(95.294118%,95.294118%,95.294118%);fill-opacity:1;" d="M 361.457031 108.332031 C 362.082031 109.375 363.75 110.417969 364.792969 110.417969 C 366.042969 110.417969 366.25 109.375 365.625 108.332031 C 365 107.082031 363.332031 106.25 362.292969 106.25 C 361.042969 106.25 360.832031 107.082031 361.457031 108.332031 Z M 361.457031 108.332031 "/>
<path style=" stroke:none;fill-rule:nonzero;fill:rgb(95.294118%,95.294118%,95.294118%);fill-opacity:1;" d="M 376.042969 108.332031 C 376.667969 109.375 377.707031 110.417969 378.332031 110.417969 C 378.75 110.417969 379.167969 109.375 379.167969 108.332031 C 379.167969 107.082031 378.125 106.25 376.875 106.25 C 375.832031 106.25 375.417969 107.082031 376.042969 108.332031 Z M 376.042969 108.332031 "/>
<path style=" stroke:none;fill-rule:nonzero;fill:rgb(95.294118%,95.294118%,95.294118%);fill-opacity:1;" d="M 381.25 113.332031 C 381.25 113.75 382.917969 115.417969 385 116.875 C 388.125 119.582031 388.332031 119.375 385.625 116.042969 C 382.917969 112.707031 381.25 111.667969 381.25 113.332031 Z M 381.25 113.332031 "/>
<path style=" stroke:none;fill-rule:nonzero;fill:rgb(95.294118%,95.294118%,95.294118%);fill-opacity:1;" d="M 377.082031 125.207031 C 377.082031 126.25 378.125 126.667969 379.167969 126.042969 C 380.417969 125.417969 381.25 124.375 381.25 123.75 C 381.25 123.332031 380.417969 122.917969 379.167969 122.917969 C 378.125 122.917969 377.082031 123.957031 377.082031 125.207031 Z M 377.082031 125.207031 "/>
<path style=" stroke:none;fill-rule:nonzero;fill:rgb(95.294118%,95.294118%,95.294118%);fill-opacity:1;" d="M 351.042969 166.667969 C 350.417969 167.707031 350.832031 168.75 351.875 168.75 C 353.125 168.75 354.167969 167.707031 354.167969 166.667969 C 354.167969 165.417969 353.75 164.582031 353.332031 164.582031 C 352.707031 164.582031 351.667969 165.417969 351.042969 166.667969 Z M 351.042969 166.667969 "/>
<path style=" stroke:none;fill-rule:nonzero;fill:rgb(95.294118%,95.294118%,95.294118%);fill-opacity:1;" d="M 313.125 46.875 C 313.125 51.457031 313.542969 53.125 313.957031 50.417969 C 314.375 47.917969 314.375 44.167969 313.957031 42.082031 C 313.332031 40.207031 312.917969 42.292969 313.125 46.875 Z M 313.125 46.875 "/>
<path style=" stroke:none;fill-rule:nonzero;fill:rgb(95.294118%,95.294118%,95.294118%);fill-opacity:1;" d="M 321.042969 45 C 321.042969 47.292969 321.667969 47.917969 322.292969 46.25 C 322.917969 44.792969 322.707031 42.917969 322.082031 42.292969 C 321.457031 41.457031 320.832031 42.707031 321.042969 45 Z M 321.042969 45 "/>
<path style=" stroke:none;fill-rule:nonzero;fill:rgb(95.294118%,95.294118%,95.294118%);fill-opacity:1;" d="M 72.5 68.125 C 73.957031 68.75 75.832031 68.542969 76.457031 67.917969 C 77.292969 67.292969 76.042969 66.667969 73.75 66.875 C 71.457031 66.875 70.832031 67.5 72.5 68.125 Z M 72.5 68.125 "/>
<path style=" stroke:none;fill-rule:nonzero;fill:rgb(95.294118%,95.294118%,95.294118%);fill-opacity:1;" d="M 475.625 72.292969 C 477.5 72.707031 480.417969 72.707031 481.875 72.292969 C 483.125 71.667969 481.667969 71.25 478.125 71.25 C 474.792969 71.25 473.542969 71.667969 475.625 72.292969 Z M 475.625 72.292969 "/>
<path style=" stroke:none;fill-rule:nonzero;fill:rgb(95.294118%,95.294118%,95.294118%);fill-opacity:1;" d="M 498.542969 72.292969 C 500.417969 72.707031 503.75 72.707031 505.832031 72.292969 C 507.707031 71.667969 506.042969 71.25 502.082031 71.25 C 498.125 71.25 496.457031 71.667969 498.542969 72.292969 Z M 498.542969 72.292969 "/>
<path style=" stroke:none;fill-rule:nonzero;fill:rgb(95.294118%,95.294118%,95.294118%);fill-opacity:1;" d="M 153.542969 80.832031 C 147.707031 87.292969 149.167969 97.292969 157.5 108.75 C 164.792969 118.957031 166.042969 126.875 161.042969 128.75 C 159.167969 129.167969 158.332031 127.292969 158.332031 123.125 C 158.332031 118.125 157.5 116.667969 154.167969 116.667969 C 150.832031 116.667969 150 118.125 150 123.542969 C 150 127.292969 151.042969 131.457031 152.5 132.917969 C 156.25 136.667969 168.125 136.042969 169.582031 132.082031 C 172.5 124.375 170.625 113.957031 164.792969 105.625 C 157.707031 95.625 155.625 86.457031 160.417969 86.457031 C 162.292969 86.457031 163.75 88.75 164.167969 92.082031 C 165.207031 100.832031 170.832031 99.582031 170.832031 90.832031 C 170.832031 78.542969 160.625 72.917969 153.542969 80.832031 Z M 168.332031 85.625 C 169.167969 87.917969 168.75 88.125 166.457031 85.832031 C 158.75 78.75 151.042969 88.125 156.457031 98.332031 C 158.75 102.707031 158.75 102.917969 155.625 100.207031 C 148.125 94.167969 154.375 77.917969 162.917969 81.042969 C 165.417969 81.875 167.917969 83.957031 168.332031 85.625 Z M 168.75 122.292969 C 168.75 125.832031 167.917969 129.375 167.082031 130 C 166.25 130.417969 165.832031 127.707031 166.25 123.75 C 166.875 119.375 166.042969 115.207031 164.167969 112.917969 C 162.5 111.042969 160.417969 107.917969 159.582031 106.25 C 158.75 104.582031 160.417969 105.832031 163.332031 109.375 C 166.667969 113.332031 168.75 118.125 168.75 122.292969 Z M 160 131.457031 C 162.292969 131.457031 162.707031 131.875 160.832031 132.707031 C 157.082031 134.167969 152.082031 129.375 152.292969 124.167969 C 152.292969 120.417969 152.707031 120.625 154.582031 125.417969 C 155.625 128.75 158.125 131.25 160 131.457031 Z M 160 131.457031 "/>
<path style=" stroke:none;fill-rule:nonzero;fill:rgb(95.294118%,95.294118%,95.294118%);fill-opacity:1;" d="M 177.082031 81.667969 C 177.082031 84.167969 178.75 85.417969 182.292969 85.417969 L 187.5 85.417969 L 187.5 110.417969 C 187.5 131.25 188.125 135.417969 190.625 135.417969 C 193.332031 135.417969 193.75 131.25 193.75 110.417969 L 193.75 85.417969 L 198.957031 85.417969 C 202.5 85.417969 204.167969 84.167969 204.167969 81.667969 C 204.167969 78.75 202.082031 78.125 190.625 78.125 C 179.167969 78.125 177.082031 78.75 177.082031 81.667969 Z M 197.917969 83.125 C 192.917969 84.582031 192.707031 85 191.667969 108.332031 L 190.832031 132.292969 L 189.582031 108.332031 C 188.542969 85.207031 188.332031 84.582031 183.332031 83.125 C 179.792969 82.082031 182.292969 81.667969 190.625 81.667969 C 198.957031 81.667969 201.457031 82.082031 197.917969 83.125 Z M 197.917969 83.125 "/>
<path style=" stroke:none;fill-rule:nonzero;fill:rgb(95.294118%,95.294118%,95.294118%);fill-opacity:1;" d="M 213.75 83.125 C 212.292969 90 206.25 130.625 206.25 133.332031 C 206.25 134.375 208.125 135.417969 210.417969 135.417969 C 213.957031 135.417969 214.582031 133.957031 214.582031 126.042969 C 214.582031 117.5 215 116.667969 219.792969 116.667969 C 224.167969 116.667969 225 117.707031 225 122.707031 C 225 130.832031 226.875 135.417969 230.417969 135.417969 C 234.167969 135.417969 234.167969 134.792969 229.167969 107.292969 C 226.875 94.582031 225 83.332031 225 82.082031 C 225 80.625 222.707031 79.167969 219.792969 78.75 C 215.625 77.917969 214.582031 78.75 213.75 83.125 Z M 221.667969 95.417969 C 221.875 104.792969 221.25 108.332031 219.375 108.332031 C 217.292969 108.332031 216.875 106.042969 217.917969 99.375 C 218.542969 94.582031 219.375 89.375 220 87.917969 C 220.417969 86.667969 219.792969 85.417969 218.75 85.417969 C 217.5 85.417969 216.667969 84.375 216.667969 83.125 C 216.667969 81.875 217.707031 81.25 219.167969 81.667969 C 220.417969 82.082031 221.667969 87.707031 221.667969 95.417969 Z M 217.082031 110.625 C 218.125 111.457031 217.707031 112.5 215.832031 113.125 C 213.125 114.167969 212.5 112.917969 212.707031 106.667969 C 212.917969 100.832031 213.332031 100.207031 213.957031 104.167969 C 214.582031 107.082031 215.832031 110 217.082031 110.625 Z M 227.082031 111.667969 C 227.082031 113.332031 226.042969 114.167969 225 113.542969 C 223.75 112.707031 223.332031 111.25 223.957031 110.207031 C 225.832031 107.292969 227.082031 107.917969 227.082031 111.667969 Z M 227.082031 111.667969 "/>
<path style=" stroke:none;fill-rule:nonzero;fill:rgb(95.294118%,95.294118%,95.294118%);fill-opacity:1;" d="M 241.667969 106.457031 L 241.667969 135.417969 L 251.042969 135.417969 C 258.957031 135.417969 260.417969 134.792969 260.417969 131.25 C 260.417969 127.707031 259.375 127.292969 255.207031 128.332031 L 250 129.582031 L 250 104.582031 C 250 81.457031 249.792969 79.582031 245.832031 78.542969 C 241.875 77.5 241.667969 78.542969 241.667969 106.457031 Z M 246.25 113.125 C 246.667969 124.167969 246.25 133.332031 245.417969 133.332031 C 244.375 133.332031 243.957031 121.457031 244.167969 106.667969 C 244.375 78.125 245.417969 80.625 246.25 113.125 Z M 246.25 113.125 "/>
<path style=" stroke:none;fill-rule:nonzero;fill:rgb(95.294118%,95.294118%,95.294118%);fill-opacity:1;" d="M 470.832031 106.25 C 470.832031 134.582031 471.042969 135.417969 475.207031 135.417969 C 479.582031 135.417969 479.582031 134.792969 478.332031 115 C 477.707031 103.957031 476.667969 91.25 475.832031 86.875 C 474.582031 79.792969 475 78.75 478.332031 79.582031 C 481.25 80 482.917969 83.332031 484.792969 93.75 C 486.042969 101.25 488.125 109.582031 489.582031 112.5 L 491.875 117.707031 L 490.625 112.5 C 490 109.582031 488.542969 100.417969 487.292969 92.082031 L 485 77.082031 L 470.832031 77.082031 Z M 470.832031 106.25 "/>
<path style=" stroke:none;fill-rule:nonzero;fill:rgb(95.294118%,95.294118%,95.294118%);fill-opacity:1;" d="M 493.75 81.667969 C 493.75 84.375 493.332031 91.667969 492.707031 97.917969 C 492.082031 106.042969 492.292969 107.917969 493.542969 104.167969 L 495.417969 98.957031 L 495.417969 104.167969 C 495.625 113.125 490.417969 134.375 488.957031 130.832031 C 488.332031 128.957031 486.667969 119.792969 485.207031 110.625 C 483.75 101.25 482.082031 93.75 481.25 93.75 C 480.625 93.75 481.457031 103.125 483.125 114.375 C 485.625 130.417969 487.082031 135.417969 489.792969 136.042969 C 492.707031 136.875 493.75 134.167969 495.832031 120.625 C 497.292969 111.457031 497.917969 100.417969 497.082031 95.832031 C 495.832031 88.125 498.332031 84.167969 500.625 90 C 501.25 91.457031 501.875 90.625 501.875 87.917969 C 502.082031 85.207031 501.25 83.75 500 84.375 C 498.957031 85 497.917969 84.375 497.917969 82.917969 C 497.917969 81.25 499.582031 80 501.875 79.792969 C 505.207031 79.582031 505.625 81.042969 505.625 94.375 C 505.625 106.667969 505.417969 107.917969 504.167969 101.042969 C 503.125 94.582031 502.707031 97.5 501.875 114.167969 C 501.042969 133.332031 501.457031 135.417969 504.792969 135.417969 C 507.917969 135.417969 508.332031 132.707031 508.332031 106.25 L 508.332031 77.082031 L 501.042969 77.082031 C 494.792969 77.082031 493.75 77.707031 493.75 81.667969 Z M 493.75 81.667969 "/>
<path style=" stroke:none;fill-rule:nonzero;fill:rgb(95.294118%,95.294118%,95.294118%);fill-opacity:1;" d="M 520 101.457031 C 518.125 115 516.042969 128.332031 515.417969 131.25 C 514.582031 135.625 515.207031 136.667969 518.75 136.667969 C 521.875 136.667969 522.917969 135.207031 522.917969 131.25 C 522.917969 122.082031 525.417969 116.667969 529.167969 116.667969 C 533.332031 116.667969 535.417969 120.625 535.417969 129.167969 C 535.417969 133.332031 536.667969 135.207031 539.792969 136.042969 C 543.542969 137.082031 543.957031 136.457031 543.332031 131.667969 C 542.707031 128.542969 540.625 115 538.332031 101.457031 C 534.582031 77.5 534.375 77.082031 529.167969 77.082031 C 523.75 77.082031 523.542969 77.5 520 101.457031 Z M 531.25 83.332031 C 531.25 84.375 529.792969 85.417969 527.917969 85.417969 C 526.25 85.417969 525.417969 84.375 526.042969 83.332031 C 526.667969 82.082031 528.125 81.25 529.375 81.25 C 530.417969 81.25 531.25 82.082031 531.25 83.332031 Z M 531.25 95.832031 C 531.25 100.625 532.707031 106.667969 534.792969 109.582031 C 538.125 114.792969 538.125 114.792969 532.5 113.332031 C 529.375 112.707031 525.832031 113.125 524.167969 114.375 C 521.667969 116.457031 521.25 115.207031 522.292969 105.832031 C 523.542969 92.707031 524.792969 90.207031 525.207031 100.207031 C 525.625 107.292969 525.625 107.292969 526.875 98.957031 C 527.5 94.167969 527.292969 90 526.042969 89.167969 C 524.792969 88.125 525.625 87.5 527.707031 87.5 C 530.417969 87.5 531.25 89.375 531.25 95.832031 Z M 538.957031 127.5 C 538.332031 128.957031 537.917969 127.917969 537.917969 125 C 537.917969 122.082031 538.332031 121.042969 538.957031 122.292969 C 539.375 123.75 539.375 126.25 538.957031 127.5 Z M 538.957031 127.5 "/>
<path style=" stroke:none;fill-rule:nonzero;fill:rgb(95.294118%,95.294118%,95.294118%);fill-opacity:1;" d="M 524.582031 108.75 C 525.832031 110 528.332031 110.417969 530.417969 110 C 533.332031 109.375 532.917969 108.957031 528.542969 107.917969 C 524.582031 107.292969 523.332031 107.5 524.582031 108.75 Z M 524.582031 108.75 "/>
<path style=" stroke:none;fill-rule:nonzero;fill:rgb(95.294118%,95.294118%,95.294118%);fill-opacity:1;" d="M 552.082031 77.707031 C 552.082031 78.125 554.375 86.25 557.292969 95.832031 C 560.207031 105.625 562.5 118.542969 562.5 125.207031 C 562.5 135.207031 563.125 137.082031 566.042969 136.667969 C 568.957031 136.25 569.582031 134.167969 569.167969 125.832031 C 568.75 117.082031 573.957031 96.25 580.207031 80.625 C 581.25 77.917969 580.625 77.082031 577.292969 77.082031 C 572.5 77.082031 568.75 83.957031 568.75 92.917969 C 568.75 101.457031 565.625 98.542969 562.707031 87.5 C 560.625 79.582031 559.167969 77.082031 556.042969 77.082031 C 553.957031 77.082031 552.082031 77.292969 552.082031 77.707031 Z M 575.625 85.417969 C 575 87.917969 573.957031 89.375 573.332031 88.75 C 572.292969 87.5 574.375 81.25 575.832031 81.25 C 576.25 81.25 576.25 83.125 575.625 85.417969 Z M 568.542969 99.582031 C 570.832031 97.292969 571.042969 97.707031 569.792969 102.082031 C 568.75 105 567.5 112.5 566.667969 118.75 L 565.207031 130.207031 L 564.792969 118.542969 C 564.792969 112.082031 563.125 103.332031 561.457031 99.375 C 557.082031 88.957031 557.707031 84.582031 562.082031 94.375 C 565 100.832031 566.042969 101.875 568.542969 99.582031 Z M 568.542969 99.582031 "/>
<path style=" stroke:none;fill-rule:nonzero;fill:rgb(95.294118%,95.294118%,95.294118%);fill-opacity:1;" d="M 61.667969 82.5 C 58.957031 85 58.332031 90.417969 58.332031 107.082031 C 58.332031 125.207031 58.957031 128.957031 62.082031 131.875 C 70 138.957031 79.167969 135 79.167969 124.582031 C 79.167969 117.707031 73.542969 116.457031 72.5 122.917969 C 72.082031 125.417969 71.042969 127.5 69.792969 127.707031 C 66.875 128.332031 65.832031 89.582031 68.542969 86.875 C 70 85.417969 71.25 86.042969 72.292969 88.75 C 74.582031 94.375 79.167969 94.582031 79.167969 88.957031 C 79.167969 79.582031 68.332031 75.625 61.667969 82.5 Z M 74.582031 83.75 C 76.042969 85.207031 77.082031 87.082031 77.082031 88.332031 C 77.082031 89.375 75.832031 88.542969 74.167969 86.25 C 71.457031 82.707031 70.625 82.5 66.25 85.207031 C 61.875 87.917969 61.667969 87.917969 64.375 84.792969 C 67.707031 80.625 71.042969 80.207031 74.582031 83.75 Z M 74.582031 83.75 "/>
<path style=" stroke:none;fill-rule:nonzero;fill:rgb(95.294118%,95.294118%,95.294118%);fill-opacity:1;" d="M 87.5 107.292969 C 87.5 133.957031 87.707031 135.417969 91.667969 135.417969 C 96.457031 135.417969 96.667969 134.375 93.542969 125.207031 C 91.875 120.417969 91.875 117.917969 93.75 115.832031 C 96.042969 112.707031 95.417969 92.082031 92.5 84.792969 C 91.457031 82.082031 92.292969 81.25 96.25 81.25 C 98.957031 81.25 102.292969 82.292969 103.75 83.75 C 106.457031 86.457031 107.292969 115.832031 104.792969 117.292969 C 103.75 117.917969 103.125 110.625 103.125 101.457031 C 103.125 84.792969 102.917969 84.375 97.917969 83.957031 C 92.707031 83.332031 92.707031 83.332031 97.5 85.417969 C 101.667969 87.082031 102.082031 88.75 102.082031 101.875 C 102.082031 115.207031 101.667969 116.457031 97.5 117.292969 L 92.707031 118.125 L 97.5 118.542969 C 101.042969 118.75 102.082031 120 101.875 124.375 C 101.875 130 101.667969 130 100 125.417969 C 98.957031 122.917969 96.875 120.832031 95.417969 120.832031 C 93.542969 120.832031 93.332031 121.457031 95 122.5 C 96.25 123.332031 97.917969 126.457031 98.75 129.582031 C 99.582031 133.542969 101.457031 135.417969 104.375 135.417969 C 108.542969 135.417969 108.75 133.957031 104.792969 123.75 C 104.375 122.292969 104.792969 120.625 106.042969 119.792969 C 109.167969 117.917969 108.957031 84.792969 105.832031 81.667969 C 104.375 80.207031 99.792969 79.167969 95.417969 79.167969 L 87.5 79.167969 Z M 87.5 107.292969 "/>
<path style=" stroke:none;fill-rule:nonzero;fill:rgb(95.294118%,95.294118%,95.294118%);fill-opacity:1;" d="M 115.417969 82.707031 C 115.832031 84.792969 118.332031 93.332031 120.832031 101.875 C 123.542969 110.832031 125 121.25 124.582031 126.457031 C 123.957031 133.957031 124.582031 135.417969 127.5 135.417969 C 130.625 135.417969 131.25 133.332031 131.25 122.292969 C 131.25 115 132.082031 108.332031 132.917969 107.082031 C 133.957031 106.042969 135.832031 101.042969 137.292969 95.832031 C 138.75 90.625 140.417969 84.792969 140.832031 82.707031 C 141.667969 80.207031 140.832031 79.167969 137.707031 79.167969 C 134.792969 79.167969 133.125 80.832031 132.082031 84.792969 C 131.457031 88.125 130.417969 92.082031 129.792969 93.75 C 129.167969 95.417969 128.75 104.792969 128.75 114.582031 L 128.75 132.292969 L 127.082031 118.75 C 126.25 111.25 124.582031 102.5 123.125 99.375 C 119.792969 91.042969 120.417969 87.292969 123.957031 94.792969 C 127.5 102.5 127.917969 98.125 124.582031 87.292969 C 122.917969 81.457031 121.042969 79.167969 118.332031 79.167969 C 115.417969 79.167969 114.582031 80.207031 115.417969 82.707031 Z M 133.542969 97.082031 C 132.5 100.417969 131.457031 101.457031 131.457031 99.582031 C 131.25 95.832031 133.542969 88.957031 134.582031 90.207031 C 135 90.417969 134.375 93.542969 133.542969 97.082031 Z M 133.542969 97.082031 "/>
<path style=" stroke:none;fill-rule:nonzero;fill:rgb(95.294118%,95.294118%,95.294118%);fill-opacity:1;" d="M 144.792969 83.332031 C 143.957031 85.832031 143.75 88.332031 144.375 88.957031 C 145 89.375 146.042969 87.917969 146.875 85.417969 C 147.707031 82.917969 147.917969 80.417969 147.292969 79.792969 C 146.667969 79.375 145.625 80.832031 144.792969 83.332031 Z M 144.792969 83.332031 "/>
<path style=" stroke:none;fill-rule:nonzero;fill:rgb(95.294118%,95.294118%,95.294118%);fill-opacity:1;" d="M 207.707031 80.625 C 206.875 81.25 206.25 83.332031 206.25 85.207031 C 206.457031 87.917969 206.875 87.917969 208.542969 84.792969 C 210.832031 80.832031 210.207031 77.917969 207.707031 80.625 Z M 207.707031 80.625 "/>
<path style=" stroke:none;fill-rule:nonzero;fill:rgb(95.294118%,95.294118%,95.294118%);fill-opacity:1;" d="M 444.167969 84.375 C 444.167969 87.707031 444.582031 88.957031 445.207031 86.875 C 445.625 85 445.625 82.082031 445.207031 80.625 C 444.582031 79.375 444.167969 80.832031 444.167969 84.375 Z M 444.167969 84.375 "/>
<path style=" stroke:none;fill-rule:nonzero;fill:rgb(95.294118%,95.294118%,95.294118%);fill-opacity:1;" d="M 540 85.417969 C 540 89.375 540.417969 91.042969 541.042969 88.957031 C 541.457031 87.082031 541.457031 83.75 541.042969 81.667969 C 540.417969 79.792969 540 81.457031 540 85.417969 Z M 540 85.417969 "/>
<path style=" stroke:none;fill-rule:nonzero;fill:rgb(95.294118%,95.294118%,95.294118%);fill-opacity:1;" d="M 229.375 84.582031 C 229.375 86.875 230 87.5 230.625 85.832031 C 231.25 84.375 231.042969 82.5 230.417969 81.875 C 229.792969 81.042969 229.167969 82.292969 229.375 84.582031 Z M 229.375 84.582031 "/>
<path style=" stroke:none;fill-rule:nonzero;fill:rgb(95.294118%,95.294118%,95.294118%);fill-opacity:1;" d="M 235.832031 86.457031 C 235.832031 89.792969 236.25 91.042969 236.875 88.957031 C 237.292969 87.082031 237.292969 84.167969 236.875 82.707031 C 236.25 81.457031 235.832031 82.917969 235.832031 86.457031 Z M 235.832031 86.457031 "/>
<path style=" stroke:none;fill-rule:nonzero;fill:rgb(95.294118%,95.294118%,95.294118%);fill-opacity:1;" d="M 548.332031 85.417969 C 548.332031 88.332031 548.75 89.375 549.375 87.917969 C 549.792969 86.667969 549.792969 84.167969 549.375 82.707031 C 548.75 81.457031 548.332031 82.5 548.332031 85.417969 Z M 548.332031 85.417969 "/>
<path style=" stroke:none;fill-rule:nonzero;fill:rgb(95.294118%,95.294118%,95.294118%);fill-opacity:1;" d="M 46.25 89.582031 C 46.25 93.542969 46.667969 95.207031 47.292969 93.125 C 47.707031 91.25 47.707031 87.917969 47.292969 85.832031 C 46.667969 83.957031 46.25 85.625 46.25 89.582031 Z M 46.25 89.582031 "/>
<path style=" stroke:none;fill-rule:nonzero;fill:rgb(95.294118%,95.294118%,95.294118%);fill-opacity:1;" d="M 54.375 86.667969 C 54.375 88.957031 55 89.582031 55.625 87.917969 C 56.25 86.457031 56.042969 84.582031 55.417969 83.957031 C 54.792969 83.125 54.167969 84.375 54.375 86.667969 Z M 54.375 86.667969 "/>
<path style=" stroke:none;fill-rule:nonzero;fill:rgb(95.294118%,95.294118%,95.294118%);fill-opacity:1;" d="M 477.082031 87.5 C 477.082031 88.542969 478.125 89.582031 479.167969 89.582031 C 480.417969 89.582031 481.25 88.542969 481.25 87.5 C 481.25 86.25 480.417969 85.417969 479.167969 85.417969 C 478.125 85.417969 477.082031 86.25 477.082031 87.5 Z M 477.082031 87.5 "/>
<path style=" stroke:none;fill-rule:nonzero;fill:rgb(95.294118%,95.294118%,95.294118%);fill-opacity:1;" d="M 206.667969 93.75 C 206.667969 96.667969 207.082031 97.707031 207.707031 96.25 C 208.125 95 208.125 92.5 207.707031 91.042969 C 207.082031 89.792969 206.667969 90.832031 206.667969 93.75 Z M 206.667969 93.75 "/>
<path style=" stroke:none;fill-rule:nonzero;fill:rgb(95.294118%,95.294118%,95.294118%);fill-opacity:1;" d="M 54.375 95 C 54.375 97.292969 55 97.917969 55.625 96.25 C 56.25 94.792969 56.042969 92.917969 55.417969 92.292969 C 54.792969 91.457031 54.167969 92.707031 54.375 95 Z M 54.375 95 "/>
<path style=" stroke:none;fill-rule:nonzero;fill:rgb(95.294118%,95.294118%,95.294118%);fill-opacity:1;" d="M 300.832031 108.542969 C 295.625 113.957031 291.667969 119.167969 292.5 120.417969 C 293.125 121.457031 298.957031 124.582031 305.417969 127.082031 C 316.875 131.875 317.292969 131.875 323.542969 128.125 C 340.625 118.332031 346.042969 114.167969 345.417969 112.082031 C 344.792969 110.625 336.875 107.292969 327.5 104.167969 L 310.417969 98.75 Z M 329.792969 109.792969 C 341.25 111.042969 345 114.167969 334.792969 113.957031 C 323.542969 113.75 304.375 116.875 302.917969 119.167969 C 302.082031 120.417969 303.125 120.832031 305.417969 120 C 307.707031 119.375 314.375 118.332031 320.417969 117.707031 C 326.667969 117.082031 332.5 116.25 333.542969 115.417969 C 334.582031 114.792969 335.417969 115.207031 335.417969 116.25 C 335.417969 119.167969 325.417969 122.917969 321.457031 121.667969 C 318.75 120.832031 318.542969 121.042969 320.417969 122.292969 C 322.5 123.957031 322.5 124.792969 320 126.875 C 317.5 128.957031 315.207031 128.542969 307.917969 124.792969 C 302.917969 122.082031 298.332031 120.207031 297.5 120.417969 C 295 121.042969 295.417969 117.082031 297.917969 115.625 C 299.167969 115 300 115.417969 300 116.667969 C 300 117.917969 302.5 116.042969 305.625 112.5 C 309.792969 107.5 312.082031 106.25 315.417969 107.292969 C 317.917969 108.125 324.167969 109.167969 329.792969 109.792969 Z M 329.792969 109.792969 "/>
<path style=" stroke:none;fill-rule:nonzero;fill:rgb(95.294118%,95.294118%,95.294118%);fill-opacity:1;" d="M 313.125 111.875 C 315 112.292969 317.917969 112.292969 319.375 111.875 C 320.625 111.25 319.167969 110.832031 315.625 110.832031 C 312.292969 110.832031 311.042969 111.25 313.125 111.875 Z M 313.125 111.875 "/>
<path style=" stroke:none;fill-rule:nonzero;fill:rgb(95.294118%,95.294118%,95.294118%);fill-opacity:1;" d="M 330.207031 100 C 326.875 101.457031 326.667969 101.875 329.582031 101.875 C 331.457031 102.082031 333.75 101.042969 334.375 100 C 335.832031 97.707031 335.832031 97.707031 330.207031 100 Z M 330.207031 100 "/>
<path style=" stroke:none;fill-rule:nonzero;fill:rgb(95.294118%,95.294118%,95.294118%);fill-opacity:1;" d="M 54.792969 110.417969 C 54.792969 116.667969 55.207031 119.375 55.625 116.042969 C 56.042969 112.917969 56.042969 107.917969 55.625 104.582031 C 55.207031 101.457031 54.792969 104.167969 54.792969 110.417969 Z M 54.792969 110.417969 "/>
<path style=" stroke:none;fill-rule:nonzero;fill:rgb(95.294118%,95.294118%,95.294118%);fill-opacity:1;" d="M 139.792969 103.332031 C 139.792969 105.625 140.417969 106.25 141.042969 104.582031 C 141.667969 103.125 141.457031 101.25 140.832031 100.625 C 140.207031 99.792969 139.582031 101.042969 139.792969 103.332031 Z M 139.792969 103.332031 "/>
<path style=" stroke:none;fill-rule:nonzero;fill:rgb(95.294118%,95.294118%,95.294118%);fill-opacity:1;" d="M 577.292969 103.332031 C 577.292969 105.625 577.917969 106.25 578.542969 104.582031 C 579.167969 103.125 578.957031 101.25 578.332031 100.625 C 577.707031 99.792969 577.082031 101.042969 577.292969 103.332031 Z M 577.292969 103.332031 "/>
<path style=" stroke:none;fill-rule:nonzero;fill:rgb(95.294118%,95.294118%,95.294118%);fill-opacity:1;" d="M 585.625 103.332031 C 585.625 105.625 586.25 106.25 586.875 104.582031 C 587.5 103.125 587.292969 101.25 586.667969 100.625 C 586.042969 99.792969 585.417969 101.042969 585.625 103.332031 Z M 585.625 103.332031 "/>
<path style=" stroke:none;fill-rule:nonzero;fill:rgb(95.294118%,95.294118%,95.294118%);fill-opacity:1;" d="M 544.167969 108.332031 C 544.167969 111.25 544.582031 112.292969 545.207031 110.832031 C 545.625 109.582031 545.625 107.082031 545.207031 105.625 C 544.582031 104.375 544.167969 105.417969 544.167969 108.332031 Z M 544.167969 108.332031 "/>
<path style=" stroke:none;fill-rule:nonzero;fill:rgb(95.294118%,95.294118%,95.294118%);fill-opacity:1;" d="M 203.542969 109.792969 C 202.707031 110.417969 202.082031 112.5 202.082031 114.375 C 202.292969 117.082031 202.707031 117.082031 204.375 113.957031 C 206.667969 110 206.042969 107.082031 203.542969 109.792969 Z M 203.542969 109.792969 "/>
<path style=" stroke:none;fill-rule:nonzero;fill:rgb(95.294118%,95.294118%,95.294118%);fill-opacity:1;" d="M 512.917969 113.542969 C 512.917969 116.875 513.332031 118.125 513.957031 116.042969 C 514.375 114.167969 514.375 111.25 513.957031 109.792969 C 513.332031 108.542969 512.917969 110 512.917969 113.542969 Z M 512.917969 113.542969 "/>
<path style=" stroke:none;fill-rule:nonzero;fill:rgb(95.294118%,95.294118%,95.294118%);fill-opacity:1;" d="M 153.125 112.5 C 153.75 113.542969 154.792969 114.582031 155.417969 114.582031 C 155.832031 114.582031 156.25 113.542969 156.25 112.5 C 156.25 111.25 155.207031 110.417969 153.957031 110.417969 C 152.917969 110.417969 152.5 111.25 153.125 112.5 Z M 153.125 112.5 "/>
<path style=" stroke:none;fill-rule:nonzero;fill:rgb(95.294118%,95.294118%,95.294118%);fill-opacity:1;" d="M 287.707031 117.917969 C 287.707031 120.207031 288.332031 120.832031 288.957031 119.167969 C 289.582031 117.707031 289.375 115.832031 288.75 115.207031 C 288.125 114.375 287.5 115.625 287.707031 117.917969 Z M 287.707031 117.917969 "/>
<path style=" stroke:none;fill-rule:nonzero;fill:rgb(95.294118%,95.294118%,95.294118%);fill-opacity:1;" d="M 54.582031 127.082031 C 54.582031 130 55 131.042969 55.625 129.582031 C 56.042969 128.332031 56.042969 125.832031 55.625 124.375 C 55 123.125 54.582031 124.167969 54.582031 127.082031 Z M 54.582031 127.082031 "/>
<path style=" stroke:none;fill-rule:nonzero;fill:rgb(95.294118%,95.294118%,95.294118%);fill-opacity:1;" d="M 110.625 128.332031 C 110.625 130.625 111.25 131.25 111.875 129.582031 C 112.5 128.125 112.292969 126.25 111.667969 125.625 C 111.042969 124.792969 110.417969 126.042969 110.625 128.332031 Z M 110.625 128.332031 "/>
<path style=" stroke:none;fill-rule:nonzero;fill:rgb(95.294118%,95.294118%,95.294118%);fill-opacity:1;" d="M 118.957031 130.417969 C 118.957031 132.707031 119.582031 133.332031 120.207031 131.667969 C 120.832031 130.207031 120.625 128.332031 120 127.707031 C 119.375 126.875 118.75 128.125 118.957031 130.417969 Z M 118.957031 130.417969 "/>
<path style=" stroke:none;fill-rule:nonzero;fill:rgb(95.294118%,95.294118%,95.294118%);fill-opacity:1;" d="M 219.792969 129.167969 C 220.417969 130.207031 221.457031 131.25 222.082031 131.25 C 222.5 131.25 222.917969 130.207031 222.917969 129.167969 C 222.917969 127.917969 221.875 127.082031 220.625 127.082031 C 219.582031 127.082031 219.167969 127.917969 219.792969 129.167969 Z M 219.792969 129.167969 "/>
<path style=" stroke:none;fill-rule:nonzero;fill:rgb(95.294118%,95.294118%,95.294118%);fill-opacity:1;" d="M 296.875 129.167969 C 297.5 130.207031 298.542969 131.25 299.167969 131.25 C 299.582031 131.25 300 130.207031 300 129.167969 C 300 127.917969 298.957031 127.082031 297.707031 127.082031 C 296.667969 127.082031 296.25 127.917969 296.875 129.167969 Z M 296.875 129.167969 "/>
<path style=" stroke:none;fill-rule:nonzero;fill:rgb(95.294118%,95.294118%,95.294118%);fill-opacity:1;" d="M 410.625 136.667969 C 410.625 138.957031 411.25 139.582031 411.875 137.917969 C 412.5 136.457031 412.292969 134.582031 411.667969 133.957031 C 411.042969 133.125 410.417969 134.375 410.625 136.667969 Z M 410.625 136.667969 "/>
<path style=" stroke:none;fill-rule:nonzero;fill:rgb(95.294118%,95.294118%,95.294118%);fill-opacity:1;" d="M 67.292969 141.042969 C 69.167969 141.457031 72.082031 141.457031 73.542969 141.042969 C 74.792969 140.417969 73.332031 140 69.792969 140 C 66.457031 140 65.207031 140.417969 67.292969 141.042969 Z M 67.292969 141.042969 "/>
<path style=" stroke:none;fill-rule:nonzero;fill:rgb(95.294118%,95.294118%,95.294118%);fill-opacity:1;" d="M 89.167969 141.042969 C 90.417969 141.457031 92.917969 141.457031 94.375 141.042969 C 95.625 140.417969 94.582031 140 91.667969 140 C 88.75 140 87.707031 140.417969 89.167969 141.042969 Z M 89.167969 141.042969 "/>
<path style=" stroke:none;fill-rule:nonzero;fill:rgb(95.294118%,95.294118%,95.294118%);fill-opacity:1;" d="M 101.667969 141.042969 C 102.917969 141.457031 105.417969 141.457031 106.875 141.042969 C 108.125 140.417969 107.082031 140 104.167969 140 C 101.25 140 100.207031 140.417969 101.667969 141.042969 Z M 101.667969 141.042969 "/>
<path style=" stroke:none;fill-rule:nonzero;fill:rgb(95.294118%,95.294118%,95.294118%);fill-opacity:1;" d="M 126.667969 141.042969 C 128.125 141.667969 130 141.457031 130.625 140.832031 C 131.457031 140.207031 130.207031 139.582031 127.917969 139.792969 C 125.625 139.792969 125 140.417969 126.667969 141.042969 Z M 126.667969 141.042969 "/>
<path style=" stroke:none;fill-rule:nonzero;fill:rgb(95.294118%,95.294118%,95.294118%);fill-opacity:1;" d="M 156.875 141.042969 C 158.75 141.457031 162.082031 141.457031 164.167969 141.042969 C 166.042969 140.417969 164.375 140 160.417969 140 C 156.457031 140 154.792969 140.417969 156.875 141.042969 Z M 156.875 141.042969 "/>
<path style=" stroke:none;fill-rule:nonzero;fill:rgb(95.294118%,95.294118%,95.294118%);fill-opacity:1;" d="M 189.167969 141.042969 C 190.625 141.667969 192.5 141.457031 193.125 140.832031 C 193.957031 140.207031 192.707031 139.582031 190.417969 139.792969 C 188.125 139.792969 187.5 140.417969 189.167969 141.042969 Z M 189.167969 141.042969 "/>
<path style=" stroke:none;fill-rule:nonzero;fill:rgb(95.294118%,95.294118%,95.294118%);fill-opacity:1;" d="M 207.917969 141.042969 C 209.375 141.667969 211.25 141.457031 211.875 140.832031 C 212.707031 140.207031 211.457031 139.582031 209.167969 139.792969 C 206.875 139.792969 206.25 140.417969 207.917969 141.042969 Z M 207.917969 141.042969 "/>
<path style=" stroke:none;fill-rule:nonzero;fill:rgb(95.294118%,95.294118%,95.294118%);fill-opacity:1;" d="M 228.75 141.042969 C 230.207031 141.667969 232.082031 141.457031 232.707031 140.832031 C 233.542969 140.207031 232.292969 139.582031 230 139.792969 C 227.707031 139.792969 227.082031 140.417969 228.75 141.042969 Z M 228.75 141.042969 "/>
<path style=" stroke:none;fill-rule:nonzero;fill:rgb(95.294118%,95.294118%,95.294118%);fill-opacity:1;" d="M 246.457031 141.042969 C 249.582031 141.457031 254.167969 141.457031 256.875 141.042969 C 259.375 140.625 256.875 140.207031 251.042969 140.207031 C 245.417969 140.207031 243.125 140.625 246.457031 141.042969 Z M 246.457031 141.042969 "/>
<path style=" stroke:none;fill-rule:nonzero;fill:rgb(95.294118%,95.294118%,95.294118%);fill-opacity:1;" d="M 472.5 141.042969 C 473.75 141.457031 476.25 141.457031 477.707031 141.042969 C 478.957031 140.417969 477.917969 140 475 140 C 472.082031 140 471.042969 140.417969 472.5 141.042969 Z M 472.5 141.042969 "/>
<path style=" stroke:none;fill-rule:nonzero;fill:rgb(95.294118%,95.294118%,95.294118%);fill-opacity:1;" d="M 503.75 141.042969 C 505.207031 141.667969 507.082031 141.457031 507.707031 140.832031 C 508.542969 140.207031 507.292969 139.582031 505 139.792969 C 502.707031 139.792969 502.082031 140.417969 503.75 141.042969 Z M 503.75 141.042969 "/>
<path style=" stroke:none;fill-rule:nonzero;fill:rgb(95.294118%,95.294118%,95.294118%);fill-opacity:1;" d="M 389.582031 148.125 C 389.582031 149.167969 390.625 149.582031 391.667969 148.957031 C 392.917969 148.332031 393.75 147.292969 393.75 146.667969 C 393.75 146.25 392.917969 145.832031 391.667969 145.832031 C 390.625 145.832031 389.582031 146.875 389.582031 148.125 Z M 389.582031 148.125 "/>
<path style=" stroke:none;fill-rule:nonzero;fill:rgb(95.294118%,95.294118%,95.294118%);fill-opacity:1;" d="M 158.957031 149.375 C 160.832031 149.792969 163.75 149.792969 165.207031 149.375 C 166.457031 148.75 165 148.332031 161.457031 148.332031 C 158.125 148.332031 156.875 148.75 158.957031 149.375 Z M 158.957031 149.375 "/>
<path style=" stroke:none;fill-rule:nonzero;fill:rgb(95.294118%,95.294118%,95.294118%);fill-opacity:1;" d="M 189.167969 149.375 C 190.625 150 192.5 149.792969 193.125 149.167969 C 193.957031 148.542969 192.707031 147.917969 190.417969 148.125 C 188.125 148.125 187.5 148.75 189.167969 149.375 Z M 189.167969 149.375 "/>
<path style=" stroke:none;fill-rule:nonzero;fill:rgb(95.294118%,95.294118%,95.294118%);fill-opacity:1;" d="M 207.917969 149.375 C 209.375 150 211.25 149.792969 211.875 149.167969 C 212.707031 148.542969 211.457031 147.917969 209.167969 148.125 C 206.875 148.125 206.25 148.75 207.917969 149.375 Z M 207.917969 149.375 "/>
<path style=" stroke:none;fill-rule:nonzero;fill:rgb(95.294118%,95.294118%,95.294118%);fill-opacity:1;" d="M 228.75 149.375 C 230.207031 150 232.082031 149.792969 232.707031 149.167969 C 233.542969 148.542969 232.292969 147.917969 230 148.125 C 227.707031 148.125 227.082031 148.75 228.75 149.375 Z M 228.75 149.375 "/>
<path style=" stroke:none;fill-rule:nonzero;fill:rgb(95.294118%,95.294118%,95.294118%);fill-opacity:1;" d="M 247.5 149.375 C 250 149.792969 253.75 149.792969 255.832031 149.375 C 257.707031 148.75 255.625 148.332031 251.042969 148.542969 C 246.457031 148.542969 244.792969 148.957031 247.5 149.375 Z M 247.5 149.375 "/>
<path style=" stroke:none;fill-rule:nonzero;fill:rgb(95.294118%,95.294118%,95.294118%);fill-opacity:1;" d="M 325.207031 163.75 C 325.207031 166.042969 325.832031 166.667969 326.457031 165 C 327.082031 163.542969 326.875 161.667969 326.25 161.042969 C 325.625 160.207031 325 161.457031 325.207031 163.75 Z M 325.207031 163.75 "/>
<path style=" stroke:none;fill-rule:nonzero;fill:rgb(95.294118%,95.294118%,95.294118%);fill-opacity:1;" d="M 362.082031 174.375 C 363.542969 175 365.417969 174.792969 366.042969 174.167969 C 366.875 173.542969 365.625 172.917969 363.332031 173.125 C 361.042969 173.125 360.417969 173.75 362.082031 174.375 Z M 362.082031 174.375 "/>
</g>
</svg>
