<svg xmlns="http://www.w3.org/2000/svg" width="300" viewBox="0 0 300 225" height="225" version="1.0"><defs><clipPath id="a"><path d="M 65.085938 18.667969 L 218.835938 18.667969 L 218.835938 167.917969 L 65.085938 167.917969 Z M 65.085938 18.667969"/></clipPath><clipPath id="b"><path d="M 161 93 L 177.535156 93 L 177.535156 96 L 161 96 Z M 161 93"/></clipPath><clipPath id="c"><path d="M 97.285156 64.375 L 114 64.375 L 114 70 L 97.285156 70 Z M 97.285156 64.375"/></clipPath><clipPath id="d"><path d="M 149 64.375 L 166 64.375 L 166 70 L 149 70 Z M 149 64.375"/></clipPath></defs><g clip-path="url(#a)"><path fill="#FBAD18" d="M 164.667969 167.917969 L 125.335938 117.007812 L 65.140625 136.398438 L 104.625 87.613281 L 70.515625 39.195312 L 127.179688 59.726562 L 160.425781 18.667969 L 161.960938 72.347656 L 218.777344 92.90625 L 162.945312 107.3125 Z M 164.667969 167.917969"/></g><path fill="#FFF" d="M 156.476562 99.136719 C 156.476562 99.136719 157.621094 111.367188 151.421875 112.875 C 151.082031 112.957031 150.84375 113.261719 150.902344 113.605469 C 151.246094 115.582031 152.351562 121.621094 153.0625 121.839844 C 153.914062 122.101562 156.90625 122.011719 156.945312 121.800781 C 156.984375 121.589844 157.351562 113.125 157.351562 113.125 L 157.449219 121.808594 L 159.296875 121.839844 C 159.570312 121.832031 159.78125 121.347656 159.804688 121.074219 L 160.539062 111.535156 C 160.5625 111.214844 160.347656 110.917969 160.03125 110.867188 C 159.601562 110.800781 158.988281 110.425781 158.421875 109.085938 C 157.410156 106.679688 156.476562 99.136719 156.476562 99.136719 Z M 156.476562 99.136719"/><path d="M 111.980469 74.058594 C 107.238281 66.777344 100.773438 82.839844 108.226562 84.121094 C 113.582031 84.277344 113.800781 76.535156 111.980469 74.058594 Z M 111.980469 74.058594"/><path d="M 153.308594 74.476562 C 157.089844 66.65625 165.539062 81.769531 158.308594 83.984375 C 153.015625 84.816406 151.820312 77.164062 153.308594 74.476562 Z M 153.308594 74.476562"/><path d="M 159.085938 89.960938 L 159.085938 89.96875 C 158.667969 89.503906 158.160156 89.125 157.542969 88.863281 C 154.9375 87.671875 149.335938 90.019531 145.941406 91.691406 C 142.105469 93.621094 148.09375 101.128906 150.996094 98.324219 C 151.695312 97.648438 151.078125 94.96875 151.535156 94.941406 C 153.023438 95.632812 152.820312 101.992188 155.5625 102.054688 C 157.730469 102.105469 160.003906 98.320312 160.398438 94.964844 C 160.667969 95.457031 160.804688 96.007812 160.742188 96.574219 L 160.671875 97.226562 C 160.671875 97.226562 162.414062 95.613281 162.3125 93.960938 C 162.210938 92.308594 159.085938 89.960938 159.085938 89.960938 Z M 159.085938 89.960938"/><path d="M 133.777344 87.125 C 136.117188 87.429688 138.359375 88.136719 140.523438 89.003906 C 142.679688 89.902344 144.773438 90.972656 146.648438 92.394531 C 144.402344 91.691406 142.277344 90.8125 140.136719 89.949219 C 138.007812 89.0625 135.875 88.199219 133.777344 87.125 Z M 133.777344 87.125"/><path d="M 130.546875 95.855469 C 133.078125 94.851562 135.773438 94.464844 138.429688 94.128906 C 141.101562 93.835938 143.777344 93.675781 146.484375 93.792969 C 143.863281 94.480469 141.203125 94.824219 138.546875 95.140625 C 137.21875 95.285156 135.890625 95.425781 134.558594 95.53125 Z M 130.546875 95.855469"/><path d="M 135.152344 100.960938 C 136.859375 99.640625 138.707031 98.601562 140.585938 97.628906 C 142.480469 96.683594 144.410156 95.804688 146.484375 95.207031 C 144.78125 96.527344 142.933594 97.566406 141.050781 98.539062 C 139.15625 99.484375 137.226562 100.359375 135.152344 100.960938 Z M 135.152344 100.960938"/><path d="M 161.429688 92.144531 C 163.308594 90.722656 165.402344 89.65625 167.554688 88.753906 C 169.722656 87.882812 171.960938 87.175781 174.300781 86.875 C 172.207031 87.949219 170.074219 88.8125 167.945312 89.699219 C 165.800781 90.558594 163.675781 91.441406 161.429688 92.144531 Z M 161.429688 92.144531"/><g clip-path="url(#b)"><path d="M 161.59375 93.542969 C 164.300781 93.429688 166.976562 93.585938 169.648438 93.875 C 170.984375 94.039062 172.316406 94.222656 173.636719 94.496094 C 174.957031 94.753906 176.277344 95.09375 177.535156 95.605469 L 173.523438 95.285156 C 172.191406 95.175781 170.863281 95.035156 169.53125 94.890625 C 166.878906 94.570312 164.21875 94.226562 161.59375 93.542969 Z M 161.59375 93.542969"/></g><path d="M 161.59375 94.957031 C 163.667969 95.554688 165.597656 96.433594 167.492188 97.378906 C 169.375 98.351562 171.222656 99.390625 172.925781 100.710938 C 170.855469 100.113281 168.921875 99.234375 167.027344 98.289062 C 165.148438 97.316406 163.300781 96.273438 161.59375 94.957031 Z M 161.59375 94.957031"/><g clip-path="url(#c)"><path d="M 113.636719 69.066406 C 112.347656 68.234375 111.058594 67.441406 109.726562 66.792969 C 108.390625 66.15625 106.988281 65.683594 105.554688 65.5625 C 104.125 65.417969 102.675781 65.636719 101.289062 66.117188 C 99.90625 66.605469 98.582031 67.34375 97.285156 68.15625 C 98.324219 67.039062 99.546875 66.039062 100.984375 65.378906 C 102.410156 64.703125 104.050781 64.398438 105.652344 64.546875 C 107.253906 64.703125 108.777344 65.277344 110.105469 66.09375 C 111.445312 66.898438 112.605469 67.933594 113.636719 69.066406 Z M 113.636719 69.066406"/></g><g clip-path="url(#d)"><path d="M 165.902344 69.066406 C 164.613281 68.234375 163.328125 67.441406 161.992188 66.792969 C 160.65625 66.15625 159.257812 65.683594 157.824219 65.5625 C 156.390625 65.417969 154.945312 65.636719 153.558594 66.117188 C 152.171875 66.605469 150.851562 67.34375 149.550781 68.15625 C 150.59375 67.039062 151.8125 66.039062 153.253906 65.378906 C 154.679688 64.703125 156.316406 64.398438 157.917969 64.546875 C 159.519531 64.703125 161.042969 65.277344 162.371094 66.09375 C 163.714844 66.898438 164.875 67.933594 165.902344 69.066406 Z M 165.902344 69.066406"/></g><path d="M 139.792969 112.585938 C 141.082031 112.730469 142.363281 112.851562 143.648438 112.90625 C 144.929688 112.984375 146.210938 113.003906 147.480469 112.925781 C 148.746094 112.871094 150.003906 112.714844 151.207031 112.417969 C 151.808594 112.265625 152.390625 112.066406 152.933594 111.804688 C 153.445312 111.558594 153.855469 111.207031 154.199219 110.730469 C 154.882812 109.789062 155.242188 108.566406 155.503906 107.351562 C 155.742188 106.121094 155.882812 104.859375 155.960938 103.585938 C 156.089844 101.039062 156.007812 98.46875 155.847656 95.894531 C 156.382812 98.421875 156.679688 101.003906 156.695312 103.605469 C 156.710938 104.90625 156.640625 106.21875 156.417969 107.523438 C 156.1875 108.820312 155.839844 110.148438 155.015625 111.316406 C 154.617188 111.894531 154.035156 112.421875 153.375 112.722656 C 152.75 113.015625 152.101562 113.222656 151.449219 113.382812 C 150.140625 113.699219 148.808594 113.773438 147.496094 113.777344 C 144.871094 113.71875 142.28125 113.332031 139.792969 112.585938 Z M 139.792969 112.585938"/><path d="M 156.046875 95.882812 L 157.027344 100.773438 C 157.351562 102.402344 157.675781 104.027344 158.03125 105.640625 C 158.214844 106.445312 158.410156 107.242188 158.625 108.027344 C 158.84375 108.785156 159.097656 109.652344 159.480469 110.101562 C 159.898438 110.597656 160.597656 110.835938 161.367188 110.917969 C 162.136719 110.988281 162.964844 110.960938 163.8125 110.871094 C 163.089844 111.328125 162.257812 111.636719 161.359375 111.703125 C 160.484375 111.785156 159.421875 111.558594 158.71875 110.78125 C 158.359375 110.378906 158.195312 109.921875 158.042969 109.523438 C 157.894531 109.109375 157.777344 108.699219 157.667969 108.289062 C 157.445312 107.46875 157.28125 106.648438 157.128906 105.824219 C 156.824219 104.175781 156.601562 102.523438 156.417969 100.867188 C 156.238281 99.210938 156.109375 97.546875 156.046875 95.882812 Z M 156.046875 95.882812"/><g><g><g><path d="M 16.988281 0.621094 C 24.023438 0.621094 30.558594 -3.921875 30.558594 -12.261719 C 30.558594 -17.425781 28.066406 -21.78125 23.460938 -23.898438 C 20.351562 -25.328125 17.300781 -25.328125 16.988281 -25.328125 C 13.753906 -25.328125 10.640625 -27.257812 10.640625 -30.867188 C 10.640625 -34.914062 13.566406 -36.90625 16.988281 -36.90625 C 20.289062 -36.90625 23.089844 -35.289062 23.214844 -31.675781 L 30.433594 -31.675781 C 30.308594 -39.082031 24.519531 -44.1875 16.988281 -44.1875 C 9.957031 -44.1875 3.359375 -39.144531 3.359375 -30.867188 C 3.359375 -25.703125 5.914062 -21.84375 10.457031 -19.730469 C 13.628906 -18.296875 16.617188 -18.296875 16.988281 -18.296875 C 19.914062 -18.171875 23.339844 -15.933594 23.339844 -12.261719 C 23.339844 -8.835938 20.351562 -6.660156 16.988281 -6.660156 C 13.753906 -6.660156 10.765625 -8.464844 10.640625 -12.074219 L 3.359375 -12.074219 C 3.484375 -3.921875 9.460938 0.4375 16.988281 0.621094 Z M 16.988281 0.621094" transform="translate(9.424 121.951)"/></g></g></g><g><g><g><path d="M 26.761719 -36.90625 L 26.761719 -43.566406 L 1.246094 -43.566406 L 1.246094 -36.90625 L 10.394531 -36.90625 L 10.394531 0 L 17.613281 0 L 17.613281 -36.90625 Z M 26.761719 -36.90625" transform="translate(43.215 121.951)"/></g></g></g><g><g><g><path d="M 25.019531 -5.042969 L 26.949219 0 L 34.789062 0 L 17.363281 -44.808594 L 0 0 L 7.839844 0 L 9.707031 -5.042969 Z M 12.074219 -11.328125 L 17.363281 -26.449219 L 22.652344 -11.328125 Z M 12.074219 -11.328125" transform="translate(71.095 121.951)"/></g></g></g><g><g><g><path d="M 27.757812 0 L 36.28125 0 L 24.457031 -18.917969 C 28.691406 -20.101562 34.042969 -23.152344 34.042969 -30.867188 C 34.042969 -43.566406 19.480469 -43.566406 19.480469 -43.566406 L 4.980469 -43.566406 L 4.980469 -36.28125 L 11.886719 -25.390625 L 4.980469 -25.390625 L 4.980469 0 L 12.261719 0 L 12.261719 -18.171875 L 16.429688 -18.171875 Z M 20.414062 -25.453125 L 13.628906 -36.28125 L 19.480469 -36.28125 C 19.480469 -36.28125 26.761719 -36.28125 26.761719 -30.867188 C 26.761719 -26.574219 22.34375 -25.640625 20.414062 -25.453125 Z M 20.414062 -25.453125" transform="translate(105.882 121.951)"/></g></g></g><g><g><g><path d="M 27.757812 0 L 36.28125 0 L 24.457031 -18.917969 C 28.691406 -20.101562 34.042969 -23.152344 34.042969 -30.867188 C 34.042969 -43.566406 19.480469 -43.566406 19.480469 -43.566406 L 4.980469 -43.566406 L 4.980469 -36.28125 L 11.886719 -25.390625 L 4.980469 -25.390625 L 4.980469 0 L 12.261719 0 L 12.261719 -18.171875 L 16.429688 -18.171875 Z M 20.414062 -25.453125 L 13.628906 -36.28125 L 19.480469 -36.28125 C 19.480469 -36.28125 26.761719 -36.28125 26.761719 -30.867188 C 26.761719 -26.574219 22.34375 -25.640625 20.414062 -25.453125 Z M 20.414062 -25.453125" transform="translate(165.437 121.951)"/></g></g></g><g><g><g><path d="M 25.019531 -5.042969 L 26.949219 0 L 34.789062 0 L 17.363281 -44.808594 L 0 0 L 7.839844 0 L 9.707031 -5.042969 Z M 12.074219 -11.328125 L 17.363281 -26.449219 L 22.652344 -11.328125 Z M 12.074219 -11.328125" transform="translate(203.522 121.951)"/></g></g></g><g><g><g><path d="M 26.761719 -36.90625 L 26.761719 -43.566406 L 1.246094 -43.566406 L 1.246094 -36.90625 L 10.394531 -36.90625 L 10.394531 0 L 17.613281 0 L 17.613281 -36.90625 Z M 26.761719 -36.90625" transform="translate(238.309 121.951)"/></g></g></g><g><g><g><path d="M 16.988281 0.621094 C 24.023438 0.621094 30.558594 -3.921875 30.558594 -12.261719 C 30.558594 -17.425781 28.066406 -21.78125 23.460938 -23.898438 C 20.351562 -25.328125 17.300781 -25.328125 16.988281 -25.328125 C 13.753906 -25.328125 10.640625 -27.257812 10.640625 -30.867188 C 10.640625 -34.914062 13.566406 -36.90625 16.988281 -36.90625 C 20.289062 -36.90625 23.089844 -35.289062 23.214844 -31.675781 L 30.433594 -31.675781 C 30.308594 -39.082031 24.519531 -44.1875 16.988281 -44.1875 C 9.957031 -44.1875 3.359375 -39.144531 3.359375 -30.867188 C 3.359375 -25.703125 5.914062 -21.84375 10.457031 -19.730469 C 13.628906 -18.296875 16.617188 -18.296875 16.988281 -18.296875 C 19.914062 -18.171875 23.339844 -15.933594 23.339844 -12.261719 C 23.339844 -8.835938 20.351562 -6.660156 16.988281 -6.660156 C 13.753906 -6.660156 10.765625 -8.464844 10.640625 -12.074219 L 3.359375 -12.074219 C 3.484375 -3.921875 9.460938 0.4375 16.988281 0.621094 Z M 16.988281 0.621094" transform="translate(266.188 121.951)"/></g></g></g></svg>