<svg xmlns="http://www.w3.org/2000/svg" width="375" viewBox="0 0 375 225" height="225" version="1.0"><defs><clipPath id="a"><path d="M 111.472656 32.019531 L 263.722656 32.019531 L 263.722656 179.769531 L 111.472656 179.769531 Z M 111.472656 32.019531"/></clipPath><clipPath id="b"><path d="M 196 111 L 206 111 L 206 134.242188 L 196 134.242188 Z M 196 111"/></clipPath><clipPath id="c"><path d="M 207 105 L 222.828125 105 L 222.828125 109 L 207 109 Z M 207 105"/></clipPath><clipPath id="d"><path d="M 143.328125 77.242188 L 160 77.242188 L 160 82 L 143.328125 82 Z M 143.328125 77.242188"/></clipPath><clipPath id="e"><path d="M 195 77.242188 L 212 77.242188 L 212 82 L 195 82 Z M 195 77.242188"/></clipPath></defs><g clip-path="url(#a)"><path fill="#FBAD18" d="M 210.082031 179.769531 L 171.136719 129.371094 L 111.527344 148.566406 L 150.628906 100.269531 L 116.855469 52.34375 L 172.960938 72.664062 L 205.882812 32.019531 L 207.40625 85.160156 L 263.664062 105.511719 L 208.378906 119.773438 Z M 210.082031 179.769531"/></g><g clip-path="url(#b)"><path fill="#FFF" d="M 201.96875 111.550781 C 201.96875 111.550781 203.101562 123.625 196.960938 125.113281 C 196.625 125.195312 196.390625 125.492188 196.449219 125.832031 C 196.789062 127.785156 197.882812 133.746094 198.589844 133.960938 C 199.433594 134.21875 202.394531 134.128906 202.433594 133.921875 C 202.472656 133.714844 202.839844 125.359375 202.839844 125.359375 L 202.933594 133.929688 L 204.765625 133.960938 C 205.035156 133.953125 205.246094 133.472656 205.265625 133.203125 L 205.992188 123.792969 C 206.019531 123.476562 205.804688 123.179688 205.488281 123.132812 C 205.0625 123.0625 204.457031 122.695312 203.898438 121.371094 C 202.894531 119 201.96875 111.550781 201.96875 111.550781 Z M 201.96875 111.550781"/></g><path d="M 157.886719 86.800781 C 153.191406 79.613281 146.785156 95.464844 154.171875 96.734375 C 159.476562 96.886719 159.691406 89.246094 157.886719 86.800781 Z M 157.886719 86.800781"/><path d="M 198.832031 87.210938 C 202.574219 79.492188 210.949219 94.410156 203.785156 96.597656 C 198.542969 97.417969 197.355469 89.863281 198.832031 87.210938 Z M 198.832031 87.210938"/><path d="M 204.554688 102.496094 L 204.554688 102.503906 C 204.140625 102.046875 203.636719 101.667969 203.027344 101.414062 C 200.445312 100.234375 194.894531 102.554688 191.53125 104.203125 C 187.734375 106.109375 193.664062 113.515625 196.542969 110.75 C 197.234375 110.085938 196.625 107.4375 197.074219 107.410156 C 198.550781 108.09375 198.347656 114.371094 201.0625 114.433594 C 203.214844 114.484375 205.464844 110.746094 205.855469 107.4375 C 206.121094 107.917969 206.253906 108.464844 206.195312 109.023438 L 206.125 109.667969 C 206.125 109.667969 207.851562 108.074219 207.753906 106.441406 C 207.652344 104.8125 204.554688 102.496094 204.554688 102.496094 Z M 204.554688 102.496094"/><path d="M 179.484375 99.695312 C 181.800781 99.996094 184.019531 100.695312 186.167969 101.554688 C 188.300781 102.441406 190.375 103.492188 192.234375 104.898438 C 190.007812 104.203125 187.902344 103.335938 185.78125 102.484375 C 183.671875 101.605469 181.558594 100.753906 179.484375 99.695312 Z M 179.484375 99.695312"/><path d="M 176.28125 108.3125 C 178.792969 107.324219 181.460938 106.9375 184.09375 106.609375 C 186.738281 106.320312 189.390625 106.164062 192.070312 106.277344 C 189.472656 106.957031 186.835938 107.296875 184.207031 107.609375 C 182.890625 107.75 181.574219 107.890625 180.253906 107.996094 Z M 176.28125 108.3125"/><path d="M 180.847656 113.351562 C 182.535156 112.050781 184.367188 111.023438 186.230469 110.0625 C 188.105469 109.128906 190.019531 108.261719 192.070312 107.671875 C 190.382812 108.976562 188.554688 110.003906 186.6875 110.960938 C 184.8125 111.894531 182.898438 112.761719 180.847656 113.351562 Z M 180.847656 113.351562"/><path d="M 206.878906 104.652344 C 208.738281 103.246094 210.8125 102.195312 212.945312 101.304688 C 215.089844 100.445312 217.3125 99.746094 219.628906 99.449219 C 217.554688 100.511719 215.441406 101.363281 213.332031 102.238281 C 211.207031 103.085938 209.101562 103.957031 206.878906 104.652344 Z M 206.878906 104.652344"/><g clip-path="url(#c)"><path d="M 207.039062 106.03125 C 209.722656 105.917969 212.375 106.074219 215.019531 106.359375 C 216.339844 106.519531 217.660156 106.703125 218.96875 106.96875 C 220.277344 107.226562 221.585938 107.5625 222.828125 108.066406 L 218.855469 107.75 C 217.535156 107.644531 216.222656 107.503906 214.90625 107.363281 C 212.273438 107.046875 209.640625 106.707031 207.039062 106.03125 Z M 207.039062 106.03125"/></g><path d="M 207.039062 107.425781 C 209.09375 108.019531 211.003906 108.886719 212.882812 109.816406 C 214.75 110.777344 216.578125 111.800781 218.265625 113.105469 C 216.210938 112.515625 214.300781 111.648438 212.421875 110.714844 C 210.558594 109.753906 208.730469 108.726562 207.039062 107.425781 Z M 207.039062 107.425781"/><g clip-path="url(#d)"><path d="M 159.527344 81.875 C 158.253906 81.050781 156.976562 80.269531 155.65625 79.628906 C 154.332031 79 152.945312 78.535156 151.523438 78.414062 C 150.105469 78.269531 148.671875 78.488281 147.300781 78.960938 C 145.925781 79.445312 144.617188 80.171875 143.328125 80.972656 C 144.363281 79.871094 145.570312 78.882812 146.996094 78.234375 C 148.410156 77.566406 150.03125 77.265625 151.617188 77.410156 C 153.207031 77.566406 154.714844 78.132812 156.03125 78.9375 C 157.359375 79.734375 158.511719 80.757812 159.527344 81.875 Z M 159.527344 81.875"/></g><g clip-path="url(#e)"><path d="M 211.308594 81.875 C 210.03125 81.050781 208.757812 80.269531 207.4375 79.628906 C 206.109375 79 204.722656 78.535156 203.304688 78.414062 C 201.886719 78.269531 200.453125 78.488281 199.078125 78.960938 C 197.707031 79.445312 196.394531 80.171875 195.109375 80.972656 C 196.140625 79.871094 197.351562 78.882812 198.777344 78.234375 C 200.1875 77.566406 201.8125 77.265625 203.398438 77.410156 C 204.984375 77.566406 206.496094 78.132812 207.8125 78.9375 C 209.140625 79.734375 210.289062 80.757812 211.308594 81.875 Z M 211.308594 81.875"/></g><path d="M 185.441406 124.824219 C 186.71875 124.96875 187.988281 125.089844 189.261719 125.144531 C 190.53125 125.222656 191.800781 125.238281 193.058594 125.164062 C 194.3125 125.109375 195.558594 124.953125 196.75 124.660156 C 197.34375 124.511719 197.921875 124.3125 198.457031 124.054688 C 198.96875 123.8125 199.375 123.464844 199.714844 122.996094 C 200.394531 122.066406 200.746094 120.859375 201.007812 119.660156 C 201.242188 118.449219 201.382812 117.199219 201.457031 115.945312 C 201.585938 113.429688 201.507812 110.890625 201.34375 108.351562 C 201.875 110.84375 202.167969 113.394531 202.183594 115.960938 C 202.203125 117.246094 202.132812 118.542969 201.910156 119.828125 C 201.683594 121.109375 201.339844 122.421875 200.523438 123.574219 C 200.128906 124.144531 199.550781 124.664062 198.894531 124.960938 C 198.277344 125.25 197.636719 125.457031 196.988281 125.613281 C 195.691406 125.925781 194.375 126 193.074219 126.003906 C 190.472656 125.945312 187.90625 125.5625 185.441406 124.824219 Z M 185.441406 124.824219"/><path d="M 201.542969 108.339844 L 202.515625 113.167969 C 202.835938 114.777344 203.160156 116.378906 203.511719 117.972656 C 203.691406 118.765625 203.886719 119.554688 204.097656 120.328125 C 204.316406 121.074219 204.566406 121.929688 204.945312 122.375 C 205.359375 122.863281 206.054688 123.097656 206.816406 123.183594 C 207.578125 123.25 208.398438 123.222656 209.234375 123.132812 C 208.519531 123.585938 207.695312 123.890625 206.808594 123.957031 C 205.9375 124.039062 204.886719 123.8125 204.191406 123.046875 C 203.832031 122.648438 203.671875 122.199219 203.523438 121.804688 C 203.375 121.394531 203.257812 120.992188 203.148438 120.585938 C 202.929688 119.777344 202.765625 118.964844 202.617188 118.152344 C 202.3125 116.527344 202.09375 114.894531 201.914062 113.257812 C 201.734375 111.625 201.609375 109.984375 201.542969 108.339844 Z M 201.542969 108.339844"/><g><g><g><path d="M 16.808594 0.617188 C 23.769531 0.617188 30.234375 -3.878906 30.234375 -12.128906 C 30.234375 -17.242188 27.769531 -21.550781 23.214844 -23.644531 C 20.136719 -25.0625 17.117188 -25.0625 16.808594 -25.0625 C 13.609375 -25.0625 10.53125 -26.96875 10.53125 -30.542969 C 10.53125 -34.542969 13.421875 -36.515625 16.808594 -36.515625 C 20.074219 -36.515625 22.84375 -34.914062 22.96875 -31.34375 L 30.109375 -31.34375 C 29.988281 -38.667969 24.261719 -43.71875 16.808594 -43.71875 C 9.851562 -43.71875 3.324219 -38.730469 3.324219 -30.542969 C 3.324219 -25.429688 5.851562 -21.613281 10.34375 -19.519531 C 13.484375 -18.101562 16.441406 -18.101562 16.808594 -18.101562 C 19.703125 -17.980469 23.089844 -15.761719 23.089844 -12.128906 C 23.089844 -8.742188 20.136719 -6.589844 16.808594 -6.589844 C 13.609375 -6.589844 10.652344 -8.375 10.53125 -11.945312 L 3.324219 -11.945312 C 3.449219 -3.878906 9.359375 0.429688 16.808594 0.617188 Z M 16.808594 0.617188" transform="translate(56.402 134.208)"/></g></g></g><g><g><g><path d="M 26.476562 -36.515625 L 26.476562 -43.101562 L 1.230469 -43.101562 L 1.230469 -36.515625 L 10.28125 -36.515625 L 10.28125 0 L 17.425781 0 L 17.425781 -36.515625 Z M 26.476562 -36.515625" transform="translate(89.835 134.208)"/></g></g></g><g><g><g><path d="M 24.753906 -4.988281 L 26.664062 0 L 34.421875 0 L 17.179688 -44.335938 L 0 0 L 7.757812 0 L 9.605469 -4.988281 Z M 11.945312 -11.207031 L 17.179688 -26.167969 L 22.414062 -11.207031 Z M 11.945312 -11.207031" transform="translate(117.419 134.208)"/></g></g></g><g><g><g><path d="M 27.460938 0 L 35.898438 0 L 24.199219 -18.71875 C 28.386719 -19.890625 33.683594 -22.90625 33.683594 -30.542969 C 33.683594 -43.101562 19.273438 -43.101562 19.273438 -43.101562 L 4.925781 -43.101562 L 4.925781 -35.898438 L 11.761719 -25.121094 L 4.925781 -25.121094 L 4.925781 0 L 12.128906 0 L 12.128906 -17.980469 L 16.257812 -17.980469 Z M 20.195312 -25.183594 L 13.484375 -35.898438 L 19.273438 -35.898438 C 19.273438 -35.898438 26.476562 -35.898438 26.476562 -30.542969 C 26.476562 -26.292969 22.105469 -25.371094 20.195312 -25.183594 Z M 20.195312 -25.183594" transform="translate(151.837 134.208)"/></g></g></g><g><g><g><path d="M 27.460938 0 L 35.898438 0 L 24.199219 -18.71875 C 28.386719 -19.890625 33.683594 -22.90625 33.683594 -30.542969 C 33.683594 -43.101562 19.273438 -43.101562 19.273438 -43.101562 L 4.925781 -43.101562 L 4.925781 -35.898438 L 11.761719 -25.121094 L 4.925781 -25.121094 L 4.925781 0 L 12.128906 0 L 12.128906 -17.980469 L 16.257812 -17.980469 Z M 20.195312 -25.183594 L 13.484375 -35.898438 L 19.273438 -35.898438 C 19.273438 -35.898438 26.476562 -35.898438 26.476562 -30.542969 C 26.476562 -26.292969 22.105469 -25.371094 20.195312 -25.183594 Z M 20.195312 -25.183594" transform="translate(210.76 134.208)"/></g></g></g><g><g><g><path d="M 24.753906 -4.988281 L 26.664062 0 L 34.421875 0 L 17.179688 -44.335938 L 0 0 L 7.757812 0 L 9.605469 -4.988281 Z M 11.945312 -11.207031 L 17.179688 -26.167969 L 22.414062 -11.207031 Z M 11.945312 -11.207031" transform="translate(248.442 134.208)"/></g></g></g><g><g><g><path d="M 26.476562 -36.515625 L 26.476562 -43.101562 L 1.230469 -43.101562 L 1.230469 -36.515625 L 10.28125 -36.515625 L 10.28125 0 L 17.425781 0 L 17.425781 -36.515625 Z M 26.476562 -36.515625" transform="translate(282.86 134.208)"/></g></g></g><g><g><g><path d="M 16.808594 0.617188 C 23.769531 0.617188 30.234375 -3.878906 30.234375 -12.128906 C 30.234375 -17.242188 27.769531 -21.550781 23.214844 -23.644531 C 20.136719 -25.0625 17.117188 -25.0625 16.808594 -25.0625 C 13.609375 -25.0625 10.53125 -26.96875 10.53125 -30.542969 C 10.53125 -34.542969 13.421875 -36.515625 16.808594 -36.515625 C 20.074219 -36.515625 22.84375 -34.914062 22.96875 -31.34375 L 30.109375 -31.34375 C 29.988281 -38.667969 24.261719 -43.71875 16.808594 -43.71875 C 9.851562 -43.71875 3.324219 -38.730469 3.324219 -30.542969 C 3.324219 -25.429688 5.851562 -21.613281 10.34375 -19.519531 C 13.484375 -18.101562 16.441406 -18.101562 16.808594 -18.101562 C 19.703125 -17.980469 23.089844 -15.761719 23.089844 -12.128906 C 23.089844 -8.742188 20.136719 -6.589844 16.808594 -6.589844 C 13.609375 -6.589844 10.652344 -8.375 10.53125 -11.945312 L 3.324219 -11.945312 C 3.449219 -3.878906 9.359375 0.429688 16.808594 0.617188 Z M 16.808594 0.617188" transform="translate(310.445 134.208)"/></g></g></g></svg>