<?xml version="1.0" standalone="no"?>
<!DOCTYPE svg PUBLIC "-//W3C//DTD SVG 20010904//EN"
 "http://www.w3.org/TR/2001/REC-SVG-20010904/DTD/svg10.dtd">
<svg version="1.0" xmlns="http://www.w3.org/2000/svg"
 width="300.000000pt" height="96.000000pt" viewBox="0 0 300.000000 96.000000"
 preserveAspectRatio="xMidYMid meet">
<metadata>
Created by potrace 1.10, written by Peter Selinger 2001-2011
</metadata>
<g transform="translate(0.000000,96.000000) scale(0.100000,-0.100000)"
fill="#f3f3f3" stroke="none">
<path d="M1568 833 c6 -2 18 -2 25 0 6 3 1 5 -13 5 -14 0 -19 -2 -12 -5z"/>
<path d="M1566 793 c-3 -10 -6 -47 -8 -83 l-2 -65 77 -112 c42 -61 77 -114 77
-116 0 -3 -31 -47 -69 -97 -74 -99 -74 -96 -41 -175 4 -11 11 -28 14 -38 5
-16 8 -16 33 -4 16 8 50 24 76 36 43 20 52 29 75 82 l27 60 58 -4 c39 -4 59
-1 62 6 2 7 6 24 9 39 4 19 29 45 81 84 l75 56 0 68 0 67 -76 6 c-71 6 -78 5
-110 -19 -19 -15 -34 -22 -34 -16 0 6 -4 22 -9 35 -9 23 -12 24 -43 13 -18 -6
-39 -15 -47 -20 -10 -6 -12 -6 -7 3 7 11 -46 127 -67 147 -10 9 -131 64 -142
64 -2 0 -6 -8 -9 -17z m92 -48 c38 -16 47 -25 78 -91 29 -61 33 -77 24 -95 -7
-11 -9 -23 -7 -26 3 -2 8 5 12 16 3 12 13 21 22 21 8 0 26 9 40 20 34 26 43
25 43 -5 0 -14 7 -28 15 -31 12 -5 13 -10 4 -20 -16 -19 -30 -18 -22 3 4 11 3
14 -6 9 -7 -5 -10 -14 -7 -21 2 -7 -1 -18 -7 -24 -22 -22 -26 -10 -10 35 23
66 9 65 -16 -2 -31 -82 -16 -86 65 -20 64 51 73 56 121 56 28 0 55 5 58 10 15
25 25 5 25 -53 l0 -63 -69 -51 c-65 -48 -69 -50 -84 -33 -14 17 -12 20 17 49
18 17 36 28 41 24 4 -5 5 -2 0 5 -5 9 9 30 41 63 27 27 43 49 37 49 -6 0 -47
-39 -91 -87 -71 -78 -79 -90 -66 -104 14 -15 20 -59 8 -59 -4 0 -34 23 -69 50
-62 51 -88 92 -162 258 -17 40 -28 52 -39 48 -9 -3 -30 -6 -46 -6 -17 0 -28
-3 -24 -7 4 -4 23 -6 41 -4 l35 3 61 -127 c55 -113 67 -130 115 -167 55 -41
67 -55 38 -44 -8 3 -12 2 -9 -4 3 -6 19 -10 36 -10 16 0 29 -5 29 -11 0 -8
-17 -10 -55 -5 l-55 6 -29 -65 c-17 -37 -36 -65 -45 -65 -8 0 -16 -3 -18 -7
-3 -7 -93 -53 -103 -53 -3 0 -5 5 -5 10 0 6 6 10 13 10 8 0 34 33 59 73 26 40
56 83 68 96 27 33 35 67 21 97 -8 18 -17 24 -29 20 -13 -5 -33 17 -87 97 -39
56 -69 108 -69 114 1 7 -2 10 -7 7 -14 -8 -23 26 -10 39 6 6 11 31 11 55 0 31
4 43 13 39 6 -3 31 -13 55 -22z m-81 -37 c-3 -7 -5 -2 -5 12 0 14 2 19 5 13 2
-7 2 -19 0 -25z m196 -329 c4 -14 -13 -47 -52 -107 -32 -48 -64 -98 -71 -111
l-12 -24 -15 33 c-7 19 -12 40 -11 48 6 28 123 181 139 181 9 1 19 -8 22 -20z"/>
<path d="M1618 693 c7 -3 16 -2 19 1 4 3 -2 6 -13 5 -11 0 -14 -3 -6 -6z"/>
<path d="M1701 664 c0 -11 3 -14 6 -6 3 7 2 16 -1 19 -3 4 -6 -2 -5 -13z"/>
<path d="M1716 627 c3 -10 9 -15 12 -12 3 3 0 11 -7 18 -10 9 -11 8 -5 -6z"/>
<path d="M1695 510 c-3 -5 -1 -10 4 -10 6 0 11 5 11 10 0 6 -2 10 -4 10 -3 0
-8 -4 -11 -10z"/>
<path d="M1735 440 c3 -5 11 -10 16 -10 6 0 7 5 4 10 -3 6 -11 10 -16 10 -6 0
-7 -4 -4 -10z"/>
<path d="M1805 440 c3 -5 8 -10 11 -10 2 0 4 5 4 10 0 6 -5 10 -11 10 -5 0 -7
-4 -4 -10z"/>
<path d="M1830 416 c0 -2 8 -10 18 -17 15 -13 16 -12 3 4 -13 16 -21 21 -21
13z"/>
<path d="M1810 359 c0 -5 5 -7 10 -4 6 3 10 8 10 11 0 2 -4 4 -10 4 -5 0 -10
-5 -10 -11z"/>
<path d="M1685 160 c-3 -5 -1 -10 4 -10 6 0 11 5 11 10 0 6 -2 10 -4 10 -3 0
-8 -4 -11 -10z"/>
<path d="M1503 735 c0 -22 2 -30 4 -17 2 12 2 30 0 40 -3 9 -5 -1 -4 -23z"/>
<path d="M1541 744 c0 -11 3 -14 6 -6 3 7 2 16 -1 19 -3 4 -6 -2 -5 -13z"/>
<path d="M348 633 c7 -3 16 -2 19 1 4 3 -2 6 -13 5 -11 0 -14 -3 -6 -6z"/>
<path d="M2283 613 c9 -2 23 -2 30 0 6 3 -1 5 -18 5 -16 0 -22 -2 -12 -5z"/>
<path d="M2393 613 c9 -2 25 -2 35 0 9 3 1 5 -18 5 -19 0 -27 -2 -17 -5z"/>
<path d="M737 572 c-28 -31 -21 -79 19 -134 35 -49 41 -87 17 -96 -9 -2 -13 7
-13 27 0 24 -4 31 -20 31 -16 0 -20 -7 -20 -33 0 -18 5 -38 12 -45 18 -18 75
-15 82 4 14 37 5 87 -23 127 -34 48 -44 92 -21 92 9 0 16 -11 18 -27 5 -42 32
-36 32 6 0 59 -49 86 -83 48z m71 -23 c4 -11 2 -12 -9 -1 -37 34 -74 -11 -48
-60 11 -21 11 -22 -4 -9 -36 29 -6 107 35 92 12 -4 24 -14 26 -22z m2 -176 c0
-17 -4 -34 -8 -37 -4 -2 -6 11 -4 30 3 21 -1 41 -10 52 -8 9 -18 24 -22 32 -4
8 4 2 18 -15 16 -19 26 -42 26 -62z m-42 -44 c11 0 13 -2 4 -6 -18 -7 -42 16
-41 41 0 18 2 17 11 -6 5 -16 17 -28 26 -29z"/>
<path d="M850 568 c0 -12 8 -18 25 -18 l25 0 0 -120 c0 -100 3 -120 15 -120
13 0 15 20 15 120 l0 120 25 0 c17 0 25 6 25 18 0 14 -10 17 -65 17 -55 0 -65
-3 -65 -17z m100 -7 c-24 -7 -25 -9 -30 -121 l-4 -115 -6 115 c-5 111 -6 114
-30 121 -17 5 -5 7 35 7 40 0 52 -2 35 -7z"/>
<path d="M1026 561 c-7 -33 -36 -228 -36 -241 0 -5 9 -10 20 -10 17 0 20 7 20
45 0 41 2 45 25 45 21 0 25 -5 25 -29 0 -39 9 -61 26 -61 18 0 18 3 -6 135
-11 61 -20 115 -20 121 0 7 -11 14 -25 16 -20 4 -25 0 -29 -21z m38 -59 c1
-45 -2 -62 -11 -62 -10 0 -12 11 -7 43 3 23 7 48 10 55 2 6 -1 12 -6 12 -6 0
-10 5 -10 11 0 6 5 9 12 7 6 -2 12 -29 12 -66z m-22 -73 c5 -4 3 -9 -6 -12
-13 -5 -16 1 -15 31 1 28 3 31 6 12 3 -14 9 -28 15 -31z m48 -5 c0 -8 -5 -12
-10 -9 -6 4 -8 11 -5 16 9 14 15 11 15 -7z"/>
<path d="M1160 449 l0 -139 45 0 c38 0 45 3 45 20 0 17 -5 19 -25 14 l-25 -6
0 120 c0 111 -1 120 -20 125 -19 5 -20 0 -20 -134z m22 -32 c2 -53 0 -97 -4
-97 -5 0 -7 57 -6 128 1 137 6 125 10 -31z"/>
<path d="M2260 450 c0 -136 1 -140 21 -140 21 0 21 3 15 98 -3 53 -8 114 -12
135 -6 34 -4 39 12 35 14 -2 22 -18 31 -68 6 -36 16 -76 23 -90 l11 -25 -6 25
c-3 14 -10 58 -16 98 l-11 72 -34 0 -34 0 0 -140z"/>
<path d="M2370 568 c0 -13 -2 -48 -5 -78 -3 -39 -2 -48 4 -30 l9 25 0 -25 c1
-43 -24 -145 -31 -128 -3 9 -11 53 -18 97 -7 45 -15 81 -19 81 -3 0 1 -45 9
-99 12 -77 19 -101 32 -104 14 -4 19 9 29 74 7 44 10 97 6 119 -6 37 6 56 17
28 3 -7 6 -3 6 10 1 13 -3 20 -9 17 -5 -3 -10 0 -10 7 0 8 8 14 19 15 16 1 18
-6 18 -70 0 -59 -1 -65 -7 -32 -5 31 -7 17 -11 -63 -4 -92 -2 -102 14 -102 15
0 17 13 17 140 l0 140 -35 0 c-30 0 -35 -3 -35 -22z"/>
<path d="M2496 473 c-9 -65 -19 -129 -22 -143 -4 -21 -1 -26 16 -26 15 0 20 7
20 26 0 44 12 70 30 70 20 0 30 -19 30 -60 0 -20 6 -29 21 -33 18 -5 20 -2 17
21 -3 15 -13 80 -24 145 -18 115 -19 117 -44 117 -26 0 -27 -2 -44 -117z m54
87 c0 -5 -7 -10 -16 -10 -8 0 -12 5 -9 10 3 6 10 10 16 10 5 0 9 -4 9 -10z m0
-60 c0 -23 7 -52 17 -66 16 -25 16 -25 -11 -18 -15 3 -32 1 -40 -5 -12 -10
-14 -4 -9 41 6 63 12 75 14 27 2 -34 2 -34 8 6 3 23 2 43 -4 47 -6 5 -2 8 8 8
13 0 17 -9 17 -40z m37 -152 c-3 -7 -5 -2 -5 12 0 14 2 19 5 13 2 -7 2 -19 0
-25z"/>
<path d="M2518 438 c6 -6 18 -8 28 -6 14 3 12 5 -9 10 -19 3 -25 2 -19 -4z"/>
<path d="M2650 587 c0 -2 11 -41 25 -87 14 -47 25 -109 25 -141 0 -48 3 -57
17 -55 14 2 17 12 15 52 -2 42 23 142 53 217 5 13 2 17 -14 17 -23 0 -41 -33
-41 -76 0 -41 -15 -27 -29 26 -10 38 -17 50 -32 50 -10 0 -19 -1 -19 -3z m113
-37 c-3 -12 -8 -19 -11 -16 -5 6 5 36 12 36 2 0 2 -9 -1 -20z m-34 -68 c11 11
12 9 6 -12 -5 -14 -11 -50 -15 -80 l-7 -55 -2 56 c0 31 -8 73 -16 92 -21 50
-18 71 3 24 14 -31 19 -36 31 -25z"/>
<path d="M296 564 c-13 -12 -16 -38 -16 -118 0 -87 3 -105 18 -119 38 -34 82
-15 82 35 0 33 -27 39 -32 8 -2 -12 -7 -22 -13 -23 -14 -3 -19 183 -6 196 7 7
13 4 18 -9 11 -27 33 -28 33 -1 0 45 -52 64 -84 31z m62 -6 c7 -7 12 -16 12
-22 0 -5 -6 -1 -14 10 -13 17 -17 18 -38 5 -21 -13 -22 -13 -9 2 16 20 32 22
49 5z"/>
<path d="M420 445 c0 -128 1 -135 20 -135 23 0 24 5 9 49 -8 23 -8 35 1 45 11
15 8 114 -6 149 -5 13 -1 17 18 17 13 0 29 -5 36 -12 13 -13 17 -154 5 -161
-5 -3 -8 32 -8 76 0 80 -1 82 -25 84 -25 3 -25 3 -2 -7 20 -8 22 -16 22 -79 0
-64 -2 -70 -22 -74 l-23 -4 23 -2 c17 -1 22 -7 21 -28 0 -27 -1 -27 -9 -5 -5
12 -15 22 -22 22 -9 0 -10 -3 -2 -8 6 -4 14 -19 18 -34 4 -19 13 -28 27 -28
20 0 21 7 2 56 -2 7 0 15 6 19 15 9 14 168 -1 183 -7 7 -29 12 -50 12 l-38 0
0 -135z"/>
<path d="M554 563 c2 -10 14 -51 26 -92 13 -43 20 -93 18 -118 -3 -36 0 -43
14 -43 15 0 18 10 18 63 0 35 4 67 8 73 5 5 14 29 21 54 7 25 15 53 17 63 4
12 0 17 -15 17 -14 0 -22 -8 -27 -27 -3 -16 -8 -35 -11 -43 -3 -8 -5 -53 -5
-100 l0 -85 -8 65 c-4 36 -12 78 -19 93 -16 40 -13 58 4 22 17 -37 19 -16 3
36 -8 28 -17 39 -30 39 -14 0 -18 -5 -14 -17z m87 -69 c-5 -16 -10 -21 -10
-12 -1 18 10 51 15 45 2 -1 -1 -16 -5 -33z"/>
<path d="M695 560 c-4 -12 -5 -24 -2 -27 3 -2 8 5 12 17 4 12 5 24 2 27 -3 2
-8 -5 -12 -17z"/>
<path d="M997 573 c-4 -3 -7 -13 -7 -22 1 -13 3 -13 11 2 11 19 8 33 -4 20z"/>
<path d="M2132 555 c0 -16 2 -22 5 -12 2 9 2 23 0 30 -3 6 -5 -1 -5 -18z"/>
<path d="M2592 550 c0 -19 2 -27 5 -17 2 9 2 25 0 35 -3 9 -5 1 -5 -18z"/>
<path d="M1101 554 c0 -11 3 -14 6 -6 3 7 2 16 -1 19 -3 4 -6 -2 -5 -13z"/>
<path d="M1132 545 c0 -16 2 -22 5 -12 2 9 2 23 0 30 -3 6 -5 -1 -5 -18z"/>
<path d="M2632 550 c0 -14 2 -19 5 -12 2 6 2 18 0 25 -3 6 -5 1 -5 -13z"/>
<path d="M222 530 c0 -19 2 -27 5 -17 2 9 2 25 0 35 -3 9 -5 1 -5 -18z"/>
<path d="M261 544 c0 -11 3 -14 6 -6 3 7 2 16 -1 19 -3 4 -6 -2 -5 -13z"/>
<path d="M2290 540 c0 -5 5 -10 10 -10 6 0 10 5 10 10 0 6 -4 10 -10 10 -5 0
-10 -4 -10 -10z"/>
<path d="M992 510 c0 -14 2 -19 5 -12 2 6 2 18 0 25 -3 6 -5 1 -5 -13z"/>
<path d="M261 504 c0 -11 3 -14 6 -6 3 7 2 16 -1 19 -3 4 -6 -2 -5 -13z"/>
<path d="M1444 439 c-25 -26 -44 -51 -40 -57 3 -5 31 -20 62 -32 55 -23 57
-23 87 -5 82 47 108 67 105 77 -3 7 -41 23 -86 38 l-82 26 -46 -47z m139 -6
c55 -6 73 -21 24 -20 -54 1 -146 -14 -153 -25 -4 -6 1 -8 12 -4 11 3 43 8 72
11 30 3 58 7 63 11 5 3 9 1 9 -4 0 -14 -48 -32 -67 -26 -13 4 -14 3 -5 -3 10
-8 10 -12 -2 -22 -12 -10 -23 -8 -58 10 -24 13 -46 22 -50 21 -12 -3 -10 16 2
23 6 3 10 1 10 -5 0 -6 12 3 27 20 20 24 31 30 47 25 12 -4 42 -9 69 -12z"/>
<path d="M1503 423 c9 -2 23 -2 30 0 6 3 -1 5 -18 5 -16 0 -22 -2 -12 -5z"/>
<path d="M1585 480 c-16 -7 -17 -9 -3 -9 9 -1 20 4 23 9 7 11 7 11 -20 0z"/>
<path d="M263 430 c0 -30 2 -43 4 -27 2 15 2 39 0 55 -2 15 -4 2 -4 -28z"/>
<path d="M671 464 c0 -11 3 -14 6 -6 3 7 2 16 -1 19 -3 4 -6 -2 -5 -13z"/>
<path d="M2771 464 c0 -11 3 -14 6 -6 3 7 2 16 -1 19 -3 4 -6 -2 -5 -13z"/>
<path d="M2811 464 c0 -11 3 -14 6 -6 3 7 2 16 -1 19 -3 4 -6 -2 -5 -13z"/>
<path d="M2612 440 c0 -14 2 -19 5 -12 2 6 2 18 0 25 -3 6 -5 1 -5 -13z"/>
<path d="M977 433 c-4 -3 -7 -13 -7 -22 1 -13 3 -13 11 2 11 19 8 33 -4 20z"/>
<path d="M2462 415 c0 -16 2 -22 5 -12 2 9 2 23 0 30 -3 6 -5 -1 -5 -18z"/>
<path d="M735 420 c3 -5 8 -10 11 -10 2 0 4 5 4 10 0 6 -5 10 -11 10 -5 0 -7
-4 -4 -10z"/>
<path d="M1381 394 c0 -11 3 -14 6 -6 3 7 2 16 -1 19 -3 4 -6 -2 -5 -13z"/>
<path d="M262 350 c0 -14 2 -19 5 -12 2 6 2 18 0 25 -3 6 -5 1 -5 -13z"/>
<path d="M531 344 c0 -11 3 -14 6 -6 3 7 2 16 -1 19 -3 4 -6 -2 -5 -13z"/>
<path d="M571 334 c0 -11 3 -14 6 -6 3 7 2 16 -1 19 -3 4 -6 -2 -5 -13z"/>
<path d="M1055 340 c3 -5 8 -10 11 -10 2 0 4 5 4 10 0 6 -5 10 -11 10 -5 0 -7
-4 -4 -10z"/>
<path d="M1425 340 c3 -5 8 -10 11 -10 2 0 4 5 4 10 0 6 -5 10 -11 10 -5 0 -7
-4 -4 -10z"/>
<path d="M1971 304 c0 -11 3 -14 6 -6 3 7 2 16 -1 19 -3 4 -6 -2 -5 -13z"/>
<path d="M323 283 c9 -2 23 -2 30 0 6 3 -1 5 -18 5 -16 0 -22 -2 -12 -5z"/>
<path d="M428 283 c6 -2 18 -2 25 0 6 3 1 5 -13 5 -14 0 -19 -2 -12 -5z"/>
<path d="M488 283 c6 -2 18 -2 25 0 6 3 1 5 -13 5 -14 0 -19 -2 -12 -5z"/>
<path d="M608 283 c7 -3 16 -2 19 1 4 3 -2 6 -13 5 -11 0 -14 -3 -6 -6z"/>
<path d="M753 283 c9 -2 25 -2 35 0 9 3 1 5 -18 5 -19 0 -27 -2 -17 -5z"/>
<path d="M908 283 c7 -3 16 -2 19 1 4 3 -2 6 -13 5 -11 0 -14 -3 -6 -6z"/>
<path d="M998 283 c7 -3 16 -2 19 1 4 3 -2 6 -13 5 -11 0 -14 -3 -6 -6z"/>
<path d="M1098 283 c7 -3 16 -2 19 1 4 3 -2 6 -13 5 -11 0 -14 -3 -6 -6z"/>
<path d="M1183 283 c15 -2 37 -2 50 0 12 2 0 4 -28 4 -27 0 -38 -2 -22 -4z"/>
<path d="M2268 283 c6 -2 18 -2 25 0 6 3 1 5 -13 5 -14 0 -19 -2 -12 -5z"/>
<path d="M2418 283 c7 -3 16 -2 19 1 4 3 -2 6 -13 5 -11 0 -14 -3 -6 -6z"/>
<path d="M1870 249 c0 -5 5 -7 10 -4 6 3 10 8 10 11 0 2 -4 4 -10 4 -5 0 -10
-5 -10 -11z"/>
<path d="M763 243 c9 -2 23 -2 30 0 6 3 -1 5 -18 5 -16 0 -22 -2 -12 -5z"/>
<path d="M908 243 c7 -3 16 -2 19 1 4 3 -2 6 -13 5 -11 0 -14 -3 -6 -6z"/>
<path d="M998 243 c7 -3 16 -2 19 1 4 3 -2 6 -13 5 -11 0 -14 -3 -6 -6z"/>
<path d="M1098 243 c7 -3 16 -2 19 1 4 3 -2 6 -13 5 -11 0 -14 -3 -6 -6z"/>
<path d="M1188 243 c12 -2 30 -2 40 0 9 3 -1 5 -23 4 -22 0 -30 -2 -17 -4z"/>
<path d="M1561 174 c0 -11 3 -14 6 -6 3 7 2 16 -1 19 -3 4 -6 -2 -5 -13z"/>
<path d="M1738 123 c7 -3 16 -2 19 1 4 3 -2 6 -13 5 -11 0 -14 -3 -6 -6z"/>
</g>
</svg>
